<svg xmlns="http://www.w3.org/2000/svg" width="44.125" height="39.042"><g fill="#252525"><path d="M27.311 7.798c.549 1.348 1.034 2.937 1.441 4.724l.066.292h8.066l-.258-.537c-1.072-2.24-2.563-4.134-4.431-5.63-1.865-1.493-4.045-2.562-6.478-3.178l-.953-.242.551.815a20.372 20.372 0 0 1 1.996 3.756zm4.417-.565a15.125 15.125 0 0 1 3.954 4.831h-6.267c-.402-1.708-.876-3.237-1.409-4.548a21.562 21.562 0 0 0-1.531-3.054c1.951.61 3.714 1.54 5.253 2.771zm-15.243 5.581h10.224l-.094-.452a19.12 19.12 0 0 0-1.805-4.999 20.038 20.038 0 0 0-2.974-4.264l-.243-.265-.274.232c-1.054.89-1.955 2.072-2.676 3.514-.709 1.421-1.393 3.359-2.033 5.761l-.125.473zm2.829-5.897c.612-1.223 1.356-2.243 2.216-3.036a19.428 19.428 0 0 1 2.616 3.832 18.463 18.463 0 0 1 1.635 4.351h-8.318c.589-2.135 1.211-3.865 1.851-5.147zm7.743 8.016h-10.94l-.042.327a32.745 32.745 0 0 0-.241 2.394 33.77 33.77 0 0 0-.049 1.863c0 .675.017 1.326.049 1.955.031.628.11 1.428.241 2.443l.042.327h10.939l.042-.327a33.21 33.21 0 0 0 .241-2.443c.031-.627.049-1.28.049-1.955 0-.646-.018-1.266-.05-1.862a33.434 33.434 0 0 0-.24-2.394l-.041-.328zm-.467 6.501a29.733 29.733 0 0 1-.194 2.058h-9.618a29.849 29.849 0 0 1-.195-2.059 37.008 37.008 0 0 1 0-3.74c.026-.506.092-1.181.195-2.01h9.618c.103.831.168 1.506.195 2.011a35.423 35.423 0 0 1-.001 3.74zm-12.165-8.92c.344-1.692.788-3.222 1.318-4.549a22.416 22.416 0 0 1 2.023-3.879l.522-.803-.928.235c-2.432.616-4.587 1.669-6.407 3.131-1.819 1.46-3.317 3.353-4.453 5.623l-.271.543h8.134l.062-.301zm-6.971-.45c1.048-1.933 2.381-3.556 3.969-4.831 1.502-1.207 3.248-2.123 5.2-2.729a22.993 22.993 0 0 0-1.576 3.182c-.516 1.289-.951 2.761-1.295 4.378H7.454zm21.347 14.581c-.409 1.695-.895 3.255-1.443 4.636a21.3 21.3 0 0 1-1.997 3.854l-.583.886 1.011-.322a19.616 19.616 0 0 0 6.313-3.365 17.54 17.54 0 0 0 4.519-5.423l.298-.553H28.87l-.069.287zm6.847.463a16.768 16.768 0 0 1-4.017 4.64 18.708 18.708 0 0 1-5.079 2.89 22.559 22.559 0 0 0 1.502-3.079 34.856 34.856 0 0 0 1.404-4.45h6.19z"/><path d="M39.55 11.886c-1.005-2.347-2.398-4.422-4.143-6.166-1.751-1.75-3.835-3.137-6.194-4.121C26.854.613 24.279.112 21.563.112s-5.29.5-7.65 1.487c-2.358.984-4.442 2.37-6.194 4.121a19.547 19.547 0 0 0-4.143 6.166c-1.003 2.348-1.512 4.915-1.512 7.63s.508 5.297 1.511 7.674c1.002 2.376 2.396 4.468 4.144 6.217 1.745 1.746 3.827 3.147 6.19 4.167 2.364 1.02 4.939 1.537 7.654 1.537 2.714 0 5.29-.518 7.654-1.537 2.358-1.018 4.441-2.419 6.191-4.167 1.748-1.752 3.142-3.844 4.143-6.217 1.003-2.375 1.512-4.957 1.512-7.674 0-2.715-.509-5.282-1.513-7.63zm-.691 15.013c-.963 2.283-2.303 4.295-3.981 5.978-1.683 1.681-3.687 3.028-5.958 4.008-2.27.979-4.745 1.477-7.357 1.477s-5.087-.497-7.357-1.477c-2.275-.981-4.279-2.329-5.957-4.007-1.679-1.681-3.019-3.692-3.982-5.979-.964-2.285-1.453-4.769-1.453-7.383s.488-5.082 1.452-7.335A18.782 18.782 0 0 1 8.249 6.25c1.682-1.681 3.685-3.013 5.953-3.959C16.47 1.343 18.947.862 21.563.862c2.617 0 5.093.481 7.361 1.429 2.269.946 4.272 2.278 5.953 3.959 1.677 1.676 3.017 3.672 3.983 5.931.964 2.254 1.452 4.722 1.452 7.335.001 2.616-.489 5.1-1.453 7.383z"/><path d="M37.605 15.202l-.079-.27h-8.292l.034.407c.096 1.109.16 1.958.189 2.545.03.582.047 1.127.047 1.63 0 .696-.023 1.354-.068 1.954-.047.623-.121 1.409-.214 2.36l-.041.412h8.345l.079-.271a13.94 13.94 0 0 0 .466-2.187c.081-.66.122-1.424.122-2.269 0-.847-.041-1.587-.122-2.202a14.616 14.616 0 0 0-.466-2.109zm-.278 6.491a12.773 12.773 0 0 1-.366 1.799h-6.952c.075-.776.136-1.431.176-1.966.047-.619.07-1.296.07-2.011 0-.516-.017-1.074-.048-1.669a70.721 70.721 0 0 0-.156-2.164h6.911c.175.636.298 1.217.365 1.731a16.4 16.4 0 0 1 .116 2.103c0 .815-.039 1.547-.116 2.177zm-23.472 2.133a27.174 27.174 0 0 1-.166-2.286 86.274 86.274 0 0 1-.023-2.021c0-.791.017-1.494.047-2.109.031-.6.094-1.291.188-2.054l.052-.42H5.599l-.079.27c-.227.78-.384 1.491-.466 2.113a17.21 17.21 0 0 0-.122 2.201c0 .842.041 1.604.122 2.27.083.671.239 1.405.466 2.184l.079.271h8.303l-.047-.419zm-.915-2.268c.015.586.057 1.234.126 1.934H6.164a13.075 13.075 0 0 1-.366-1.795 18.343 18.343 0 0 1-.116-2.179c0-.813.039-1.521.115-2.103.068-.513.191-1.094.366-1.731h6.945a28.48 28.48 0 0 0-.143 1.687 43.828 43.828 0 0 0-.048 2.147c0 .671.007 1.35.023 2.04zm13.734 4.802H16.501l.107.46c.449 1.93 1.062 3.694 1.821 5.244a16.687 16.687 0 0 0 2.862 4.156l.269.284.272-.28a16.324 16.324 0 0 0 2.862-4.037c.759-1.499 1.389-3.305 1.872-5.366l.108-.461zm-2.65 5.489a15.708 15.708 0 0 1-2.458 3.564 16.057 16.057 0 0 1-2.463-3.68c-.674-1.376-1.23-2.93-1.654-4.624h8.275c-.453 1.813-1.024 3.406-1.7 4.74zm-8.235-.521c-.563-1.38-1.04-2.952-1.416-4.673l-.064-.295h-8.1l.296.552c1.229 2.296 2.677 4.128 4.303 5.446 1.621 1.313 3.831 2.452 6.569 3.386l1.036.354-.602-.915a22.732 22.732 0 0 1-2.022-3.855zm-4.509.448c-1.417-1.149-2.696-2.717-3.809-4.666h6.234c.375 1.647.841 3.161 1.389 4.502a23.91 23.91 0 0 0 1.514 3.059c-2.189-.831-3.978-1.802-5.328-2.895z"/></g></svg>