<svg xmlns="http://www.w3.org/2000/svg" width="44.125" height="39.042" fill="#252525"><path d="M38.563 37.966H4.699a3.982 3.982 0 0 1-3.978-3.978L.733 6.505C.726 6.4.721 6.326.721 6.249c0-2.392 1.958-4.338 4.366-4.338h33.45c2.208 0 4.004 1.785 4.004 3.978v5.764a1.19 1.19 0 0 1-.04.274c.025.184.04.313.04.446v4.669h.346a1.1 1.1 0 0 1 1.096 1.094v10.089c0 .604-.491 1.096-1.096 1.096h-.345v4.668a3.982 3.982 0 0 1-3.979 3.977zM5.087 2.661c-1.994 0-3.616 1.609-3.616 3.588 0 .071.005.14.011.208l.003.036-.023.186.009 27.31a3.232 3.232 0 0 0 3.228 3.228h33.863a3.232 3.232 0 0 0 3.229-3.228v-5.418h1.095c.19 0 .346-.155.346-.346V18.138a.348.348 0 0 0-.346-.346H41.79v-5.419c0-.117-.018-.229-.033-.342l-.014-.096.023-.177a.365.365 0 0 0 .023-.119v-5.75c0-1.78-1.46-3.228-3.254-3.228H5.087zm33.476 33.866H4.698a2.54 2.54 0 0 1-2.537-2.537V8.496l.614.51a3.624 3.624 0 0 0 2.307.832h33.48a2.54 2.54 0 0 1 2.537 2.536v5.419h-5.418a4.674 4.674 0 0 0-4.67 4.668v1.44a4.675 4.675 0 0 0 4.67 4.67H41.1v5.419a2.54 2.54 0 0 1-2.537 2.537zM2.911 10.008V33.99a1.79 1.79 0 0 0 1.787 1.787h33.864a1.79 1.79 0 0 0 1.787-1.787v-4.669h-4.668a5.427 5.427 0 0 1-5.42-5.42v-1.44a5.425 5.425 0 0 1 5.42-5.418h4.668v-4.669c0-.985-.802-1.786-1.787-1.786H5.087a4.387 4.387 0 0 1-2.176-.58zm24.124 22.915h-7.206a1.097 1.097 0 0 1 0-2.192h7.206a1.096 1.096 0 0 1 0 2.192zm-7.206-1.441a.346.346 0 0 0 0 .692h7.206a.346.346 0 0 0 0-.692h-7.206zm-2.882 1.441H6.14a1.096 1.096 0 0 1 0-2.192h10.808a1.096 1.096 0 0 1-.001 2.192zM6.14 31.482a.346.346 0 0 0 0 .692h10.807a.346.346 0 0 0 .001-.692H6.14zm23.777-2.16h-3.603a1.097 1.097 0 0 1 0-2.192h3.603a1.096 1.096 0 0 1 0 2.192zm-3.603-1.442a.346.346 0 0 0 0 .692h3.603a.346.346 0 0 0 0-.692h-3.603zm-3.602 1.442h-3.604a1.097 1.097 0 0 1 0-2.192h3.604a1.096 1.096 0 0 1 0 2.192zm-3.604-1.442a.347.347 0 0 0 0 .692h3.604a.346.346 0 0 0 0-.692h-3.604zm-2.881 1.442h-3.604a1.097 1.097 0 0 1 0-2.192h3.604a1.097 1.097 0 0 1 0 2.192zm-3.604-1.442a.346.346 0 0 0 0 .692h3.604a.346.346 0 0 0 0-.692h-3.604zm-2.882 1.442H6.14a1.096 1.096 0 0 1 0-2.192h3.601a1.097 1.097 0 0 1 0 2.192zM6.14 27.88a.346.346 0 0 0 0 .692h3.601c.191 0 .347-.155.347-.346s-.156-.346-.347-.346H6.14zm36.401 0h-6.859a3.983 3.983 0 0 1-3.978-3.979v-1.44a3.982 3.982 0 0 1 3.978-3.978h6.859v9.397zm-6.859-8.647a3.232 3.232 0 0 0-3.228 3.228v1.44a3.232 3.232 0 0 0 3.228 3.229h6.109v-7.897h-6.109zm.718 7.206a3.261 3.261 0 0 1-3.256-3.258 3.26 3.26 0 0 1 3.256-3.256 3.26 3.26 0 0 1 3.257 3.256 3.261 3.261 0 0 1-3.257 3.258zm0-5.764a2.509 2.509 0 0 0-2.506 2.506c0 1.383 1.124 2.508 2.506 2.508s2.507-1.125 2.507-2.508a2.51 2.51 0 0 0-2.507-2.506zm0 4.323c-1.001 0-1.815-.814-1.815-1.815s.814-1.815 1.815-1.815 1.815.814 1.815 1.815-.814 1.815-1.815 1.815zm0-2.881a1.066 1.066 0 0 0 0 2.13 1.066 1.066 0 0 0 0-2.13zm4.7-11.857l-.601-.451a3.24 3.24 0 0 0-.85-.46l-.146-.096a.34.34 0 0 0-.248-.107h-1.068V5.889a.346.346 0 0 0-.346-.346H5.42a.347.347 0 0 0-.347.346v3.28l-.431-.066c-1.438-.22-2.48-1.42-2.48-2.854 0-1.597 1.313-2.897 2.926-2.897h33.45c1.413 0 2.563 1.138 2.563 2.537v4.371zm-1.119-1.588c.126.048.248.103.368.163V5.889c0-.985-.813-1.787-1.813-1.787H5.087c-1.2 0-2.176.963-2.176 2.147a2.13 2.13 0 0 0 1.412 2.002V5.889c0-.604.492-1.096 1.097-1.096h32.422c.604 0 1.096.492 1.096 1.096v2.506h.32c.268.001.526.102.723.277zm-2.485.474H5.765V6.234h31.731v2.912zm-30.981-.75h30.231V6.984H6.515v1.412z"/><path fill="#252525" d="M11.496 25.358c-.001 0 0 0 0 0l-.094-.001c-1.253-.024-2.422-.537-3.293-1.443s-1.336-2.095-1.312-3.348a4.633 4.633 0 0 1 .785-2.507 4.641 4.641 0 0 1-.686-2.536c.049-2.54 2.156-4.605 4.698-4.605l.094.001a4.705 4.705 0 0 1 4.603 4.791 4.626 4.626 0 0 1-.784 2.507c.468.765.705 1.637.685 2.537-.051 2.538-2.158 4.604-4.696 4.604zm.175-13.689c-2.214 0-3.984 1.735-4.025 3.869a3.887 3.887 0 0 0 .698 2.315l.156.224-.164.217a3.89 3.89 0 0 0-.789 2.287 3.92 3.92 0 0 0 1.103 2.813 3.92 3.92 0 0 0 2.767 1.213l.079.376v-.375c2.133 0 3.903-1.736 3.945-3.87a3.9 3.9 0 0 0-.696-2.318l-.154-.222.163-.216a3.888 3.888 0 0 0 .787-2.286 3.953 3.953 0 0 0-3.867-4.027h-.003zm-.178 12.248c-1.857-.036-3.29-1.526-3.256-3.322.018-.86.366-1.663.981-2.261a.345.345 0 0 0 .01-.483 3.213 3.213 0 0 1-.89-2.299 3.274 3.274 0 0 1 3.256-3.192h.064a3.261 3.261 0 0 1 3.191 3.321 3.232 3.232 0 0 1-.979 2.261.348.348 0 0 0-.01.485c.592.622.908 1.438.89 2.298a3.274 3.274 0 0 1-3.257 3.192zm.101-11.184v.375a2.52 2.52 0 0 0-2.506 2.458 2.497 2.497 0 0 0 .684 1.767 1.1 1.1 0 0 1-.031 1.537 2.482 2.482 0 0 0-.754 1.739 2.514 2.514 0 0 0 2.458 2.557h.001c1.404 0 2.528-1.102 2.555-2.456a2.469 2.469 0 0 0-.685-1.768 1.101 1.101 0 0 1 .031-1.538c.473-.462.741-1.08.753-1.738a2.51 2.51 0 0 0-2.456-2.557l-.05-.376z"/></svg>