<svg xmlns="http://www.w3.org/2000/svg" width="44.125" height="39.042" fill="#252525"><path d="M11.115 38.632a4.083 4.083 0 0 1-2.584-.927l-1.525-1.252a4.083 4.083 0 0 1-1.346-4.241l4.689-16.999-8.078-6.631a4.054 4.054 0 0 1-1.027-1.263 4.037 4.037 0 0 1 .114-3.993C2.31 1.754 4.231.986 6.013 1.509a4.054 4.054 0 0 1 1.438.762l8.079 6.631L31.289.991c1.405-.708 3.206-.506 4.422.492l1.524 1.251a4.075 4.075 0 0 1 1.491 3.091 4.071 4.071 0 0 1-1.395 3.137L26.808 18.16l6.356 5.217 4.456-2.326a3.125 3.125 0 0 1 3.361.348 3.027 3.027 0 0 1 1.11 2.564 3.027 3.027 0 0 1-1.434 2.398l-5.848 3.649-2.439 6.439a3.047 3.047 0 0 1-2.874 1.982 3.025 3.025 0 0 1-1.939-.697 3.07 3.07 0 0 1-1.008-3.201l1.375-4.89-6.3-5.173-6.969 12.112a4.085 4.085 0 0 1-3.54 2.05zM4.831 2.086c-1.139 0-2.224.624-2.831 1.628-.612 1.012-.646 2.199-.092 3.257.21.402.493.749.838 1.03l8.455 6.941-4.819 17.47a3.333 3.333 0 0 0 1.099 3.462l1.525 1.252a3.292 3.292 0 0 0 2.109.757c1.191 0 2.3-.64 2.892-1.671l7.411-12.879 7.363 6.044-1.508 5.362c-.249.885.05 1.834.762 2.418.42.345.926.527 1.463.527.977 0 1.829-.588 2.173-1.498L34.2 29.51l6.063-3.784c.639-.398 1.033-1.059 1.082-1.811s-.257-1.458-.839-1.936a2.362 2.362 0 0 0-2.538-.263l-4.895 2.556-7.425-6.094 11.189-9.78a3.329 3.329 0 0 0-.079-5.084l-1.524-1.251c-.992-.815-2.461-.979-3.608-.402L15.432 9.792l-8.457-6.94a3.281 3.281 0 0 0-1.173-.623 3.439 3.439 0 0 0-.971-.143zm6.284 34.694c-.512 0-1.014-.18-1.411-.506l-1.525-1.252a2.229 2.229 0 0 1-.733-2.315l4.836-17.524a.614.614 0 0 0 .016-.194l-.005-.066.019-.063a.55.55 0 0 0-.181-.577l-8.686-7.13a2.326 2.326 0 0 1-.56-.695 2.205 2.205 0 0 1 .063-2.18 2.25 2.25 0 0 1 2.541-.991c.287.085.559.229.786.417l8.684 7.128a.56.56 0 0 0 .604.064l.128-.039a.55.55 0 0 0 .184-.056L32.12 2.648a2.271 2.271 0 0 1 2.415.269l1.523 1.251a2.226 2.226 0 0 1 .051 3.399l-11.68 10.208a.548.548 0 0 0-.053.779.53.53 0 0 0 .118.102l-.118.395.238-.29 7.947 6.522c.163.145.3.198.439.198.09 0 .177-.021.258-.063l5.218-2.725c.426-.221.963-.16 1.324.138.304.249.463.617.438 1.01s-.23.737-.564.946l-6.214 3.878a.52.52 0 0 0-.112.088 1.06 1.06 0 0 0-.077.094 1.06 1.06 0 0 0-.053.113l-2.586 6.834c-.277.736-1.286 1.011-1.902.507a1.21 1.21 0 0 1-.396-1.268l1.588-5.646a.537.537 0 0 0 .014-.225.575.575 0 0 0-.203-.434l-8.076-6.624a.623.623 0 0 0-.127-.098c-.232-.134-.601-.045-.746.207l-7.734 13.45a2.239 2.239 0 0 1-1.935 1.117zm1.934-21.779c.003.125-.011.25-.042.373L8.168 32.906a1.481 1.481 0 0 0 .486 1.536l1.525 1.252c.686.563 1.782.354 2.22-.405l7.736-13.444c.342-.598 1.174-.827 1.778-.48.105.063.189.127.26.198.033.021.065.046.095.07l7.942 6.52c.283.231.455.573.473.936.024.138.015.322-.036.504l-1.589 5.649a.462.462 0 0 0 .876.29l2.59-6.845a1.51 1.51 0 0 1 .137-.269c.055-.073.097-.128.145-.177.07-.076.16-.148.264-.212l6.211-3.876a.455.455 0 0 0 .048-.741.465.465 0 0 0-.502-.052l-5.217 2.725a1.309 1.309 0 0 1-.604.148 1.29 1.29 0 0 1-.891-.353l-8.079-6.638a.872.872 0 0 1-.219-.193 1.294 1.294 0 0 1-.319-.945c.022-.348.18-.666.442-.894L35.618 7.005c.328-.287.513-.7.506-1.135a1.474 1.474 0 0 0-.54-1.121l-1.522-1.251a1.508 1.508 0 0 0-1.603-.179l-16.247 8.154c-.119.06-.243.1-.368.121-.44.197-.986.127-1.361-.182L5.799 4.284a1.5 1.5 0 0 0-.522-.277 1.49 1.49 0 0 0-1.687.66 1.441 1.441 0 0 0-.04 1.444c.091.175.22.334.373.462l8.684 7.128c.384.316.554.82.442 1.3z"/></svg>