<svg xmlns="http://www.w3.org/2000/svg"  width="51px" height="51.667px" viewBox="0 0 51 51.667"  fill="#4CAF50">
<path fill-rule="evenodd" clip-rule="evenodd" d="M25.567,2.166c-13.014,0-23.601,10.587-23.601,23.6
	c0,4.116,1.077,8.161,3.117,11.72L1.208,49.113c-0.093,0.278-0.025,0.584,0.175,0.799c0.154,0.164,0.366,0.254,0.584,0.254
	c0.068,0,0.136-0.008,0.204-0.027l12.694-3.34c3.297,1.681,6.99,2.566,10.703,2.566c13.012,0,23.6-10.586,23.6-23.6
	C49.167,12.753,38.579,2.166,25.567,2.166z M40.395,36.952c-0.693,1.726-3.819,3.299-5.2,3.373c-1.382,0.078-1.419,1.08-8.936-2.212
	c-7.515-3.292-12.037-11.294-12.395-11.805c-0.353-0.518-2.906-4.185-2.77-7.875c0.137-3.694,2.146-5.437,2.861-6.164
	c0.713-0.722,1.535-0.88,2.034-0.86c0.499,0.018,0.997,0.1,1.438,0.116c0.436,0.016,1.07-0.212,1.641,1.315
	c0.567,1.523,1.933,5.275,2.102,5.654c0.176,0.379,0.283,0.824,0.018,1.318c-0.27,0.49-0.408,0.797-0.799,1.222
	c-0.39,0.423-0.823,0.949-1.176,1.274c-0.387,0.357-0.795,0.749-0.387,1.518c0.411,0.763,1.822,3.278,3.981,5.35
	c2.77,2.667,5.156,3.546,5.894,3.951c0.737,0.402,1.175,0.356,1.632-0.127s1.958-2.12,2.485-2.851
	c0.531-0.73,1.027-0.589,1.704-0.314c0.681,0.275,4.299,2.23,5.035,2.636c0.735,0.402,1.228,0.606,1.405,0.928
	C41.139,33.716,41.086,35.219,40.395,36.952z"/>
</svg>
