<svg xmlns="http://www.w3.org/2000/svg" width="20" height="20" viewBox="0.112 -2.992 20 20"><g fill-rule="evenodd"><path d="M20.049 2.885c-.051-1.064-.218-1.795-.466-2.429a4.895 4.895 0 0 0-1.155-1.771 4.878 4.878 0 0 0-1.768-1.153c-.637-.248-1.363-.417-2.428-.465-1.068-.046-1.408-.059-4.126-.059-2.713 0-3.056.012-4.122.06-1.063.05-1.791.216-2.426.465a4.907 4.907 0 0 0-1.769 1.153A4.962 4.962 0 0 0 .635.457c-.247.635-.417 1.365-.464 2.43-.05 1.064-.06 1.404-.06 4.123s.01 3.055.06 4.121c.049 1.064.217 1.793.465 2.429a4.905 4.905 0 0 0 1.154 1.77 4.9 4.9 0 0 0 1.771 1.154c.636.248 1.363.417 2.425.466 1.068.049 1.408.06 4.122.06 2.716 0 3.059-.011 4.126-.06 1.064-.049 1.79-.218 2.427-.466a4.868 4.868 0 0 0 1.769-1.154 4.938 4.938 0 0 0 1.155-1.77c.248-.636.415-1.364.465-2.429.045-1.065.062-1.402.062-4.122 0-2.72-.017-3.061-.063-4.124zm-1.803 8.166c-.042.975-.207 1.505-.345 1.857a3.06 3.06 0 0 1-.745 1.149c-.35.348-.685.566-1.148.748-.353.135-.884.3-1.86.343-1.052.049-1.371.06-4.041.06s-2.984-.011-4.041-.06c-.974-.043-1.503-.209-1.854-.343a3.1 3.1 0 0 1-1.149-.748 3.097 3.097 0 0 1-.75-1.149c-.135-.353-.298-.883-.344-1.857-.045-1.056-.056-1.371-.056-4.041 0-2.671.01-2.988.056-4.041.044-.977.209-1.506.344-1.859.184-.465.4-.8.751-1.149a3.089 3.089 0 0 1 1.149-.748c.353-.141.88-.299 1.854-.346 1.057-.047 1.371-.057 4.04-.057s2.989.01 4.041.057c.977.046 1.508.209 1.86.346.463.181.799.399 1.148.746.351.35.565.684.745 1.151.141.353.303.882.345 1.859.048 1.052.058 1.37.058 4.041 0 2.67-.01 2.986-.058 4.041z"/><path d="M10.107 1.873c-2.834 0-5.133 2.297-5.133 5.136s2.297 5.136 5.133 5.136c2.837 0 5.137-2.297 5.137-5.136s-2.299-5.136-5.137-5.136zm0 8.469a3.332 3.332 0 0 1-3.331-3.334 3.333 3.333 0 0 1 3.331-3.335 3.335 3.335 0 0 1 0 6.669z"/><circle cx="15.446" cy="1.668" r="1.2"/></g></svg>