<svg xmlns="http://www.w3.org/2000/svg" width="51px" height="51.667px" viewBox="0 0 51 51.667">
<path d="M25.093,2.011c-13.255,0-24,10.746-24,24c0,13.256,10.745,24.001,24,24.001c13.256,0,24.001-10.745,24.001-24.001
	C49.094,12.756,38.349,2.011,25.093,2.011z M19.152,14.758c1.977-1.978,4.608-3.068,7.408-3.068c2.797,0,5.428,1.09,7.406,3.068
	c4.084,4.084,4.084,10.73,0,14.813c-0.104,0.103-0.236,0.154-0.373,0.154s-0.271-0.052-0.375-0.154
	c-0.206-0.206-0.206-0.541,0-0.749c3.671-3.671,3.671-9.645,0-13.316c-1.778-1.779-4.144-2.758-6.658-2.758
	c-2.516,0-4.88,0.979-6.658,2.758c-0.209,0.206-0.542,0.206-0.75,0C18.946,15.301,18.946,14.964,19.152,14.758z M29.266,19.458
	c-1.446-1.447-3.968-1.447-5.416,0c-0.207,0.205-0.54,0.205-0.747,0c-0.206-0.208-0.206-0.542,0-0.749
	c1.847-1.846,5.066-1.846,6.911,0c1.905,1.905,1.905,5.005,0,6.911c-0.104,0.103-0.237,0.155-0.374,0.155
	c-0.135,0-0.271-0.052-0.374-0.155c-0.207-0.206-0.207-0.542,0-0.749C30.758,23.379,30.758,20.951,29.266,19.458z M31.224,26.83
	c2.571-2.571,2.571-6.757,0-9.33c-1.247-1.246-2.902-1.931-4.665-1.931c-1.762,0-3.419,0.686-4.664,1.931
	c-0.208,0.208-0.542,0.208-0.749,0c-0.206-0.207-0.206-0.541,0-0.748c2.984-2.982,7.841-2.985,10.826,0s2.984,7.842,0,10.827
	c-0.104,0.104-0.239,0.154-0.374,0.154c-0.137,0-0.271-0.051-0.374-0.154C31.017,27.371,31.017,27.037,31.224,26.83z M38.926,38.822
	c-0.702,1.752-3.873,3.346-5.272,3.422c-1.402,0.079-1.44,1.096-9.064-2.243c-7.621-3.34-12.208-11.456-12.571-11.974
	c-0.358-0.524-2.948-4.245-2.809-7.986c0.139-3.748,2.175-5.516,2.902-6.252c0.723-0.733,1.558-0.893,2.063-0.874
	c0.506,0.018,1.012,0.102,1.459,0.12c0.442,0.016,1.085-0.216,1.664,1.333c0.576,1.545,1.96,5.35,2.132,5.735
	c0.177,0.384,0.288,0.835,0.017,1.336c-0.273,0.498-0.414,0.809-0.81,1.242c-0.395,0.427-0.835,0.961-1.192,1.292
	c-0.393,0.362-0.807,0.76-0.393,1.539c0.417,0.775,1.849,3.327,4.04,5.426c2.809,2.706,5.229,3.598,5.978,4.008
	c0.747,0.407,1.191,0.361,1.655-0.13c0.463-0.488,1.985-2.148,2.52-2.891c0.54-0.74,1.043-0.597,1.729-0.318
	c0.69,0.28,4.359,2.263,5.106,2.672c0.745,0.409,1.245,0.617,1.426,0.942C39.682,35.542,39.628,37.066,38.926,38.822z"/>
</svg>
