<?xml version="1.0" encoding="utf-8"?>
<!-- Generator: Adobe Illustrator 15.1.0, SVG Export Plug-In . SVG Version: 6.00 Build 0)  -->
<!DOCTYPE svg PUBLIC "-//W3C//DTD SVG 1.1//EN" "http://www.w3.org/Graphics/SVG/1.1/DTD/svg11.dtd">
<svg version="1.1" id="Layer_1" xmlns="http://www.w3.org/2000/svg" xmlns:xlink="http://www.w3.org/1999/xlink" x="0px" y="0px"
	 width="51px" height="51.667px" viewBox="0 0 51 51.667" enable-background="new 0 0 51 51.667" xml:space="preserve">
<g>
	<path d="M32.69,23.497c0.165,0.161,0.378,0.241,0.592,0.241c0.215,0,0.428-0.081,0.591-0.241c3.01-2.973,3.01-7.812,0-10.784
		c-2.914-2.881-7.999-2.881-10.917,0c-0.325,0.323-0.325,0.844,0,1.168c0.327,0.321,0.854,0.321,1.181,0
		c2.287-2.259,6.268-2.259,8.553,0c2.359,2.329,2.359,6.118,0,8.448C32.364,22.653,32.364,23.175,32.69,23.497z"/>
	<path d="M36.374,26.794c0.215,0,0.427-0.082,0.593-0.242c4.714-4.658,4.714-12.237,0-16.895c-4.717-4.658-12.39-4.654-17.102,0
		c-0.326,0.322-0.326,0.845,0,1.168c0.327,0.322,0.853,0.322,1.182,0c1.966-1.944,4.585-3.015,7.367-3.015
		c2.784,0,5.401,1.071,7.368,3.015c4.064,4.013,4.064,10.545,0,14.558c-0.324,0.323-0.324,0.847,0,1.168
		C35.948,26.712,36.158,26.794,36.374,26.794z"/>
	<path d="M17.898,7.715c2.81-2.776,6.544-4.303,10.517-4.303c3.975,0,7.709,1.527,10.519,4.303c5.8,5.729,5.8,15.051,0,20.78
		c-0.324,0.323-0.324,0.847,0,1.168c0.163,0.16,0.376,0.243,0.591,0.243c0.217,0,0.427-0.083,0.592-0.243
		c6.45-6.373,6.45-16.742,0-23.115C36.99,3.46,32.835,1.759,28.415,1.759s-8.576,1.701-11.7,4.788c-0.325,0.322-0.325,0.845,0,1.167
		C17.043,8.037,17.569,8.037,17.898,7.715z"/>
	<path fill-rule="evenodd" clip-rule="evenodd" d="M46.613,37.006c-1.182-0.64-6.977-3.733-8.066-4.168
		c-1.085-0.438-1.879-0.66-2.731,0.495c-0.845,1.156-3.25,3.747-3.982,4.511c-0.73,0.767-1.434,0.838-2.614,0.2
		c-1.181-0.641-5.004-2.029-9.442-6.254c-3.459-3.276-5.721-7.257-6.379-8.466c-0.655-1.215,0-1.836,0.619-2.402
		c0.565-0.514,1.26-1.349,1.884-2.015c0.626-0.675,0.849-1.16,1.28-1.937c0.426-0.781,0.253-1.487-0.027-2.085
		c-0.271-0.601-2.458-6.538-3.368-8.95c-0.913-2.417-1.931-2.055-2.629-2.081c-0.707-0.028-1.505-0.158-2.305-0.186
		c-0.798-0.03-2.116,0.219-3.258,1.363C4.446,6.182,1.229,8.94,1.009,14.789C0.79,20.628,4.881,26.435,5.445,27.253
		c0.573,0.808,7.818,13.473,19.858,18.685c12.044,5.209,12.102,3.623,14.318,3.498c2.212-0.116,7.221-2.604,8.33-5.339
		c1.109-2.739,1.194-5.118,0.912-5.622C48.579,37.969,47.791,37.643,46.613,37.006z"/>
</g>
</svg>
