<svg xmlns="http://www.w3.org/2000/svg" width="51px" height="51.667px" viewBox="0 0 51 51.667" fill="#7360F2">
<path d="M39.347,33.681L39.347,33.681c-0.934,2.115-2.533,3.512-4.77,4.145c-0.812,0.229-1.598,0.031-2.338-0.283
	c-10.2-4.342-17.571-11.506-21.745-21.847c-0.301-0.747-0.477-1.524-0.449-2.236c0.006-2.663,2.342-5.125,4.902-5.267
	c0.708-0.039,1.32,0.201,1.831,0.679c1.801,1.687,3.249,3.643,4.305,5.87c0.575,1.208,0.334,2.06-0.699,2.926
	c-0.165,0.137-0.345,0.261-0.519,0.388c-1.37,1.003-1.678,2.029-1.022,3.61c1.076,2.593,2.827,4.628,5.191,6.135
	c0.893,0.568,1.803,1.109,2.829,1.406c0.941,0.275,1.698-0.018,2.302-0.762c0.067-0.082,0.131-0.172,0.193-0.26
	c1.316-1.82,2.724-2.135,4.63-0.953c1.634,1.016,3.175,2.172,4.638,3.422C39.617,31.5,39.871,32.494,39.347,33.681 M32.264,19.394
	L32.264,19.394c-0.032,0.285-0.034,0.483-0.079,0.669c-0.091,0.375-0.32,0.601-0.729,0.607c-0.413,0.006-0.637-0.239-0.745-0.594
	c-0.074-0.246-0.094-0.509-0.143-0.763c-0.262-1.355-1.036-2.243-2.384-2.605c-0.167-0.045-0.338-0.069-0.503-0.115
	c-0.426-0.117-0.955-0.127-0.973-0.749c-0.016-0.516,0.377-0.822,1.084-0.864c0.48-0.03,1.226,0.206,1.655,0.417
	C31.219,16.261,32.046,17.476,32.264,19.394z M29.417,13.721L29.417,13.721c-0.98-0.343-1.974-0.618-3.003-0.768
	c-0.5-0.073-0.857-0.336-0.765-0.921c0.087-0.55,0.447-0.767,0.974-0.718c3.365,0.321,5.993,1.544,7.801,4.459
	c0.848,1.362,1.345,3.293,1.27,4.741c-0.052,1.027-0.21,1.292-0.796,1.275c-0.854-0.023-0.728-0.725-0.794-1.242
	c-0.1-0.796-0.273-1.571-0.489-2.34C32.993,15.987,31.6,14.486,29.417,13.721z M24.553,8.602L24.553,8.602
	C24.587,8,24.93,7.769,25.496,7.795c4.82,0.231,8.45,1.663,11.241,5.419c1.636,2.202,2.518,5.173,2.606,7.936
	c0,0.41,0.018,0.82-0.004,1.229c-0.026,0.458-0.226,0.806-0.739,0.812c-0.519,0.006-0.773-0.275-0.809-0.803
	c-0.136-2.034-0.527-4.015-1.306-5.909c-1.507-3.666-4.394-5.641-8.104-6.595c-0.979-0.252-1.973-0.46-2.985-0.542
	C24.938,9.307,24.52,9.208,24.553,8.602z M43.847,4.814c-1.911-1.632-4.153-2.618-6.559-3.248C31.239-0.015,25.11-0.409,18.917,0.43
	c-3.139,0.426-6.173,1.257-8.963,2.821C6.678,5.09,4.423,7.739,3.426,11.413c-0.711,2.62-1.056,5.287-1.191,7.988
	c-0.199,3.984-0.069,7.942,0.951,11.831c1.181,4.498,3.747,7.811,8.144,9.576c0.479,0.191,0.931,0.455,1.408,0.654
	c0.44,0.184,0.575,0.477,0.571,0.951c-0.021,3.113-0.011,6.223-0.011,9.475c1.155-1.115,1.952-1.934,2.533-2.59
	c1.732-1.957,3.37-3.588,5.175-5.449c0.915-0.943,0.531-0.898,1.951-0.873c1.67,0.027,4.295,0.092,5.956-0.039
	c3.168-0.246,6.309-0.65,9.365-1.566c3.882-1.168,6.992-3.246,8.57-7.17c0.418-1.045,0.82-2.092,1.085-3.182
	c1.517-6.248,1.313-12.506,0.046-18.755C47.39,9.361,46.149,6.781,43.847,4.814z"/>
</svg>
