<?xml version="1.0" encoding="utf-8"?>
<!-- Generator: Adobe Illustrator 15.1.0, SVG Export Plug-In . SVG Version: 6.00 Build 0)  -->
<!DOCTYPE svg PUBLIC "-//W3C//DTD SVG 1.1//EN" "http://www.w3.org/Graphics/SVG/1.1/DTD/svg11.dtd">
<svg version="1.1" id="Layer_1" xmlns="http://www.w3.org/2000/svg" xmlns:xlink="http://www.w3.org/1999/xlink" x="0px" y="0px"
	 width="17.5px" height="14.664px" viewBox="0 0 17.5 14.664" enable-background="new 0 0 17.5 14.664" xml:space="preserve">
<g>
	<g>
		<path d="M16.911,6.001L11.457,1.09C10.785,0.487,9.75,0.539,9.146,1.212c-0.605,0.672-0.55,1.707,0.122,2.311l2.283,2.057H1.635
			C0.732,5.58,0,6.312,0,7.217C0,8.12,0.732,8.852,1.635,8.852h9.918l-2.286,2.057c-0.672,0.605-0.726,1.639-0.123,2.311
			c0.324,0.359,0.771,0.542,1.218,0.542c0.391,0,0.783-0.139,1.095-0.42l5.454-4.908c0.344-0.31,0.542-0.753,0.542-1.216
			C17.453,6.753,17.255,6.31,16.911,6.001z"/>
	</g>
</g>
</svg>
