<svg xmlns="http://www.w3.org/2000/svg" width="51px" height="51.667px" viewBox="0 0 51 51.667">
<path d="M25.479,2.562c-13.233,0-23.999,10.768-23.999,24c0,4.313,1.148,8.514,3.328,12.199l-3.24,11.712l11.712-3.24
	c3.686,2.183,7.887,3.328,12.198,3.328c13.234,0,24-10.767,24-23.999C49.479,13.33,38.713,2.562,25.479,2.562z M36.492,37.787
	H14.467c-1.111,0-2.013-1.029-2.013-2.3s0.902-2.3,2.013-2.3h22.025c1.111,0,2.012,1.029,2.012,2.3S37.604,37.787,36.492,37.787z
	 M36.492,29.268H14.467c-1.111,0-2.013-1.03-2.013-2.3c0-1.271,0.902-2.299,2.013-2.299h22.025c1.111,0,2.012,1.028,2.012,2.299
	C38.504,28.238,37.604,29.268,36.492,29.268z M36.492,20.749H14.467c-1.111,0-2.013-1.028-2.013-2.298s0.902-2.299,2.013-2.299
	h22.025c1.111,0,2.012,1.029,2.012,2.299S37.604,20.749,36.492,20.749z"/>
</svg>
