<svg version="1.0" xmlns="http://www.w3.org/2000/svg"  width="51px" height="51.667px" viewBox="0 0 51 51.667"  fill="#2AABEE">

<path d="M25.5,1.583c-13.255,0-24,10.745-24,24s10.745,24,24,24s24-10.745,24-24S38.755,1.583,25.5,1.583z
	 M35.249,16.845c-0.36,3.795-1.924,13.003-2.72,17.254c-0.336,1.799-0.997,2.402-1.64,2.46c-1.394,0.131-2.451-0.92-3.801-1.806
	c-2.113-1.384-3.306-2.247-5.356-3.598c-2.37-1.562-0.834-2.42,0.518-3.822c0.353-0.366,6.493-5.952,6.612-6.459
	c0.014-0.063,0.028-0.3-0.111-0.425c-0.141-0.124-0.349-0.081-0.497-0.048c-0.212,0.048-3.586,2.279-10.123,6.69
	c-0.959,0.658-1.826,0.979-2.603,0.962c-0.858-0.019-2.507-0.484-3.731-0.882c-1.504-0.489-2.697-0.748-2.594-1.578
	c0.055-0.432,0.65-0.873,1.785-1.324c6.997-3.049,11.662-5.059,13.996-6.03c6.666-2.771,8.051-3.253,8.953-3.27
	c0.198-0.004,0.644,0.047,0.932,0.279c0.241,0.197,0.308,0.463,0.341,0.65C35.241,16.086,35.28,16.512,35.249,16.845z"/>
</svg>
