<?xml version="1.0" encoding="utf-8"?>
<!-- Generator: Adobe Illustrator 15.1.0, SVG Export Plug-In . SVG Version: 6.00 Build 0)  -->
<!DOCTYPE svg PUBLIC "-//W3C//DTD SVG 1.1//EN" "http://www.w3.org/Graphics/SVG/1.1/DTD/svg11.dtd">
<svg version="1.1" id="Layer_1" xmlns="http://www.w3.org/2000/svg" xmlns:xlink="http://www.w3.org/1999/xlink" x="0px" y="0px"
	 width="20px" height="20px" viewBox="0 0 20 20" enable-background="new 0 0 20 20" xml:space="preserve">
<path fill-rule="evenodd" clip-rule="evenodd" d="M10.011,15.623h1.169c0,0,0.353-0.039,0.534-0.233
	c0.166-0.178,0.16-0.512,0.16-0.512s-0.023-1.569,0.706-1.801c0.718-0.228,1.639,1.517,2.616,2.186
	c0.738,0.509,1.299,0.397,1.299,0.397l2.611-0.037c0,0,1.367-0.084,0.72-1.158c-0.054-0.088-0.378-0.795-1.942-2.247
	c-1.639-1.521-1.418-1.274,0.556-3.904c1.202-1.601,1.68-2.579,1.531-2.998c-0.144-0.399-1.027-0.293-1.027-0.293l-2.941,0.019
	c0,0-0.218-0.03-0.379,0.067c-0.157,0.094-0.26,0.315-0.26,0.315s-0.466,1.24-1.085,2.292c-1.311,2.224-1.835,2.342-2.049,2.204
	c-0.5-0.322-0.373-1.293-0.373-1.982c0-2.156,0.326-3.054-0.638-3.287c-0.319-0.077-0.555-0.128-1.373-0.136
	c-1.049-0.011-1.938,0.003-2.439,0.25c-0.335,0.164-0.594,0.529-0.436,0.55C7.165,5.339,7.604,5.432,7.838,5.75
	C8.14,6.16,8.129,7.08,8.129,7.08s0.173,2.537-0.404,2.852c-0.397,0.216-0.94-0.225-2.108-2.243
	C5.019,6.657,4.567,5.514,4.567,5.514S4.48,5.3,4.325,5.186C4.136,5.048,3.874,5.004,3.874,5.004L1.078,5.022
	c0,0-0.419,0.013-0.574,0.195C0.367,5.379,0.494,5.714,0.494,5.714s2.188,5.121,4.666,7.699
	C7.431,15.779,10.011,15.623,10.011,15.623"/>
</svg>
