<?xml version="1.0" encoding="utf-8"?>
<!-- Generator: Adobe Illustrator 15.1.0, SVG Export Plug-In . SVG Version: 6.00 Build 0)  -->
<!DOCTYPE svg PUBLIC "-//W3C//DTD SVG 1.1//EN" "http://www.w3.org/Graphics/SVG/1.1/DTD/svg11.dtd">
<svg version="1.1" id="Layer_1" xmlns="http://www.w3.org/2000/svg" xmlns:xlink="http://www.w3.org/1999/xlink" x="0px" y="0px"
	 width="20px" height="20px" viewBox="0 0 20 20" enable-background="new 0 0 20 20" xml:space="preserve">
<g>
	<path d="M9.941,3.341L9.941,3.341c1.151,0,2.089,0.938,2.089,2.09c0,1.15-0.938,2.087-2.089,2.087c-1.15,0-2.089-0.937-2.089-2.087
		C7.852,4.279,8.791,3.341,9.941,3.341 M9.941,10.474c2.784,0,5.045-2.262,5.045-5.042c0-2.783-2.262-5.045-5.045-5.045
		c-2.782,0-5.044,2.262-5.044,5.045C4.896,8.212,7.159,10.474,9.941,10.474z"/>
	<path d="M11.982,14.589c1.026-0.235,2.017-0.64,2.929-1.214c0.69-0.435,0.899-1.348,0.464-2.036
		c-0.436-0.693-1.349-0.901-2.038-0.466c-2.066,1.299-4.728,1.299-6.792,0c-0.691-0.436-1.603-0.228-2.037,0.466
		c-0.435,0.689-0.228,1.602,0.463,2.036c0.911,0.573,1.903,0.979,2.929,1.214l-2.82,2.82c-0.577,0.576-0.577,1.513,0,2.091
		c0.289,0.287,0.667,0.432,1.045,0.432c0.378,0,0.757-0.145,1.046-0.432l2.769-2.771l2.774,2.771c0.575,0.575,1.511,0.575,2.088,0
		c0.578-0.578,0.578-1.515,0-2.091L11.982,14.589z"/>
</g>
</svg>
