<svg xmlns="http://www.w3.org/2000/svg" width="44.125" height="39.042" fill="#252525"><path d="M3.375 39.099A.377.377 0 0 1 3 38.724V3.869c0-.822.321-1.568.954-2.217C4.589.999 5.345.668 6.2.668h32.03c.822 0 1.568.33 2.22.98.65.649.981 1.396.983 2.219v24.494c0 .822-.33 1.569-.981 2.222-.651.65-1.398.98-2.221.98H11.067L3.64 38.99a.376.376 0 0 1-.265.109zM6.2 1.418c-.654 0-1.212.248-1.708.757-.499.512-.742 1.066-.742 1.694v33.95l6.896-6.896a.375.375 0 0 1 .265-.109h27.32c.625 0 1.178-.249 1.689-.762.514-.513.763-1.065.763-1.69V3.868c-.002-.625-.252-1.178-.764-1.689-.513-.512-1.064-.761-1.689-.761H6.2zm0 30.853a.376.376 0 0 1-.375-.375V3.869c0-.207.168-.375.375-.375h32.03c.207 0 .375.168.375.375v24.494a.375.375 0 0 1-.375.375H9.889l-3.424 3.424a.378.378 0 0 1-.265.109zm.375-28.027v26.747l2.894-2.894a.375.375 0 0 1 .265-.109h28.122V4.244H6.575z"/>
<path d="M14.496 25.943c-.779 0-1.448-.268-1.99-.795-.555-.535-.841-1.217-.852-2.022-.013-.803.255-1.492.796-2.047.539-.554 1.219-.841 2.021-.852.814.022 1.507.269 2.048.799.551.531.838 1.212.851 2.019.009.812-.259 1.499-.797 2.046-.535.554-1.216.842-2.021.853l-.056-.001zm.024-4.966c-.643.009-1.131.213-1.533.625-.402.412-.593.907-.583 1.513.007.608.211 1.097.624 1.495.404.393.884.583 1.468.583v.375l.044-.375c.607-.009 1.096-.213 1.495-.626.401-.407.591-.901.584-1.513-.009-.606-.213-1.095-.624-1.491-.402-.396-.885-.586-1.475-.586zm7.435 4.865c-.786 0-1.458-.269-2-.799-.554-.533-.841-1.215-.852-2.021-.011-.804.256-1.492.795-2.047.542-.554 1.223-.84 2.023-.851h.002c.831 0 1.502.268 2.044.794.552.544.837 1.225.851 2.025.011.804-.256 1.491-.795 2.045-.537.555-1.217.843-2.021.854h-.047zm.016-4.967c-.633.008-1.136.219-1.534.625-.4.411-.591.906-.583 1.513.008.607.212 1.097.624 1.494.404.395.886.586 1.477.586v.375l.038-.375c.606-.009 1.094-.213 1.494-.626.401-.412.592-.906.583-1.512-.01-.604-.215-1.096-.626-1.501-.401-.389-.884-.579-1.473-.579zm7.425 4.862c-.777 0-1.447-.267-1.99-.793-.553-.537-.84-1.218-.854-2.022-.009-.812.26-1.5.799-2.049.54-.554 1.222-.841 2.024-.852h.001c.832 0 1.502.268 2.041.796.554.538.842 1.22.853 2.023.013.802-.256 1.489-.797 2.044-.535.554-1.216.842-2.021.853h-.056zm.028-4.966c-.644.009-1.134.213-1.536.626-.4.408-.592.903-.585 1.515.01.605.215 1.095.626 1.494.403.391.884.581 1.468.581v.375l.045-.375c.607-.009 1.096-.213 1.494-.625.403-.413.594-.907.585-1.511-.009-.606-.213-1.096-.627-1.498-.401-.392-.881-.582-1.47-.582zm.029-1.194c-1.375 0-1.982-2.349-2.623-6.684l-.097-.64c-.341-2.245-.636-4.183.311-5.285.502-.584 1.29-.869 2.409-.869 1.06 0 1.808.276 2.288.843.955 1.129.621 3.125.198 5.651l-.218 1.322c-.554 3.41-.921 5.662-2.268 5.662zm.001-12.727c-.888 0-1.489.199-1.841.608-.723.841-.452 2.622-.138 4.684l.097.643c.267 1.808.893 6.043 1.881 6.043.709 0 1.145-2.673 1.528-5.031l.219-1.327c.375-2.243.699-4.179-.031-5.043-.329-.388-.89-.577-1.715-.577z"/></svg>