<svg xmlns="http://www.w3.org/2000/svg" width="44.125" height="39.042" fill="#252525">
<g>
	<path d="M14.425,12.514c0.344-1.692,0.788-3.222,1.318-4.549c0.546-1.355,1.224-2.655,2.023-3.879l0.522-0.803
		L17.36,3.518c-2.432,0.616-4.587,1.669-6.407,3.131c-1.819,1.46-3.317,3.353-4.453,5.623l-0.271,0.543h8.134L14.425,12.514z
		 M7.454,12.064c1.048-1.933,2.381-3.556,3.969-4.831c1.502-1.207,3.248-2.123,5.2-2.729c-0.606,1.019-1.133,2.083-1.576,3.182
		c-0.516,1.289-0.951,2.761-1.295,4.378H7.454z"/>
	<path d="M16.485,12.814h10.224l-0.094-0.452c-0.366-1.742-0.974-3.425-1.805-4.999
		c-0.803-1.544-1.803-2.978-2.975-4.264l-0.243-0.265l-0.274,0.232c-1.054,0.89-1.955,2.072-2.676,3.514
		c-0.709,1.421-1.393,3.359-2.033,5.761L16.485,12.814z M19.314,6.917c0.612-1.223,1.356-2.243,2.216-3.036
		c1.022,1.168,1.9,2.455,2.617,3.832c0.726,1.376,1.275,2.838,1.635,4.351h-8.318C18.052,9.929,18.674,8.199,19.314,6.917z"/>
	<path d="M28.801,26.645c-0.408,1.694-0.895,3.255-1.443,4.636c-0.532,1.35-1.201,2.641-1.996,3.854l-0.584,0.887
		l1.012-0.322c2.293-0.725,4.433-1.865,6.313-3.365c1.859-1.482,3.396-3.327,4.52-5.422l0.298-0.554H28.87L28.801,26.645z
		 M35.647,27.109c-1.043,1.78-2.403,3.353-4.017,4.639c-1.531,1.225-3.245,2.199-5.079,2.891c0.578-0.986,1.081-2.016,1.503-3.079
		c0.566-1.45,1.035-2.937,1.403-4.45H35.647z"/>
	<path d="M27.057,14.933H16.117l-0.042,0.327c-0.11,0.795-0.19,1.594-0.241,2.394
		c-0.033,0.621-0.05,1.242-0.049,1.863c0,0.675,0.017,1.326,0.049,1.955c0.031,0.628,0.11,1.428,0.241,2.443l0.042,0.326h10.939
		l0.041-0.326c0.111-0.812,0.191-1.627,0.241-2.443c0.031-0.627,0.05-1.28,0.05-1.955c0-0.646-0.019-1.266-0.051-1.862
		c-0.051-0.801-0.131-1.6-0.24-2.395L27.057,14.933z M26.59,21.434c-0.041,0.688-0.105,1.374-0.193,2.058h-9.619
		c-0.088-0.684-0.154-1.37-0.195-2.059c-0.063-1.246-0.063-2.494,0-3.74c0.026-0.506,0.092-1.181,0.195-2.01h9.619
		c0.103,0.831,0.168,1.506,0.194,2.011C26.656,18.94,26.656,20.189,26.59,21.434z"/>
	<path d="M27.311,7.798c0.549,1.348,1.035,2.937,1.441,4.724l0.066,0.292h8.065l-0.258-0.537
		c-1.071-2.24-2.563-4.134-4.431-5.63c-1.865-1.493-4.045-2.562-6.479-3.178l-0.953-0.242l0.551,0.815
		C26.109,5.221,26.778,6.48,27.311,7.798z M31.729,7.233c1.639,1.318,2.986,2.963,3.953,4.831h-6.267
		c-0.401-1.708-0.876-3.237-1.409-4.548c-0.429-1.057-0.94-2.078-1.531-3.054C28.426,5.072,30.189,6.002,31.729,7.233z"/>
	<path d="M39.55,11.886c-1.005-2.347-2.397-4.422-4.143-6.166c-1.751-1.75-3.835-3.137-6.194-4.121
		c-2.359-0.986-4.934-1.487-7.65-1.487c-2.716,0-5.29,0.5-7.65,1.487c-2.358,0.984-4.442,2.37-6.194,4.121
		C5.957,7.492,4.55,9.585,3.576,11.886c-1.003,2.348-1.512,4.915-1.512,7.63c0,2.715,0.508,5.297,1.511,7.674
		c1.002,2.376,2.396,4.468,4.144,6.218c1.745,1.745,3.827,3.146,6.19,4.166c2.364,1.02,4.939,1.537,7.654,1.537
		c2.714,0,5.291-0.518,7.654-1.537c2.358-1.018,4.441-2.418,6.191-4.166c1.748-1.753,3.142-3.845,4.143-6.218
		c1.004-2.375,1.512-4.957,1.512-7.674C41.063,16.801,40.555,14.234,39.55,11.886z M38.859,26.899
		c-0.963,2.283-2.303,4.295-3.981,5.978c-1.683,1.682-3.687,3.029-5.958,4.008c-2.27,0.98-4.745,1.478-7.357,1.478
		s-5.087-0.497-7.357-1.478c-2.275-0.98-4.279-2.328-5.957-4.006c-1.679-1.682-3.019-3.692-3.982-5.979
		c-0.964-2.284-1.453-4.769-1.453-7.383s0.488-5.082,1.452-7.335C5.202,9.967,6.554,7.954,8.249,6.25
		c1.682-1.681,3.685-3.013,5.953-3.959c2.268-0.948,4.745-1.429,7.361-1.429c2.617,0,5.093,0.481,7.361,1.429
		c2.27,0.946,4.271,2.278,5.953,3.959c1.678,1.676,3.018,3.672,3.982,5.931c0.965,2.254,1.453,4.722,1.453,7.335
		C40.313,22.132,39.823,24.617,38.859,26.899z"/>
	<path d="M13.855,23.826c-0.087-0.76-0.143-1.521-0.166-2.285c-0.016-0.674-0.023-1.348-0.023-2.021
		c0-0.791,0.017-1.494,0.047-2.109c0.031-0.6,0.094-1.291,0.188-2.054l0.052-0.42H5.599l-0.079,0.27
		c-0.227,0.78-0.384,1.491-0.466,2.113c-0.088,0.73-0.128,1.466-0.122,2.201c0,0.842,0.041,1.604,0.122,2.271
		c0.083,0.67,0.239,1.404,0.466,2.184l0.079,0.271h8.303L13.855,23.826z M12.94,21.558c0.015,0.586,0.057,1.234,0.126,1.934H6.164
		C6,22.903,5.878,22.303,5.798,21.697c-0.082-0.723-0.121-1.451-0.116-2.179c0-0.813,0.039-1.521,0.115-2.103
		c0.068-0.513,0.191-1.094,0.366-1.731h6.945c-0.064,0.561-0.112,1.124-0.143,1.687c-0.033,0.715-0.049,1.431-0.048,2.147
		C12.917,20.189,12.924,20.869,12.94,21.558z"/>
	<path d="M37.605,15.202l-0.08-0.27h-8.291l0.033,0.407c0.096,1.109,0.16,1.958,0.189,2.545
		c0.029,0.582,0.047,1.127,0.047,1.63c0,0.696-0.023,1.354-0.068,1.954c-0.047,0.623-0.121,1.408-0.213,2.359l-0.041,0.412h8.344
		l0.08-0.271c0.213-0.715,0.369-1.445,0.465-2.186c0.082-0.66,0.123-1.425,0.123-2.27c0-0.847-0.041-1.587-0.123-2.202
		C37.968,16.598,37.813,15.893,37.605,15.202z M37.327,21.693c-0.079,0.607-0.201,1.209-0.366,1.799h-6.952
		c0.075-0.775,0.136-1.431,0.177-1.966c0.047-0.618,0.069-1.296,0.069-2.011c0-0.516-0.017-1.074-0.048-1.669
		c-0.041-0.722-0.093-1.444-0.156-2.164h6.911c0.175,0.636,0.298,1.217,0.365,1.731c0.083,0.698,0.122,1.4,0.116,2.103
		C37.443,20.332,37.404,21.063,37.327,21.693z"/>
	<path d="M15.789,31.328c-0.563-1.379-1.04-2.951-1.416-4.672l-0.064-0.296h-8.1l0.296,0.552
		c1.229,2.297,2.677,4.129,4.303,5.446c1.621,1.313,3.831,2.452,6.569,3.386l1.036,0.354l-0.602-0.915
		C17.015,33.966,16.338,32.675,15.789,31.328z M11.28,31.776c-1.417-1.149-2.696-2.717-3.809-4.666h6.234
		c0.375,1.647,0.841,3.161,1.389,4.502c0.432,1.055,0.938,2.077,1.514,3.06C14.419,33.839,12.63,32.869,11.28,31.776z"/>
	<path d="M26.674,26.36H16.501l0.107,0.46c0.449,1.93,1.062,3.694,1.821,5.244c0.738,1.522,1.703,2.924,2.862,4.156
		l0.269,0.283l0.272-0.279c1.154-1.192,2.119-2.554,2.861-4.037c0.76-1.499,1.39-3.305,1.873-5.366L26.674,26.36z M24.023,31.849
		c-0.65,1.295-1.478,2.495-2.458,3.564c-0.987-1.107-1.816-2.346-2.463-3.681c-0.674-1.376-1.23-2.931-1.654-4.624h8.275
		C25.271,28.921,24.7,30.515,24.023,31.849z"/>
</g>
</svg>
