<svg xmlns="http://www.w3.org/2000/svg" width="44.125" height="39.042" fill="#252525"><path d="M12.908 22.929c-1.237 0-2.471-.562-3.475-1.581a1.292 1.292 0 0 1 .008-1.794c.481-.489 1.327-.496 1.818-.015.91.924 2.083 1.06 2.623.38.281-.354.362-.868.227-1.447-.08-.37-.017-.714.169-1.003.187-.288.474-.486.809-.558.675-.149 1.381.308 1.527.985.316 1.361.069 2.646-.697 3.61-.717.905-1.814 1.423-3.009 1.423zm-2.551-3.009a.537.537 0 0 0-.387.905c.859.872 1.903 1.354 2.938 1.354.965 0 1.848-.415 2.422-1.139.621-.781.817-1.84.553-2.979a.543.543 0 0 0-.637-.416.53.53 0 0 0-.411.635c.192.829.061 1.569-.365 2.105-.814 1.024-2.515.927-3.74-.315a.535.535 0 0 0-.373-.15z"/><path d="M24.74 39.24c-1.215 0-2.321-.487-3.102-1.353-.781.865-1.886 1.353-3.102 1.353-1.302 0-2.578-.544-3.614-1.535-2.396.597-4.26-.497-5.248-3.046-1.164-.19-2.12-.743-2.776-1.609-.789-1.042-1.11-2.497-.917-4.125-.979-.39-1.803-1.211-2.293-2.296-.601-1.331-.608-2.822-.021-4.09.289-.622 1.081-.915 1.707-.625.642.3.921 1.065.625 1.708-.317.686-.243 1.565.19 2.242.301.471.709.741 1.121.741l1.928-.161-.501 1.786c-.39 1.389-.319 2.53.199 3.214.361.477.93.718 1.689.718h.973l.265.937c.543 1.935 1.241 2.195 1.851 2.195.321 0 .689-.085 1.128-.258l.889-.354.593.753c.625.792 1.418 1.245 2.177 1.245 1.082 0 1.781-.905 1.781-2.306v-3.952c-1.744.499-3.608-.028-4.691-1.323-.837-1.001-1.154-2.349-.894-3.795.146-.725.812-1.189 1.519-1.05.695.14 1.148.817 1.012 1.513-.121.668.007 1.271.36 1.693.579.692 1.702.773 2.694.177V14.534c-1.518.635-3.336.082-4.696-1.469a1.276 1.276 0 0 1-.316-.932c.023-.343.177-.656.436-.882.513-.449 1.366-.394 1.814.12.477.543.991.843 1.446.843.787 0 1.316-.909 1.316-2.261V4.694c0-1.5-.649-2.328-1.737-2.241-1.124.088-1.942 1.032-1.945 2.245l-.001.352c.095.216.13.432.104.643-.32 2.64-1.617 3.786-4.188 3.621a1.274 1.274 0 0 1-.884-.432 1.285 1.285 0 0 1 .962-2.136c.19.009.292.013.386.013.699 0 .958-.123 1.111-.957h-.12l.027-.068c-1.033-.038-2.027.436-2.747 1.293-.818.974-1.139 2.261-.901 3.624a1.288 1.288 0 0 1-1.018 1.46c-.13.026-.251.025-.375.011-1.258.28-2.267 1.013-2.773 2.02-.467.928-.46 2.013.021 3.056.164.382.166.732.036 1.05-.13.317-.375.565-.692.697-.631.269-1.412-.047-1.683-.683-.778-1.691-.808-3.5-.079-5.083.729-1.583 2.148-2.803 3.921-3.383-.004-1.802.654-3.477 1.868-4.742 1.251-1.304 2.967-2.003 4.688-1.885.575-1.831 2.179-3.132 4.084-3.279 1.317-.099 2.472.354 3.293 1.265.821-.912 1.978-1.37 3.292-1.265 1.886.146 3.484 1.432 4.074 3.242 2.482-.315 4.86.869 6.202 3.061 1.181 1.928 1.362 4.222.515 6.229 2.726.664 4.656 3.261 4.656 6.365 0 .709-.576 1.287-1.285 1.287s-1.285-.577-1.285-1.287c0-2.261-1.508-3.966-3.509-3.966-.346 0-.703.05-1.063.148a1.28 1.28 0 0 1-1.619-.93 1.29 1.29 0 0 1 .951-1.551c.055-.015.119-.028.186-.041 1.011-1.332 1.192-3.001.505-4.461-.882-1.874-2.889-2.767-4.875-2.076l-1.704.594-.004-1.806c-.003-1.213-.821-2.156-1.944-2.244-1.079-.09-1.738.739-1.738 2.241v29.682c0 .735.188 1.34.545 1.75.801.92 2.384.61 3.415-.693l.593-.75.889.353c.438.173.806.257 1.126.257.611 0 1.31-.261 1.853-2.193l.267-.938h.972c.76 0 1.329-.242 1.69-.719.518-.684.588-1.824.198-3.213l-.5-1.786 1.847.157c.391-.007.758-.184 1.044-.523.431-.511.626-1.25.51-1.929a1.287 1.287 0 0 1 1.063-1.495c.698-.122 1.359.369 1.474 1.062.374 2.2-.814 4.46-2.683 5.207.194 1.628-.127 3.084-.916 4.126-.655.866-1.611 1.419-2.775 1.608-.987 2.55-2.852 3.645-5.247 3.048-1.042.99-2.318 1.534-3.62 1.534zm-3.102-2.6l.306.432c.639.9 1.659 1.418 2.796 1.418 1.165 0 2.314-.521 3.236-1.465l.156-.16.216.062a4.51 4.51 0 0 0 1.235.187c1.94 0 2.916-1.589 3.393-2.922l.078-.219.23-.027c1.076-.129 1.915-.582 2.496-1.35.715-.943.974-2.317.73-3.867l-.051-.324.313-.094c1.691-.506 2.796-2.512 2.463-4.471a.535.535 0 0 0-.528-.452c-.228.029-.352.105-.436.222s-.117.258-.095.398c.156.919-.096 1.868-.674 2.554-.466.553-1.072.839-1.68.788l-.771-.065.209.743c.454 1.62.34 2.994-.323 3.869-.504.664-1.295 1.016-2.288 1.016h-.405l-.111.392c-.33 1.175-.957 2.739-2.574 2.739-.416 0-.875-.102-1.402-.31l-.37-.147-.247.313c-.768.973-1.777 1.531-2.769 1.531a2.349 2.349 0 0 1-1.8-.811c-.478-.548-.729-1.323-.729-2.242V4.695c0-2.348 1.315-3.083 2.547-2.989 1.522.119 2.632 1.376 2.636 2.99l.002.753.71-.248c2.344-.816 4.758.25 5.8 2.464a4.96 4.96 0 0 1-.667 5.32l-.084.125-.271.069c-.053.01-.105.02-.158.034a.541.541 0 0 0-.41.651.543.543 0 0 0 .646.394c.47-.129.894-.188 1.306-.188 2.428 0 4.259 2.027 4.259 4.716 0 .296.24.537.535.537s.535-.241.535-.537c0-2.912-1.895-5.317-4.504-5.72l-.514-.079.236-.462c.956-1.872.852-4.093-.279-5.942-1.24-2.027-3.469-3.07-5.767-2.662l-.345.062-.085-.34C27.954 1.975 26.548.768 24.871.638c-1.216-.096-2.259.388-2.928 1.333l-.306.433-.306-.433c-.668-.945-1.718-1.422-2.929-1.333-1.688.13-3.095 1.345-3.5 3.023l-.079.327-.334-.043c-1.587-.207-3.208.411-4.375 1.627-1.135 1.185-1.722 2.778-1.652 4.486l.012.296-.284.081c-1.691.479-3.048 1.595-3.723 3.06-.636 1.381-.606 2.966.083 4.465a.545.545 0 0 0 .706.295.534.534 0 0 0 .287-.701c-.598-1.297-.601-2.613-.029-3.749.619-1.228 1.839-2.113 3.35-2.43l.064-.013.065.009c.04.005.081.01.122.01.349-.063.536-.329.494-.612-.271-1.552.118-3.096 1.068-4.225 1.003-1.193 2.515-1.771 3.923-1.492h.348l-.008.067.141.028-.191.383c-.178 1.386-.56 2.071-2.262 1.967h-.002c-.315 0-.547.22-.564.501a.535.535 0 0 0 .501.568c2.127.139 3.126-.731 3.397-2.963a.512.512 0 0 0-.068-.297l-.042-.172.001-.437c.004-1.613 1.113-2.871 2.637-2.991 1.228-.095 2.545.641 2.545 2.989v5.259c0 2.08-1.038 3.011-2.066 3.011-.684 0-1.379-.38-2.01-1.1a.55.55 0 0 0-.755-.049.533.533 0 0 0-.051.756c1.295 1.477 3.023 1.869 4.3 1.026l.582-.384V28.04l-.164.111c-1.355.923-3.001.813-3.856-.209-.498-.596-.684-1.418-.522-2.313a.54.54 0 0 0-.42-.638.543.543 0 0 0-.628.42c-.227 1.25.033 2.38.725 3.207.985 1.179 2.758 1.571 4.351.933l.515-.207v5.031c0 2.111-1.271 3.056-2.531 3.056-.99 0-1.999-.558-2.766-1.53l-.247-.313-.37.146c-.528.209-.987.311-1.404.311-1.617 0-2.243-1.564-2.573-2.741l-.111-.391h-.405c-.993 0-1.784-.351-2.287-1.015-.663-.875-.778-2.249-.323-3.87l.208-.743-.77.065c-.718.061-1.423-.342-1.896-1.082-.576-.9-.667-2.035-.238-2.96a.54.54 0 0 0-.261-.714.55.55 0 0 0-.71.261c-.496 1.07-.487 2.333.024 3.466.451.998 1.227 1.724 2.13 1.992l.314.094-.051.323c-.243 1.551.017 2.924.731 3.867.581.767 1.42 1.222 2.496 1.351l.23.027.078.219c.477 1.332 1.453 2.92 3.393 2.92a4.51 4.51 0 0 0 1.236-.187l.215-.062.157.16c.921.944 2.07 1.465 3.235 1.465 1.138 0 2.157-.518 2.796-1.418l.304-.432z"/><path d="M28.175 13.813c-1.262 0-2.288-1.026-2.288-2.288s1.026-2.288 2.288-2.288 2.288 1.026 2.288 2.288-1.026 2.288-2.288 2.288zm0-3.826c-.848 0-1.538.69-1.538 1.538s.69 1.538 1.538 1.538 1.538-.69 1.538-1.538-.691-1.538-1.538-1.538zm.455 20.852c-1.01 0-1.832-.822-1.832-1.832s.822-1.831 1.832-1.831 1.832.821 1.832 1.831-.822 1.832-1.832 1.832zm0-2.913a1.083 1.083 0 1 0 .001 2.165 1.083 1.083 0 0 0-.001-2.165zm4.917-4.462c-1.01 0-1.832-.822-1.832-1.832s.822-1.831 1.832-1.831 1.832.821 1.832 1.831-.822 1.832-1.832 1.832zm0-2.913a1.083 1.083 0 1 0 .001 2.165 1.083 1.083 0 0 0-.001-2.165z"/><path d="M31.908 22.007h-9.47a.375.375 0 0 1 0-.75h9.47a.375.375 0 0 1 0 .75z"/><path d="M27.799 13.437h.75v8.014h-.75zm-.807 15.945H22.62a.375.375 0 0 1 0-.75h4.372a.375.375 0 0 1 0 .75zm-1.458-2.459a.375.375 0 0 1-.375-.375v-4.916a.375.375 0 0 1 .75 0v4.916a.375.375 0 0 1-.375.375zm2.732 7.104a.375.375 0 0 1-.375-.375v-3.277a.375.375 0 0 1 .75 0v3.277a.375.375 0 0 1-.375.375zm5.282-13.477a.375.375 0 0 1-.375-.375v-4.189a.375.375 0 0 1 .75 0v4.189a.375.375 0 0 1-.375.375zm-8.925-1.821a.375.375 0 0 1-.375-.375V4.695a.375.375 0 0 1 .75 0v13.659a.375.375 0 0 1-.375.375z"/></svg>