<svg xmlns="http://www.w3.org/2000/svg" width="44.125" height="39.042" fill="#252525"><path d="M9.759 36.349h-.002a1.715 1.715 0 0 1-1.333-.635 1.713 1.713 0 0 1-.354-.84l-.324-2.575-2.438-.887a1.71 1.71 0 0 1-1.065-1.97c.117-.503.454-.919.924-1.142l2.348-1.104.091-2.591a1.68 1.68 0 0 1 1.092-1.52 1.708 1.708 0 0 1 1.824.424l1.775 1.892 2.492-.716a1.695 1.695 0 0 1 1.784.568c.427.535.489 1.267.158 1.865l-1.249 2.272 1.451 2.149c.383.565.387 1.3.011 1.871a1.68 1.68 0 0 1-1.723.729l-2.548-.486-1.597 2.046a1.672 1.672 0 0 1-1.317.65zm-.466-12.622a.933.933 0 0 0-.938.905l-.107 3.05-2.761 1.298a.936.936 0 0 0-.514.634.975.975 0 0 0 .591 1.095l2.868 1.043.382 3.028c.022.172.09.334.196.468.176.22.455.352.745.353a.93.93 0 0 0 .729-.36l1.878-2.406 2.998.572a.937.937 0 0 0 .951-1.443l-1.708-2.53 1.47-2.674a.932.932 0 0 0-.087-1.035.942.942 0 0 0-.992-.315l-2.931.843-2.089-2.226a.928.928 0 0 0-.681-.3z"/><path d="M37.415 39.417H6.954a6.094 6.094 0 0 1-6.087-6.086v-19.99a6.093 6.093 0 0 1 6.087-6.086h4.395c.196-3.707 3.273-6.663 7.027-6.663h7.615c3.755 0 6.833 2.956 7.028 6.663h4.396a6.092 6.092 0 0 1 6.085 6.086v19.991a6.092 6.092 0 0 1-6.085 6.085zM6.954 8.005a5.343 5.343 0 0 0-5.337 5.336v19.991a5.343 5.343 0 0 0 5.337 5.336h30.461a5.342 5.342 0 0 0 5.335-5.336V13.341a5.342 5.342 0 0 0-5.335-5.336h-5.136V7.63a6.295 6.295 0 0 0-6.288-6.288h-7.615a6.295 6.295 0 0 0-6.287 6.288v.375H6.954zm30.461 29.51H6.954a4.188 4.188 0 0 1-4.183-4.184V19.78l19.413 4.565 19.412-4.565.002 13.552a4.188 4.188 0 0 1-4.183 4.183zM3.521 20.727v12.604a3.437 3.437 0 0 0 3.433 3.434h30.461a3.439 3.439 0 0 0 3.432-3.334l-.001-.1V20.727l-18.662 4.388-.086-.02-18.577-4.368zm18.664 2.433l-.086-.02-19.328-4.544v-5.255a4.188 4.188 0 0 1 4.183-4.183h30.461a4.187 4.187 0 0 1 4.183 4.183v5.255L22.185 23.16zM3.521 18.002l18.664 4.388 18.663-4.388v-4.661a3.437 3.437 0 0 0-3.433-3.433H6.954a3.437 3.437 0 0 0-3.433 3.433v4.661zm27.605-9.997H13.241V7.63a5.14 5.14 0 0 1 5.135-5.134h7.615a5.14 5.14 0 0 1 5.135 5.134v.375zm-17.119-.75H30.36a4.391 4.391 0 0 0-4.369-4.009h-7.615a4.39 4.39 0 0 0-4.369 4.009z"/></svg>