<?xml version="1.0" encoding="utf-8"?>
<!-- Generator: Adobe Illustrator 15.1.0, SVG Export Plug-In . SVG Version: 6.00 Build 0)  -->
<!DOCTYPE svg PUBLIC "-//W3C//DTD SVG 1.1//EN" "http://www.w3.org/Graphics/SVG/1.1/DTD/svg11.dtd">
<svg version="1.1" id="Layer_1" xmlns="http://www.w3.org/2000/svg" xmlns:xlink="http://www.w3.org/1999/xlink" x="0px" y="0px"
	 width="12.5px" height="18px" viewBox="2.5 0 12.5 18" enable-background="new 2.5 0 12.5 18" xml:space="preserve">
<g>
	<path fill="#FFFFFF" d="M12.665,0H4.68C4.015,0,3.47,0.543,3.47,1.209V16.7c0,0.665,0.545,1.21,1.21,1.21h7.985
		c0.665,0,1.209-0.544,1.209-1.21V1.209C13.874,0.543,13.33,0,12.665,0z M7.395,0.872h2.555c0.08,0,0.146,0.065,0.146,0.146
		c0,0.081-0.066,0.147-0.146,0.147H7.395c-0.081,0-0.146-0.066-0.146-0.147C7.249,0.937,7.313,0.872,7.395,0.872z M8.672,17.305
		c-0.334,0-0.604-0.271-0.604-0.604c0-0.335,0.27-0.605,0.604-0.605s0.605,0.271,0.605,0.605
		C9.277,17.034,9.006,17.305,8.672,17.305z M13.032,15.671H4.312V1.918h8.721V15.671z"/>
</g>
</svg>
