<?xml version="1.0" encoding="utf-8"?>
<!-- Generator: Adobe Illustrator 15.1.0, SVG Export Plug-In . SVG Version: 6.00 Build 0)  -->
<!DOCTYPE svg PUBLIC "-//W3C//DTD SVG 1.1//EN" "http://www.w3.org/Graphics/SVG/1.1/DTD/svg11.dtd">
<svg version="1.1" id="Layer_1" xmlns="http://www.w3.org/2000/svg" xmlns:xlink="http://www.w3.org/1999/xlink" x="0px" y="0px"
	 width="76.166px" height="68.959px" viewBox="0 0 76.166 68.959" enable-background="new 0 0 76.166 68.959" xml:space="preserve">
<path fill="#FF501C" d="M33.296,68.835l-0.995-0.148c-1.686-0.254-3.351-0.635-4.98-1.137l-0.937-0.289l-0.072-4.563
	c-1.758-0.693-3.448-1.549-5.047-2.555l-3.62,2.729l-0.812-0.604c-1.394-1.033-2.709-2.168-3.936-3.396l-0.691-0.689l2.067-4.094
	c-1.17-1.381-2.213-2.861-3.118-4.428l-4.466,0.734l-0.438-0.914c-0.771-1.609-1.417-3.275-1.933-4.982l-0.279-0.93l3.737-2.666
	c-0.366-1.67-0.589-3.367-0.667-5.076L2.8,34.396l0.031-1.006c0.057-1.808,0.265-3.646,0.62-5.463l0.186-0.948l4.55-0.621
	c0.433-1.557,0.989-3.076,1.663-4.545l-3.146-3.267l0.483-0.873c0.913-1.639,1.954-3.203,3.114-4.678l0.604-0.769l4.32,1.566
	c1.056-1.134,2.198-2.186,3.414-3.146l-1.282-4.376l0.824-0.551c1.578-1.059,3.24-1.984,4.971-2.768l0.891-0.4l3.091,3.377
	c1.437-0.515,2.909-0.922,4.406-1.22l0.912-4.489l0.97-0.115c1.888-0.219,3.79-0.281,5.688-0.185l0.986,0.049l1.156,4.411
	c1.537,0.195,3.058,0.509,4.547,0.939l2.902-3.567L49.614,2.1c1.755,0.667,3.452,1.472,5.078,2.409l0.861,0.5l-1.02,4.42
	c1.334,0.913,2.594,1.93,3.764,3.043l4.231-1.813l0.647,0.723c1.223,1.365,2.336,2.823,3.33,4.362l0.545,0.845l-2.953,3.446
	c0.811,1.505,1.49,3.076,2.035,4.696l4.58,0.363l0.234,0.94c0.434,1.717,0.738,3.488,0.906,5.266l0.096,1.008l-4.21,1.671
	c0.031,1.81-0.101,3.616-0.394,5.401l3.882,2.445l-0.238,0.947c-0.421,1.684-0.965,3.336-1.627,4.939l-0.388,0.934l-4.508-0.479
	c-0.854,1.686-1.86,3.287-3.012,4.787l2.289,3.947l-0.656,0.73c-1.139,1.27-2.371,2.451-3.687,3.537l-0.774,0.641l-3.771-2.523
	c-1.587,1.115-3.278,2.074-5.05,2.863l0.193,4.557l-0.945,0.332c-0.646,0.229-1.502,0.52-2.404,0.77
	c-0.814,0.223-1.639,0.418-2.469,0.58l-0.978,0.199l-2.182-4.004c-1.931,0.234-3.871,0.283-5.8,0.146L33.296,68.835z M29.054,65.243
	c0.875,0.238,1.764,0.441,2.663,0.607l1.881-3.99l0.953,0.1c2.319,0.24,4.693,0.184,7.018-0.174l0.938-0.141l2.119,3.891
	c0.877-0.199,1.744-0.439,2.598-0.723l-0.188-4.428l0.877-0.357c2.176-0.889,4.227-2.053,6.104-3.463l0.769-0.576l3.667,2.451
	c0.686-0.602,1.344-1.23,1.973-1.893l-2.229-3.844l0.595-0.725c1.459-1.783,2.688-3.74,3.661-5.828l0.407-0.871l4.385,0.465
	c0.331-0.877,0.626-1.775,0.885-2.688l-3.768-2.373l0.177-0.908c0.431-2.186,0.591-4.414,0.479-6.637l-0.047-0.963l4.092-1.625
	c-0.124-0.98-0.293-1.955-0.504-2.92l-4.454-0.354l-0.269-0.881c-0.617-2.041-1.47-4.004-2.537-5.85l-0.479-0.829l2.867-3.346
	c-0.59-0.85-1.219-1.671-1.887-2.461l-4.108,1.76l-0.646-0.65c-1.438-1.453-3.035-2.741-4.76-3.84l-0.807-0.513l0.994-4.304
	c-0.948-0.507-1.922-0.968-2.916-1.381l-2.821,3.464l-0.879-0.285c-1.886-0.608-3.831-1.01-5.804-1.198l-0.94-0.09l-1.121-4.29
	c-1.097-0.021-2.194,0.013-3.287,0.105L33.82,7.047l-0.914,0.155c-0.966,0.162-1.923,0.374-2.867,0.635
	c-0.931,0.259-1.871,0.573-2.794,0.934l-0.863,0.337l-3.002-3.28c-0.984,0.484-1.941,1.018-2.87,1.601l1.246,4.254l-0.758,0.561
	c-1.595,1.179-3.058,2.526-4.364,4.018l-0.608,0.695l-4.19-1.52c-0.641,0.865-1.238,1.761-1.791,2.685l3.06,3.18l-0.424,0.852
	c-0.91,1.832-1.617,3.758-2.106,5.744l-0.219,0.891l-4.423,0.604c-0.168,1.021-0.287,2.049-0.354,3.082l4.192,1.392l0.011,0.962
	c0.025,2.107,0.303,4.234,0.826,6.322l0.223,0.893l-3.634,2.592c0.313,0.936,0.671,1.859,1.07,2.764l4.343-0.713l0.456,0.854
	c1.05,1.963,2.335,3.791,3.827,5.441l0.62,0.688l-2.006,3.975c0.686,0.646,1.399,1.264,2.139,1.85l3.519-2.654l0.799,0.537
	c1.91,1.289,3.973,2.336,6.141,3.113l0.88,0.314L29.054,65.243z M37.458,55.403c-9.278,0-17.492-6.254-19.974-15.207
	C16,34.897,16.698,29.226,19.423,24.445c2.698-4.796,7.203-8.314,12.511-9.768c1.807-0.501,3.672-0.757,5.547-0.758
	c9.277,0,17.488,6.25,19.969,15.199c3.055,11.021-3.424,22.47-14.439,25.523C41.202,55.147,39.335,55.401,37.458,55.403z
	 M37.481,16.622c-1.631,0.001-3.254,0.223-4.826,0.66c-4.616,1.265-8.535,4.324-10.882,8.496c-2.369,4.157-2.977,9.089-1.687,13.698
	c2.159,7.787,9.302,13.227,17.371,13.227c1.624,0,3.249-0.223,4.831-0.66c9.58-2.652,15.215-12.613,12.559-22.2
	C52.69,22.058,45.55,16.622,37.481,16.622z"/>
</svg>
