<?xml version="1.0" encoding="utf-8"?>
<!-- Generator: Adobe Illustrator 15.1.0, SVG Export Plug-In . SVG Version: 6.00 Build 0)  -->
<!DOCTYPE svg PUBLIC "-//W3C//DTD SVG 1.1//EN" "http://www.w3.org/Graphics/SVG/1.1/DTD/svg11.dtd">
<svg version="1.1" id="Layer_1" xmlns="http://www.w3.org/2000/svg" xmlns:xlink="http://www.w3.org/1999/xlink" x="0px" y="0px"
	 width="74.695px" height="72.346px" viewBox="0 0 74.695 72.346" enable-background="new 0 0 74.695 72.346" xml:space="preserve">
<g>
	<path fill="#5EB30B" d="M28.574,23.734c2.303,1.998,5.361,3.098,8.61,3.098c5.375,0,10.231-2.824,12.374-7.193
		c2.162-4.415,2.055-8.929-0.303-12.711c-2.508-4.021-7.199-6.619-11.951-6.619c-0.479,0-0.965,0.028-1.446,0.085
		c-5.282,0.625-9.562,4.26-11.167,9.481C23.12,14.983,24.61,20.294,28.574,23.734z M37.305,2.623c3.91,0,7.925,2.223,9.988,5.53
		c1.357,2.179,2.492,5.764,0.188,10.468c-1.729,3.528-5.867,5.897-10.295,5.897c-2.694,0-5.213-0.898-7.095-2.531
		c-3.264-2.832-4.484-7.212-3.188-11.434c1.333-4.334,4.869-7.347,9.229-7.862C36.513,2.645,36.907,2.623,37.305,2.623z
		 M30.021,38.376c2.321,0.969,4.723,1.971,7.167,2.889l0.427,0.16l0.422-0.174c1.367-0.566,2.725-1.141,4.082-1.715
		c4.234-1.791,8.611-3.642,13.168-5.188l1.211-0.412l-0.531-1.166c-1.168-2.559-4.516-4.305-8.951-4.67
		c-3.773-0.309-7.078-0.459-10.101-0.459c-9.887,0-15.735,1.632-17.882,4.987l-0.802,1.252l1.412,0.468
		C23.224,35.54,26.664,36.976,30.021,38.376z M36.914,29.957c2.96,0,6.203,0.147,9.912,0.453c2.676,0.219,4.988,1.059,6.25,2.259
		c-4.131,1.466-8.057,3.129-11.855,4.737l-0.582,0.246c-1.021,0.43-2.041,0.859-3.065,1.285c-2.268-0.861-4.502-1.795-6.674-2.702
		c-2.841-1.187-5.776-2.411-8.829-3.495C23.811,31.434,27.794,29.957,36.914,29.957z"/>
	<path fill="#5EB30B" d="M54.174,51.027c-0.002-3.148,1.67-6.641,5.344-6.871l1.086-0.068V33.39l-1.531,0.523
		c-3.85,1.314-7.539,2.824-11.105,4.283l-0.113,0.045c-3.395,1.387-6.902,2.818-10.507,4.064c-3.089-1.154-6.122-2.391-9.057-3.586
		c-4.007-1.633-8.151-3.32-12.433-4.804l-1.536-0.534v10.708l1.086,0.066c3.673,0.223,5.345,3.709,5.345,6.854
		c0,3.237-1.652,6.604-5.344,6.829l-1.087,0.064v6.18l0.785,0.268c3.002,1.018,5.882,2.199,8.931,3.449l1.931,0.789
		c0.686,0.279,1.584,0.701,2.629,1.189c3.174,1.48,6.771,3.162,8.953,3.162h0.003l0.059-0.004c1.215-0.016,2.6-0.707,3.938-1.375
		l-0.063-0.125l0.098,0.109c0.629-0.313,1.223-0.609,1.762-0.818c1.803-0.699,3.527-1.379,5.219-2.043l0.191-0.074
		c3.557-1.4,7.232-2.848,11.092-4.271l0.756-0.279v-6.156l-1.086-0.064C55.83,57.612,54.177,54.252,54.174,51.027z M23.065,51.011
		c0-3.887-1.989-8.164-6.433-9.025v-5.34c3.746,1.352,7.481,2.874,10.783,4.219c3.084,1.256,6.274,2.555,9.51,3.756l0.387,0.143
		l0.39-0.133c3.861-1.318,7.562-2.83,11.14-4.293c3.049-1.246,6.199-2.533,9.447-3.698v5.346c-4.443,0.869-6.432,5.152-6.428,9.043
		c0.002,3.864,1.992,8.122,6.428,8.981v2.439c-3.482,1.293-6.766,2.584-10.24,3.949l-0.141,0.057
		c-1.748,0.688-3.535,1.391-5.404,2.117c-0.643,0.25-1.322,0.588-1.98,0.916c-1.057,0.527-2.252,1.127-2.945,1.137h-0.029
		c-1.674,0-5.316-1.703-7.978-2.945c-1.068-0.5-1.991-0.932-2.732-1.23l-1.867-0.768c-2.701-1.107-5.494-2.256-8.339-3.252v-2.42
		C21.073,59.149,23.065,54.885,23.065,51.011z"/>
	<path fill="#5EB30B" d="M65.595,40.566l-1.953-1.855v5.09c-4.752,0.604-6.393,3.998-6.348,6.742
		c0.061,3.622,2.852,7.499,6.912,7.499c1.779,0,3.568-0.723,5.318-2.15c1.576-1.285,2.41-2.846,2.477-4.64
		C72.152,47.265,68.418,43.243,65.595,40.566z M68.064,54.096c-1.326,1.084-2.623,1.633-3.855,1.633c-2.699,0-4.559-2.701-4.6-5.224
		c-0.045-2.699,1.91-4.373,5.229-4.48l1.117-0.039V44.2c2.516,2.723,3.807,5.125,3.736,6.967
		C69.65,52.281,69.117,53.239,68.064,54.096z M17.399,50.542c0.045-2.744-1.593-6.141-6.347-6.744V38.71l-1.953,1.854
		c-2.823,2.68-6.559,6.701-6.408,10.686c0.066,1.794,0.899,3.354,2.477,4.64c1.75,1.43,3.54,2.152,5.319,2.152
		C14.546,58.041,17.338,54.164,17.399,50.542z M10.487,55.729c-1.233,0-2.531-0.549-3.857-1.633
		c-1.053-0.857-1.585-1.815-1.627-2.931c-0.069-1.867,1.187-4.209,3.736-6.965v1.785l1.119,0.037
		c3.317,0.107,5.272,1.783,5.229,4.48C15.043,53.028,13.186,55.729,10.487,55.729z"/>
</g>
</svg>
