<svg xmlns="http://www.w3.org/2000/svg" width="63" height="75.084"><g fill="#0336ff"><path d="M.083 71.896a3.191 3.191 0 0 0 3.188 3.188h56.626a3.191 3.191 0 0 0 3.188-3.188v-5.21H.083v5.21zm59.814.858H3.271a.858.858 0 0 1-.858-.857v-2.882h58.343v2.882a.86.86 0 0 1-.859.857zm0-63.205h-2.023a3.19 3.19 0 0 0-3.186 3.188v1.868h-20.93v-.857a3.19 3.19 0 0 0-3.186-3.188H28.55c-1.395 0-2.616.93-3.034 2.214a3.214 3.214 0 0 0-3.033-2.214h-2.022a3.215 3.215 0 0 0-3.034 2.213c-.418-1.284-1.639-2.213-3.034-2.213H12.37a3.19 3.19 0 0 0-3.185 3.188v.857H8.48v-1.868a3.191 3.191 0 0 0-3.187-3.188H3.271a3.191 3.191 0 0 0-3.188 3.188V62.02H8.48v-9.924h2.725v.855a3.191 3.191 0 0 0 3.188 3.188h2.022c1.396 0 2.617-.93 3.035-2.215.417 1.285 1.637 2.215 3.033 2.215h2.022a3.192 3.192 0 0 0 3.188-3.188v-.855h26.996v9.924h8.396V12.737a3.191 3.191 0 0 0-3.188-3.188zM25.363 49.766v3.186a.86.86 0 0 1-.858.859h-2.022a.86.86 0 0 1-.857-.859v-3.186h-4.353v3.186a.86.86 0 0 1-.858.859h-2.022a.86.86 0 0 1-.859-.859v-3.186H6.151v9.924H2.413V12.737a.86.86 0 0 1 .858-.858h2.022a.86.86 0 0 1 .858.858v4.198h5.364v-3.187c0-.474.383-.858.855-.858h2.023a.86.86 0 0 1 .858.858v3.187h4.352v-3.187c0-.474.385-.858.858-.858h2.022c.473 0 .857.385.857.858v3.187h4.352v-3.187c0-.474.384-.858.857-.858h2.022c.473 0 .857.385.857.858v3.187h25.587v-4.198c0-.473.384-.858.856-.858h2.023c.474 0 .858.385.858.858V59.69h-3.738v-9.924H25.363z"/><path d="M37.802 28.828a.86.86 0 0 1 .861-.856h2.022c.472 0 .855.385.855.856v3.188h4.352v-3.188c0-.472.386-.856.859-.856h2.022c.473 0 .857.385.857.856v3.188h7.386V18.601H31.43v3.188a.857.857 0 0 1-.857.856H28.55a.857.857 0 0 1-.857-.856v-3.188h-4.352v3.188a.858.858 0 0 1-.857.856h-2.022a.858.858 0 0 1-.858-.856v-3.188h-4.352v3.188a.858.858 0 0 1-.858.856H12.37a.856.856 0 0 1-.855-.856v-3.188H6.151v13.415h31.65v-3.188zm-2.329 0v.858H8.48V20.93h.705v.858a3.19 3.19 0 0 0 3.185 3.186h2.023c1.395 0 2.616-.929 3.034-2.212a3.215 3.215 0 0 0 3.034 2.212h2.022a3.213 3.213 0 0 0 3.033-2.213 3.216 3.216 0 0 0 3.034 2.213h2.022a3.19 3.19 0 0 0 3.186-3.186v-.858h20.93v8.756H51.96v-.858a3.19 3.19 0 0 0-3.187-3.186h-2.022a3.216 3.216 0 0 0-3.034 2.21 3.214 3.214 0 0 0-3.032-2.21h-2.022a3.193 3.193 0 0 0-3.19 3.186zm21.545 4.854h-7.386v3.188a.858.858 0 0 1-.857.857h-2.022a.86.86 0 0 1-.859-.857v-3.188h-4.352v3.188a.857.857 0 0 1-.855.857h-2.022a.86.86 0 0 1-.861-.857v-3.188H6.151v14.416h7.383V44.91a.86.86 0 0 1 .859-.859h2.022a.86.86 0 0 1 .858.859v3.188h4.353V44.91c0-.474.384-.859.857-.859h2.022a.86.86 0 0 1 .858.859v3.188h31.654V33.682zM19.451 43.937a3.214 3.214 0 0 0-3.035-2.215h-2.022a3.191 3.191 0 0 0-3.188 3.188v.858H8.48v-9.757h26.992v.859a3.193 3.193 0 0 0 3.19 3.187h2.022a3.213 3.213 0 0 0 3.032-2.211 3.217 3.217 0 0 0 3.034 2.211h2.022a3.19 3.19 0 0 0 3.187-3.187v-.859h2.728v9.757H27.693v-.858a3.19 3.19 0 0 0-3.188-3.188h-2.022a3.209 3.209 0 0 0-3.032 2.215z"/></g></svg>