<svg xmlns="http://www.w3.org/2000/svg" xmlns:xlink="http://www.w3.org/1999/xlink" width="187" height="122" viewBox="-0.178 -12.788 187 122"><path fill="#00BCD4" d="M178.221-11.417c-1.261.18-2.492.196-3.653 0H5.101A92.13 92.13 0 0 0 1.772 5.241v9.881h.02c-.001.188-.02.37-.02.559 0 28.486 12.969 53.941 33.321 70.791 15.964 13.111 36.392 20.985 58.661 20.985 11.12 0 21.783-1.966 31.656-5.563 35.079-12.933 60.089-46.65 60.089-86.213 0-.077.14-4.504.304-9.758a92.193 92.193 0 0 0-3.392-17.34h-4.19z"/><path fill="#00BCD4" d="M178.221-11.417h-3.653c1.161.196 2.392.18 3.653 0z"/><defs><path id="a" d="M4.743-5.921A92.232 92.232 0 0 0 2.08 16.035c0 50.734 41.128 91.862 91.86 91.862 50.742 0 91.866-41.128 91.866-91.862 0-7.566-.939-14.915-2.665-21.956H4.743z"/></defs><clipPath id="b"><use xlink:href="#a" overflow="visible"/></clipPath><path clip-path="url(#b)" fill="#E1F5FE" d="M22.568 84.935a29.922 29.922 0 0 1-6.114-21.344 9.698 9.698 0 0 1-4.732-3.313c-3.292-4.258-2.508-10.376 1.75-13.669a9.69 9.69 0 0 1 5.17-1.998c-1.346-4.445.079-9.45 3.97-12.462 3.129-2.417 7.103-2.971 10.601-1.843a7.814 7.814 0 0 1 1.819-2.006 7.796 7.796 0 0 1 10.935 1.4c.076.091.134.186.196.284.129-.111.25-.227.386-.331 3.764-2.904 9.167-2.212 12.073 1.545a8.601 8.601 0 0 1 1.559 7.269 8.59 8.59 0 0 1 7.515 4.008 6.815 6.815 0 0 1 9.339 1.396 6.808 6.808 0 0 1 .736 7.127c3.043-.389 6.208.791 8.215 3.389C89 58.291 88.285 63.9 84.379 66.914a8.86 8.86 0 0 1-4.477 1.805 10.38 10.38 0 0 1 3.31 2.792c3.508 4.551 2.675 11.074-1.87 14.591-2.872 2.222-6.538 2.689-9.733 1.6.089 3.017-1.199 6.033-3.769 8.018-3.791 2.931-9.05 2.618-12.484-.488-11.663 3.661-24.87-.058-32.788-10.297z"/><path fill="#FFF" d="M103.399 44.659a25.733 25.733 0 0 1 8.524 17.088 8.352 8.352 0 0 1 4.524 2.06c3.454 3.084 3.75 8.382.668 11.838a8.362 8.362 0 0 1-4.061 2.501c1.837 3.547 1.42 8.003-1.398 11.164a9.894 9.894 0 0 1-8.675 3.223 6.68 6.68 0 0 1-1.222 1.981c-2.465 2.761-6.709 3.003-9.467.536a2.767 2.767 0 0 1-.211-.208c-.093.113-.175.231-.272.338a7.409 7.409 0 0 1-10.455.591 7.391 7.391 0 0 1-2.461-5.903 7.362 7.362 0 0 1-6.477-1.711 7.721 7.721 0 0 1-.509-.497 5.86 5.86 0 0 1-8.115.286 5.85 5.85 0 0 1-1.743-5.913 7.69 7.69 0 0 1-7.482-1.572c-3.163-2.828-3.439-7.687-.609-10.849a7.622 7.622 0 0 1 3.505-2.229 8.948 8.948 0 0 1-3.234-1.84 8.955 8.955 0 0 1-.714-12.636c2.08-2.328 5.106-3.301 7.979-2.882-.548-2.539.07-5.292 1.93-7.372 2.742-3.073 7.238-3.635 10.631-1.548 9.286-4.93 21.039-3.86 29.344 3.554z"/><path fill="#FF7043" d="M87.426 22.892c-8.927-2.617-21.735-.171-26.718 2.972-4.343 2.744-8.37 5.824-11.188 12.17 5.298-.384 7.041-1.642 15.02-.82 5.547.574 9.156 1.996 11.853 3.874 1.649-6.499 9.039-14.793 11.033-18.196z"/><path fill="#EC1C24" d="M112.073 51.882c1.189 9.224-3.856 20.86-7.735 25.294-3.394 3.858-7.071 7.355-13.769 9.148 1.208-5.173 2.724-6.698 3.157-14.716.304-5.568-.542-9.351-1.976-12.314 13.519-3.074 16.331-5.306 20.323-7.412zm-39.608-6.876c-.947.766-1.315 1.877-.823 2.49L82.478 60.94c.495.61 1.665.489 2.609-.278.951-.763 1.317-1.879.824-2.496L75.071 44.72c-.493-.602-1.659-.479-2.606.286z"/><path fill="#FAFAFA" d="M101.489 8.225c26.024-19.298 54.358-15.301 54.358-15.301-.016.427-2.765 29.72-27.869 49.81-16.49 13.127-18.403 13.025-25.489 15.752-11.279 4.348-15.95 2.123-21.535-4.86-.361-.455-.712-.9-1.049-1.34l.065-.051c-.334-.42-.669-.864-1.009-1.32-5.322-7.179-6.396-12.199.683-22.005 4.442-6.147 4.945-8.091 21.845-20.685z"/><path fill="#D9E0E3" d="M79.614 51.954l76.25-58.716c-.167 1.865-3.492 30.14-27.994 49.637-16.521 13.078-18.447 12.979-25.526 15.692-11.3 4.315-15.96 2.071-21.525-4.918a47.83 47.83 0 0 1-1.043-1.347l.059-.051a5.43 5.43 0 0 0-.221-.297z"/><path fill="#FFA270" d="M133.175 10.146c-4.142-5.055-9.393-9.052-15.045-11.357 19.272-8.013 37.704-5.805 37.704-5.805-.022.323-3.076 20.428-14.39 35.639-.994-6.474-3.825-13.045-8.269-18.477z"/><path fill="#FF7043" d="M135.522 8.167c-3.956-4.82-8.735-8.342-14.09-10.668 18.865-6.897 34.566-4.71 34.566-4.71-.008.314-1.57 16.432-12.489 32.892-1.091-6.215-3.706-12.294-7.987-17.514z"/><path fill="#80DEEA" d="M119.51 13.94c4.435 0 8.032 3.599 8.032 8.036a8.034 8.034 0 0 1-16.067 0 8.035 8.035 0 0 1 8.035-8.036z"/><path fill="#F05A22" d="M155.925-6.92c-.016.323-3.096 20.434-14.438 35.621-.971-6.372-3.732-12.839-8.048-18.231l22.486-17.39z"/><path fill="#EC1C24" d="M156.027-7.193c-.014.314-1.527 16.512-12.479 32.952a38.302 38.302 0 0 0-7.749-17.241l20.228-15.711z"/><path fill="#B4FFFF" d="M112.803 26.688a7.999 7.999 0 0 1-1.325-4.428 8.035 8.035 0 0 1 8.032-8.036 8.016 8.016 0 0 1 5.992 2.684l-12.699 9.78z"/><path fill="#F05A22" d="M119.513 14.798c1.928 0 3.783.775 5.169 2.164 1.393 1.39 2.169 3.238 2.169 5.173a7.3 7.3 0 0 1-2.169 5.17 7.287 7.287 0 0 1-5.169 2.162 7.33 7.33 0 0 1-5.175-2.162 7.323 7.323 0 0 1-2.158-5.17c0-1.931.773-3.784 2.158-5.173a7.32 7.32 0 0 1 5.175-2.164m0-2.316c-2.466 0-4.94.926-6.788 2.856a9.631 9.631 0 0 0 0 13.656c1.848 1.855 4.322 2.856 6.788 2.856 2.469 0 4.941-.923 6.792-2.856a9.64 9.64 0 0 0 0-13.656c-1.851-1.928-4.323-2.856-6.792-2.856z"/><path fill="#F6921E" d="M124.847 17.127c-.06-.057-.111-.118-.167-.166a7.29 7.29 0 0 0-5.17-2.166 7.324 7.324 0 0 0-5.174 2.166 7.318 7.318 0 0 0-2.158 5.173c0 1.379.391 2.717 1.124 3.879l-1.848 1.432a9.636 9.636 0 0 1 1.267-12.1c1.848-1.931 4.322-2.856 6.788-2.856 2.47 0 4.941.926 6.792 2.856.128.123.252.253.369.384l-1.823 1.398z"/><g fill="#FFC107"><path d="M78.288 53.364c-5.658-7.695-10.385-6.039-15.935-3.025-13.991 7.609-21.297 32.336-21.297 32.336l37.232-29.311z"/><path d="M78.288 53.364l-37.23 29.311v.002s25.75-1.296 36.428-13.108c4.242-4.692 6.951-8.9.802-16.205z"/></g><g fill="#FFF280"><path d="M78.288 53.36c-4.241-5.771-7.786-4.534-11.948-2.267-10.497 5.706-15.974 24.254-15.974 24.254L78.288 53.36z"/><path d="M78.291 53.36L50.369 75.343l-.002.004s19.317-.971 27.325-9.83c3.175-3.52 5.212-6.677.599-12.157z"/></g><path fill="#EC1C24" d="M68.871 60.723c1.409.161 10.627.809 21.247-8.319 10.542-9.139 13.756-18.184 14.24-19.699L68.871 60.723z"/><path fill="#FF7043" d="M68.865 60.713c.167-1.409 1.675-10.524 13.016-18.737 11.333-8.141 20.872-9.162 22.47-9.286L68.865 60.713z"/><path fill="#00BCD4" d="M180.694-11.061a90.719 90.719 0 0 1 3.628 25.386c0 50.108-40.765 90.874-90.875 90.874-50.107 0-90.873-40.766-90.873-90.874 0-8.615 1.23-17.14 3.627-25.386H3.456A93.435 93.435 0 0 0-.053 14.325c0 51.557 41.945 93.5 93.5 93.5 51.556 0 93.5-41.943 93.5-93.5a93.229 93.229 0 0 0-3.532-25.386h-2.721z"/></svg>