<svg fill="none" xmlns="http://www.w3.org/2000/svg" width="38" height="40" viewBox="0 0 383.5 300">
<g>
	<path d="M170.701,232.059c0,18.117-7.313,33.972-21.925,47.56C134.165,293.205,116.919,300,97.053,300
		c-31.216,0-55.193-10.33-71.94-30.994C8.367,248.338,0,219.746,0,183.224c0-33.969,14.397-68.219,43.205-102.755
		C72.017,45.932,106.71,19.744,147.3,1.91l18.733,30.146c-32.124,15.573-57.274,33.691-75.459,54.353
		c-18.193,20.669-28.712,45.721-31.548,75.162h23.869c17.615,0,31.967,1.98,43.047,5.942c11.08,3.969,20.035,9.486,26.857,16.564
		c6.528,6.793,11.147,14.292,13.849,22.502C169.348,214.794,170.701,223.287,170.701,232.059z M380.045,232.059
		c0,18.117-7.315,33.972-21.922,47.56C343.504,293.205,326.259,300,306.396,300c-31.221,0-55.195-10.33-71.942-30.994
		c-16.748-20.668-25.113-49.26-25.113-85.782c0-33.969,14.399-68.219,43.207-102.755c28.808-34.537,63.503-60.725,104.097-78.559
		l18.729,30.146c-32.118,15.573-57.273,33.691-75.458,54.353c-18.193,20.669-28.709,45.721-31.549,75.162h23.873
		c17.613,0,31.967,1.98,43.049,5.942c11.074,3.969,20.035,9.486,26.854,16.564c6.529,6.793,11.146,14.292,13.846,22.502
		C378.688,214.794,380.045,223.287,380.045,232.059z"  fill="#d7d9df"  />
</g>
</svg>