<?xml version="1.0" encoding="utf-8"?><svg viewBox="0 0 51 58" xmlns="http://www.w3.org/2000/svg" xmlns:xlink="http://www.w3.org/1999/xlink"><style>:root>svg{display:none}:root>svg:target{display:block}</style><svg viewBox="0 0 44.125 39.042" id="sp-abacus_uslugi_icon" xmlns="http://www.w3.org/2000/svg"><path d="M41.397 34.077V1.986c0-1.08-.878-1.959-1.96-1.959a1.96 1.96 0 00-1.958 1.959v4.302h-1.503v-.355a2.306 2.306 0 00-2.305-2.304h-.208a2.307 2.307 0 00-2.305 2.304v.357h-2.832v-.357a2.307 2.307 0 00-2.308-2.304h-.205a2.308 2.308 0 00-2.306 2.304v.357h-2.493v-.357a2.307 2.307 0 00-2.306-2.304h-.205a2.308 2.308 0 00-2.306 2.304v.357H6.315V1.986c0-1.08-.878-1.959-1.958-1.959S2.399.906 2.399 1.986v32.09H0v4.966h43.815v-4.966h-2.418zM31.926 7.056V5.933c0-.848.69-1.538 1.538-1.538h.208c.848 0 1.539.69 1.539 1.538l-.003 2.906c0 .849-.689 1.539-1.536 1.539h-.208a1.54 1.54 0 01-1.538-1.539V7.056zm-7.651-1.123c0-.848.69-1.538 1.539-1.538h.205c.851 0 1.541.69 1.541 1.538v2.906a1.54 1.54 0 01-1.541 1.539h-.205a1.54 1.54 0 01-1.537-1.539V6.966h-.002V5.933zm-7.31 1.033V5.933a1.54 1.54 0 011.54-1.538h.205c.849 0 1.54.69 1.54 1.538v2.906a1.54 1.54 0 01-1.54 1.539h-.205c-.849 0-1.54-.69-1.54-1.539V6.966zm-10.65.766h9.883v1.107a2.309 2.309 0 002.306 2.306h.205a2.309 2.309 0 002.306-2.306V7.732h2.495v1.107a2.308 2.308 0 002.304 2.306h.205a2.31 2.31 0 002.308-2.306V7.732h2.832v1.107a2.308 2.308 0 002.305 2.306h.208a2.307 2.307 0 002.303-2.306V7.732h1.505v9.506H21.706v-.927a2.307 2.307 0 00-2.304-2.305h-.207a2.307 2.307 0 00-2.304 2.305v.927h-3.375v-.927a2.308 2.308 0 00-2.305-2.305h-.206A2.308 2.308 0 008.7 16.311v.927H6.315V7.732zm14.625 8.579l-.001 2.905a1.54 1.54 0 01-1.538 1.538h-.207a1.54 1.54 0 01-1.538-1.538v-1.212l.001-1.693c0-.849.69-1.539 1.538-1.539h.207c.848 0 1.538.69 1.538 1.539zm-8.19 0v2.905a1.54 1.54 0 01-1.539 1.538h-.206a1.54 1.54 0 01-1.539-1.538v-2.905c0-.849.69-1.539 1.539-1.539h.206c.849 0 1.539.69 1.539 1.539zm-6.435 2.372H8.7v.533a2.308 2.308 0 002.305 2.305h.206a2.308 2.308 0 002.305-2.305v-.533h3.374v.533a2.307 2.307 0 002.304 2.305h.207a2.307 2.307 0 002.304-2.305v-.533h15.772v8.454h-2.211v-.778a2.307 2.307 0 00-2.306-2.303h-.205a2.31 2.31 0 00-2.308 2.303v.778h-3.373v-.778a2.306 2.306 0 00-2.305-2.303h-.206a2.307 2.307 0 00-2.306 2.303v.778H6.315v-8.454zM34.5 26.359v2.906a1.54 1.54 0 01-1.539 1.541h-.205c-.85 0-1.541-.691-1.541-1.541v-2.906c0-.846.691-1.537 1.541-1.537h.205c.85 0 1.539.691 1.539 1.537zm-8.191 0v2.906c0 .85-.69 1.541-1.538 1.541h-.206a1.541 1.541 0 01-1.539-1.541v-2.906c0-.846.69-1.537 1.539-1.537h.206a1.54 1.54 0 011.538 1.537zM6.315 28.583h15.943v.683a2.309 2.309 0 002.306 2.307h.206a2.308 2.308 0 002.305-2.307v-.683h3.373v.683a2.31 2.31 0 002.308 2.307h.205a2.309 2.309 0 002.306-2.307v-.683h2.213v5.494H6.315v-5.494zm36.733 9.693H.766v-3.433h2.4V1.986a1.192 1.192 0 012.382 0v32.857h32.697v-5.859h.006v-2.619h-.008l.002-24.378a1.193 1.193 0 012.384 0v32.857h2.417v3.432z"/></svg><svg viewBox="0 0 44.125 39.042" id="sp-action_sub-menu_icon" xmlns="http://www.w3.org/2000/svg"><path d="M21.24 39.002c-8.838 0-14.451-6.917-15.245-13.425-.764-6.255 2.056-10.121 5.041-14.214l.47-.645.262.089c.803.275 1.285.901 1.71 1.454.501.651.896 1.165 1.687 1.165 1.147 0 1.304-.752 1.41-2.6.041-.706.086-1.507.279-2.25.982-3.798 4.353-6.693 7.259-7.877l.184-.033c.073 0 .436.024.478.494 1.174 4.141 3.265 7.22 5.349 9.919a55.673 55.673 0 001.73 2.094c2.124 2.485 4.32 5.056 4.795 8.791.898 7.084-3.454 11.689-4.811 12.932-2.487 2.281-5.97 3.798-9.313 4.056-.436.034-.863.05-1.285.05zm-9.468-27.377l-.131.18c-2.895 3.97-5.63 7.72-4.902 13.68.755 6.189 6.094 12.767 14.501 12.767.403 0 .812-.016 1.225-.048 3.183-.245 6.496-1.688 8.864-3.86 1.289-1.182 5.427-5.558 4.573-12.285-.446-3.512-2.568-5.995-4.621-8.397a54.927 54.927 0 01-1.754-2.124c-2.093-2.711-4.194-5.801-5.426-10.019-2.586 1.156-5.645 3.848-6.522 7.245-.174.673-.216 1.401-.256 2.106-.093 1.626-.19 3.307-2.159 3.307-1.159 0-1.755-.774-2.281-1.458-.337-.438-.658-.855-1.111-1.094zm9.367 25.026c-3.575-.001-6.885-1.357-9.321-3.82-1.974-1.994-3.329-4.763-3.625-7.405-.584-5.231 1.333-8.033 3.364-10.999l.343-.501.319.361c.689.781 1.801 1.247 2.975 1.247 1.531 0 2.761-.756 3.289-2.022.351-.84.348-1.642.345-2.418-.001-.461-.003-.897.071-1.315.384-2.141 2.242-5.104 4.063-5.714l.312-.105.145.296c1.599 3.277 3.125 6.04 5.381 8.874.476.597 1.001 1.183 1.508 1.749 2.298 2.563 4.674 5.212 4.143 10.399-.76 7.387-7.425 11.373-13.312 11.373zm-9.148-21.532c-1.954 2.86-3.59 5.418-3.054 10.222.278 2.48 1.554 5.083 3.413 6.962 2.294 2.319 5.416 3.597 8.788 3.598 5.559 0 11.852-3.75 12.564-10.7.497-4.857-1.665-7.269-3.955-9.823a39.061 39.061 0 01-1.535-1.782c-2.226-2.794-3.748-5.51-5.313-8.693-1.433.736-2.947 3.244-3.263 5.007-.063.351-.061.754-.06 1.181.003.811.006 1.729-.402 2.709-.64 1.531-2.165 2.483-3.981 2.483-1.212 0-2.374-.429-3.202-1.164z"/><path d="M26.073 32.333a3.679 3.679 0 01-2.627-1.062c-.738-.707-1.113-1.588-1.113-2.618a3.51 3.51 0 011.113-2.619 3.677 3.677 0 012.627-1.061c1.011 0 1.893.361 2.62 1.075.741.696 1.12 1.574 1.12 2.604 0 1.029-.375 1.91-1.113 2.618a3.676 3.676 0 01-2.627 1.063zm0-6.609c-.821 0-1.511.278-2.107.852-.594.57-.883 1.25-.883 2.078 0 .829.289 1.508.883 2.077.599.573 1.288.853 2.107.853s1.509-.279 2.107-.853c.594-.569.883-1.249.883-2.077 0-.826-.291-1.502-.89-2.063-.595-.586-1.28-.867-2.1-.867zm-9.27 6.609c-.351 0-.662-.125-.899-.361a1.228 1.228 0 01-.362-.9c0-.271.106-.55.316-.829l9.061-12.749c.431-.606 1.368-.658 1.892-.139.24.241.361.544.361.901 0 .272-.107.552-.318.831l-9.06 12.748c-.231.326-.574.498-.991.498zm9.109-14.588c-.175 0-.289.055-.381.184l-9.067 12.755c-.114.153-.172.284-.172.388a.48.48 0 00.142.369c.206.206.579.198.749-.04l9.067-12.758c.115-.153.173-.284.173-.387a.489.489 0 00-.142-.37.49.49 0 00-.369-.141zm.161 12.755c-.507 0-.943-.185-1.297-.548-.352-.359-.529-.797-.529-1.299s.179-.938.532-1.293a1.81 1.81 0 012.589-.007c.353.36.53.798.53 1.3 0 .503-.179.94-.53 1.3a1.75 1.75 0 01-1.295.547zm0-2.943c-.3 0-.547.107-.757.327a1.039 1.039 0 00-.319.77c0 .304.104.558.316.775.42.432 1.096.432 1.519 0a1.06 1.06 0 00.316-.775c0-.304-.104-.558-.316-.775a1.017 1.017 0 00-.759-.322zm-9.431-3.204a3.675 3.675 0 01-2.627-1.062c-.738-.707-1.112-1.588-1.112-2.617s.374-1.91 1.112-2.619a3.685 3.685 0 012.627-1.061c1.01 0 1.892.361 2.621 1.074.742.698 1.12 1.576 1.12 2.606a3.504 3.504 0 01-1.113 2.617 3.676 3.676 0 01-2.628 1.062zm0-6.608c-.82 0-1.509.279-2.108.853-.593.569-.881 1.249-.881 2.077 0 .828.289 1.508.881 2.076.598.573 1.287.853 2.108.853a2.91 2.91 0 002.108-.853c.594-.569.882-1.249.882-2.076 0-.826-.291-1.501-.889-2.065-.597-.584-1.282-.865-2.101-.865zm0 4.775c-.506 0-.942-.184-1.295-.546a1.803 1.803 0 01-.531-1.3c0-.505.18-.94.535-1.293.693-.729 1.882-.731 2.588-.006.351.359.529.796.529 1.299s-.178.94-.529 1.3a1.75 1.75 0 01-1.297.546zm0-2.942a.994.994 0 00-.755.327 1.032 1.032 0 00-.321.769c0 .304.104.558.317.775.421.433 1.101.43 1.518.001.213-.218.316-.472.316-.776s-.104-.558-.316-.775a1.01 1.01 0 00-.759-.321z"/></svg><svg viewBox="0 0 44.125 39.042" id="sp-calligraphiya_uslugi_icon" xmlns="http://www.w3.org/2000/svg"><path d="M40.116 38.865H7.054a4.243 4.243 0 01-4.236-4.396l-.003-.109V6.719A6.394 6.394 0 019.202.333h25.761a6.394 6.394 0 016.387 6.386v22.325a3.82 3.82 0 01-2.73 3.654c-.734.395-1.154 1.058-1.19 1.824-.036.763.31 1.457.928 1.876h1.76c.68 0 1.233.554 1.233 1.233s-.555 1.234-1.235 1.234zM3.565 33.984h.033l-.024.406a3.492 3.492 0 003.48 3.724h33.062a.483.483 0 000-.965H38.14l-.091-.056a2.853 2.853 0 01-1.37-2.606 2.86 2.86 0 011.621-2.465l.087-.037a3.067 3.067 0 002.212-2.94V6.719a5.642 5.642 0 00-5.637-5.636H9.202a5.643 5.643 0 00-5.637 5.636v27.265zm32.994 3.164H7.055a2.524 2.524 0 01-2.521-2.521 2.524 2.524 0 012.521-2.521h29.503l-.327.563a3.961 3.961 0 000 3.915l.328.564zM7.055 32.856c-.977 0-1.771.794-1.771 1.771s.794 1.771 1.771 1.771h28.25a4.662 4.662 0 010-3.542H7.055zm-2.521-.739V6.719A4.674 4.674 0 019.203 2.05h25.762a4.674 4.674 0 014.668 4.669v22.325a2.096 2.096 0 01-2.093 2.095l-30.485-.001c-.695 0-1.365.203-1.937.587l-.584.392zM9.203 2.8a3.923 3.923 0 00-3.919 3.919v24.055a4.222 4.222 0 011.771-.386l30.485.001c.74 0 1.343-.604 1.343-1.345V6.719A3.923 3.923 0 0034.965 2.8H9.203z"/><path d="M26.064 29.478c-.377 0-.711-.142-.992-.422a1.37 1.37 0 01-.422-.995c0-.404.145-.747.429-1.017.281-.263.612-.396.985-.396 1.287 0 2.382-.263 3.254-.779.821-.486 1.22-1.015 1.22-1.616 0-.403-.293-.827-.87-1.26-.633-.472-1.513-.847-2.617-1.113l-.65-.156 2.261-2.26.215.065c1.515.458 2.65 1.106 3.376 1.927.74.84 1.115 1.78 1.115 2.795 0 1.682-.772 2.996-2.296 3.906-1.46.877-3.144 1.321-5.008 1.321zm1.798-8.155c.92.274 1.661.628 2.255 1.07.777.582 1.171 1.208 1.171 1.86 0 .877-.534 1.638-1.587 2.261-.989.587-2.213.885-3.637.885a.658.658 0 00-.472.192.605.605 0 00-.192.47c0 .179.064.326.202.465a.624.624 0 00.462.202c1.726 0 3.28-.408 4.621-1.214 1.3-.776 1.932-1.844 1.932-3.263 0-.839-.304-1.591-.928-2.299-.599-.677-1.546-1.228-2.817-1.639l-1.01 1.01zm-11.063 8.155h-4.964v-4.966L26.238 10.11l4.964 4.964-14.403 14.404zm-4.214-.75h3.904l13.653-13.654-3.903-3.903-13.654 13.652v3.905zm2.515-9.399l-.2-.044c-1.545-.337-2.683-.887-3.38-1.634-.711-.761-1.072-1.57-1.072-2.403 0-.902.336-1.722 1-2.437.649-.699 2.058-1.434 4.304-2.245 1.841-.67 2.561-1.073 2.84-1.293.346-.273.514-.573.514-.917 0-.463-.204-.855-.624-1.198-.438-.358-1.151-.54-2.118-.54-.572 0-1.065.074-1.464.219a2.89 2.89 0 00-1.043.675 1.532 1.532 0 01-.931.436 1.4 1.4 0 01-1.058-.307 1.236 1.236 0 01-.537-.969c-.016-.376.104-.71.354-.992.414-.537 1.059-1.001 1.9-1.36.831-.354 1.766-.532 2.78-.532 1.65 0 2.999.406 4.008 1.207 1.037.822 1.563 1.952 1.563 3.359 0 1.046-.37 1.946-1.098 2.673-.701.702-2.008 1.404-3.995 2.146-1.511.563-2.516 1.01-2.987 1.328-.264.178-.58.453-.58.746 0 .212.262.471.739.727.592.317 1.505.626 2.716.917l.651.157-2.282 2.281zm1.264-13.461c1.145 0 2.017.238 2.593.708.597.487.899 1.086.899 1.779 0 .58-.269 1.086-.799 1.506-.477.375-1.474.836-3.049 1.41-2.103.759-3.452 1.449-4.01 2.05-.538.58-.8 1.21-.8 1.927 0 .637.292 1.273.87 1.891.563.603 1.502 1.063 2.793 1.368l1.051-1.048c-.968-.26-1.708-.531-2.251-.822-.752-.405-1.134-.872-1.134-1.388 0-.5.306-.96.91-1.368.528-.355 1.556-.816 3.144-1.409 1.857-.694 3.111-1.358 3.727-1.974.591-.59.878-1.291.878-2.143 0-1.183-.418-2.089-1.279-2.771-.874-.693-2.065-1.045-3.542-1.045-.913 0-1.75.159-2.487.472-.722.308-1.266.694-1.617 1.148a.643.643 0 00-.182.483c.004.101.034.251.244.403a.655.655 0 00.424.163c.294-.03.454-.103.579-.227a3.636 3.636 0 011.315-.849c.484-.175 1.063-.264 1.723-.264zm11.064 9.472l-1.455-1.455.531-.53 1.455 1.455-.531.53zm4.733-1.226l-4.965-4.963 1.825-1.824c.974-.974 2.33-.973 3.302 0l1.663 1.662c.486.486.732 1.042.732 1.651 0 .61-.247 1.165-.733 1.65l-1.824 1.824zm-3.904-4.963l3.904 3.903 1.295-1.294c.345-.345.513-.711.513-1.12 0-.409-.168-.776-.514-1.121l-1.662-1.662c-.691-.691-1.549-.691-2.242 0l-1.294 1.294z"/></svg><svg viewBox="0 0 44.125 39.042" id="sp-english_1_uslugi_icon" xmlns="http://www.w3.org/2000/svg"><path d="M11.115 38.632a4.083 4.083 0 01-2.584-.927l-1.525-1.252a4.083 4.083 0 01-1.346-4.241l4.689-16.999-8.078-6.631a4.054 4.054 0 01-1.027-1.263 4.037 4.037 0 01.114-3.993C2.31 1.754 4.231.986 6.013 1.509a4.054 4.054 0 011.438.762l8.079 6.631L31.289.991c1.405-.708 3.206-.506 4.422.492l1.524 1.251a4.075 4.075 0 011.491 3.091 4.071 4.071 0 01-1.395 3.137L26.808 18.16l6.356 5.217 4.456-2.326a3.125 3.125 0 013.361.348 3.027 3.027 0 011.11 2.564 3.027 3.027 0 01-1.434 2.398l-5.848 3.649-2.439 6.439a3.047 3.047 0 01-2.874 1.982 3.025 3.025 0 01-1.939-.697 3.07 3.07 0 01-1.008-3.201l1.375-4.89-6.3-5.173-6.969 12.112a4.085 4.085 0 01-3.54 2.05zM4.831 2.086c-1.139 0-2.224.624-2.831 1.628-.612 1.012-.646 2.199-.092 3.257.21.402.493.749.838 1.03l8.455 6.941-4.819 17.47a3.333 3.333 0 001.099 3.462l1.525 1.252a3.292 3.292 0 002.109.757c1.191 0 2.3-.64 2.892-1.671l7.411-12.879 7.363 6.044-1.508 5.362c-.249.885.05 1.834.762 2.418.42.345.926.527 1.463.527.977 0 1.829-.588 2.173-1.498L34.2 29.51l6.063-3.784c.639-.398 1.033-1.059 1.082-1.811s-.257-1.458-.839-1.936a2.362 2.362 0 00-2.538-.263l-4.895 2.556-7.425-6.094 11.189-9.78a3.329 3.329 0 00-.079-5.084l-1.524-1.251c-.992-.815-2.461-.979-3.608-.402L15.432 9.792l-8.457-6.94a3.281 3.281 0 00-1.173-.623 3.439 3.439 0 00-.971-.143zm6.284 34.694c-.512 0-1.014-.18-1.411-.506l-1.525-1.252a2.229 2.229 0 01-.733-2.315l4.836-17.524a.614.614 0 00.016-.194l-.005-.066.019-.063a.55.55 0 00-.181-.577l-8.686-7.13a2.326 2.326 0 01-.56-.695 2.205 2.205 0 01.063-2.18 2.25 2.25 0 012.541-.991c.287.085.559.229.786.417l8.684 7.128a.56.56 0 00.604.064l.128-.039a.55.55 0 00.184-.056L32.12 2.648a2.271 2.271 0 012.415.269l1.523 1.251a2.226 2.226 0 01.051 3.399l-11.68 10.208a.548.548 0 00-.053.779.53.53 0 00.118.102l-.118.395.238-.29 7.947 6.522c.163.145.3.198.439.198.09 0 .177-.021.258-.063l5.218-2.725c.426-.221.963-.16 1.324.138.304.249.463.617.438 1.01s-.23.737-.564.946l-6.214 3.878a.52.52 0 00-.112.088 1.06 1.06 0 00-.077.094 1.06 1.06 0 00-.053.113l-2.586 6.834c-.277.736-1.286 1.011-1.902.507a1.21 1.21 0 01-.396-1.268l1.588-5.646a.537.537 0 00.014-.225.575.575 0 00-.203-.434l-8.076-6.624a.623.623 0 00-.127-.098c-.232-.134-.601-.045-.746.207l-7.734 13.45a2.239 2.239 0 01-1.935 1.117zm1.934-21.779c.003.125-.011.25-.042.373L8.168 32.906a1.481 1.481 0 00.486 1.536l1.525 1.252c.686.563 1.782.354 2.22-.405l7.736-13.444c.342-.598 1.174-.827 1.778-.48.105.063.189.127.26.198.033.021.065.046.095.07l7.942 6.52c.283.231.455.573.473.936.024.138.015.322-.036.504l-1.589 5.649a.462.462 0 00.876.29l2.59-6.845a1.51 1.51 0 01.137-.269c.055-.073.097-.128.145-.177.07-.076.16-.148.264-.212l6.211-3.876a.455.455 0 00.048-.741.465.465 0 00-.502-.052l-5.217 2.725a1.309 1.309 0 01-.604.148 1.29 1.29 0 01-.891-.353l-8.079-6.638a.872.872 0 01-.219-.193 1.294 1.294 0 01-.319-.945c.022-.348.18-.666.442-.894L35.618 7.005c.328-.287.513-.7.506-1.135a1.474 1.474 0 00-.54-1.121l-1.522-1.251a1.508 1.508 0 00-1.603-.179l-16.247 8.154c-.119.06-.243.1-.368.121-.44.197-.986.127-1.361-.182L5.799 4.284a1.5 1.5 0 00-.522-.277 1.49 1.49 0 00-1.687.66 1.441 1.441 0 00-.04 1.444c.091.175.22.334.373.462l8.684 7.128c.384.316.554.82.442 1.3z"/></svg><svg viewBox="0 0 44.125 39.042" id="sp-english_2_uslugi_icon" xmlns="http://www.w3.org/2000/svg"><path d="M27.311 7.798c.549 1.348 1.034 2.937 1.441 4.724l.066.292h8.066l-.258-.537c-1.072-2.24-2.563-4.134-4.431-5.63-1.865-1.493-4.045-2.562-6.478-3.178l-.953-.242.551.815a20.372 20.372 0 011.996 3.756zm4.417-.565a15.125 15.125 0 013.954 4.831h-6.267c-.402-1.708-.876-3.237-1.409-4.548a21.562 21.562 0 00-1.531-3.054c1.951.61 3.714 1.54 5.253 2.771zm-15.243 5.581h10.224l-.094-.452a19.12 19.12 0 00-1.805-4.999 20.038 20.038 0 00-2.974-4.264l-.243-.265-.274.232c-1.054.89-1.955 2.072-2.676 3.514-.709 1.421-1.393 3.359-2.033 5.761l-.125.473zm2.829-5.897c.612-1.223 1.356-2.243 2.216-3.036a19.428 19.428 0 012.616 3.832 18.463 18.463 0 011.635 4.351h-8.318c.589-2.135 1.211-3.865 1.851-5.147zm7.743 8.016h-10.94l-.042.327a32.745 32.745 0 00-.241 2.394 33.77 33.77 0 00-.049 1.863c0 .675.017 1.326.049 1.955.031.628.11 1.428.241 2.443l.042.327h10.939l.042-.327a33.21 33.21 0 00.241-2.443c.031-.627.049-1.28.049-1.955 0-.646-.018-1.266-.05-1.862a33.434 33.434 0 00-.24-2.394l-.041-.328zm-.467 6.501a29.733 29.733 0 01-.194 2.058h-9.618a29.849 29.849 0 01-.195-2.059 37.008 37.008 0 010-3.74c.026-.506.092-1.181.195-2.01h9.618c.103.831.168 1.506.195 2.011a35.423 35.423 0 01-.001 3.74zm-12.165-8.92c.344-1.692.788-3.222 1.318-4.549a22.416 22.416 0 012.023-3.879l.522-.803-.928.235c-2.432.616-4.587 1.669-6.407 3.131-1.819 1.46-3.317 3.353-4.453 5.623l-.271.543h8.134l.062-.301zm-6.971-.45c1.048-1.933 2.381-3.556 3.969-4.831 1.502-1.207 3.248-2.123 5.2-2.729a22.993 22.993 0 00-1.576 3.182c-.516 1.289-.951 2.761-1.295 4.378H7.454zm21.347 14.581c-.409 1.695-.895 3.255-1.443 4.636a21.3 21.3 0 01-1.997 3.854l-.583.886 1.011-.322a19.616 19.616 0 006.313-3.365 17.54 17.54 0 004.519-5.423l.298-.553H28.87l-.069.287zm6.847.463a16.768 16.768 0 01-4.017 4.64 18.708 18.708 0 01-5.079 2.89 22.559 22.559 0 001.502-3.079 34.856 34.856 0 001.404-4.45h6.19z"/><path d="M39.55 11.886c-1.005-2.347-2.398-4.422-4.143-6.166-1.751-1.75-3.835-3.137-6.194-4.121C26.854.613 24.279.112 21.563.112s-5.29.5-7.65 1.487c-2.358.984-4.442 2.37-6.194 4.121a19.547 19.547 0 00-4.143 6.166c-1.003 2.348-1.512 4.915-1.512 7.63s.508 5.297 1.511 7.674c1.002 2.376 2.396 4.468 4.144 6.217 1.745 1.746 3.827 3.147 6.19 4.167 2.364 1.02 4.939 1.537 7.654 1.537 2.714 0 5.29-.518 7.654-1.537 2.358-1.018 4.441-2.419 6.191-4.167 1.748-1.752 3.142-3.844 4.143-6.217 1.003-2.375 1.512-4.957 1.512-7.674 0-2.715-.509-5.282-1.513-7.63zm-.691 15.013c-.963 2.283-2.303 4.295-3.981 5.978-1.683 1.681-3.687 3.028-5.958 4.008-2.27.979-4.745 1.477-7.357 1.477s-5.087-.497-7.357-1.477c-2.275-.981-4.279-2.329-5.957-4.007-1.679-1.681-3.019-3.692-3.982-5.979-.964-2.285-1.453-4.769-1.453-7.383s.488-5.082 1.452-7.335A18.782 18.782 0 018.249 6.25c1.682-1.681 3.685-3.013 5.953-3.959C16.47 1.343 18.947.862 21.563.862c2.617 0 5.093.481 7.361 1.429 2.269.946 4.272 2.278 5.953 3.959 1.677 1.676 3.017 3.672 3.983 5.931.964 2.254 1.452 4.722 1.452 7.335.001 2.616-.489 5.1-1.453 7.383z"/><path d="M37.605 15.202l-.079-.27h-8.292l.034.407c.096 1.109.16 1.958.189 2.545.03.582.047 1.127.047 1.63 0 .696-.023 1.354-.068 1.954-.047.623-.121 1.409-.214 2.36l-.041.412h8.345l.079-.271a13.94 13.94 0 00.466-2.187c.081-.66.122-1.424.122-2.269 0-.847-.041-1.587-.122-2.202a14.616 14.616 0 00-.466-2.109zm-.278 6.491a12.773 12.773 0 01-.366 1.799h-6.952c.075-.776.136-1.431.176-1.966.047-.619.07-1.296.07-2.011 0-.516-.017-1.074-.048-1.669a70.721 70.721 0 00-.156-2.164h6.911c.175.636.298 1.217.365 1.731a16.4 16.4 0 01.116 2.103c0 .815-.039 1.547-.116 2.177zm-23.472 2.133a27.174 27.174 0 01-.166-2.286 86.274 86.274 0 01-.023-2.021c0-.791.017-1.494.047-2.109.031-.6.094-1.291.188-2.054l.052-.42H5.599l-.079.27c-.227.78-.384 1.491-.466 2.113a17.21 17.21 0 00-.122 2.201c0 .842.041 1.604.122 2.27.083.671.239 1.405.466 2.184l.079.271h8.303l-.047-.419zm-.915-2.268c.015.586.057 1.234.126 1.934H6.164a13.075 13.075 0 01-.366-1.795 18.343 18.343 0 01-.116-2.179c0-.813.039-1.521.115-2.103.068-.513.191-1.094.366-1.731h6.945a28.48 28.48 0 00-.143 1.687 43.828 43.828 0 00-.048 2.147c0 .671.007 1.35.023 2.04zm13.734 4.802H16.501l.107.46c.449 1.93 1.062 3.694 1.821 5.244a16.687 16.687 0 002.862 4.156l.269.284.272-.28a16.324 16.324 0 002.862-4.037c.759-1.499 1.389-3.305 1.872-5.366l.108-.461zm-2.65 5.489a15.708 15.708 0 01-2.458 3.564 16.057 16.057 0 01-2.463-3.68c-.674-1.376-1.23-2.93-1.654-4.624h8.275c-.453 1.813-1.024 3.406-1.7 4.74zm-8.235-.521c-.563-1.38-1.04-2.952-1.416-4.673l-.064-.295h-8.1l.296.552c1.229 2.296 2.677 4.128 4.303 5.446 1.621 1.313 3.831 2.452 6.569 3.386l1.036.354-.602-.915a22.732 22.732 0 01-2.022-3.855zm-4.509.448c-1.417-1.149-2.696-2.717-3.809-4.666h6.234c.375 1.647.841 3.161 1.389 4.502a23.91 23.91 0 001.514 3.059c-2.189-.831-3.978-1.802-5.328-2.895z"/></svg><svg viewBox="0 0 44.125 39.042" id="sp-english_uslugi_icon" xmlns="http://www.w3.org/2000/svg"><path d="M38.563 37.966H4.699a3.982 3.982 0 01-3.978-3.978L.733 6.505C.726 6.4.721 6.326.721 6.249c0-2.392 1.958-4.338 4.366-4.338h33.45c2.208 0 4.004 1.785 4.004 3.978v5.764a1.19 1.19 0 01-.04.274c.025.184.04.313.04.446v4.669h.346a1.1 1.1 0 011.096 1.094v10.089c0 .604-.491 1.096-1.096 1.096h-.345v4.668a3.982 3.982 0 01-3.979 3.977zM5.087 2.661c-1.994 0-3.616 1.609-3.616 3.588 0 .071.005.14.011.208l.003.036-.023.186.009 27.31a3.232 3.232 0 003.228 3.228h33.863a3.232 3.232 0 003.229-3.228v-5.418h1.095c.19 0 .346-.155.346-.346V18.138a.348.348 0 00-.346-.346H41.79v-5.419c0-.117-.018-.229-.033-.342l-.014-.096.023-.177a.365.365 0 00.023-.119v-5.75c0-1.78-1.46-3.228-3.254-3.228H5.087zm33.476 33.866H4.698a2.54 2.54 0 01-2.537-2.537V8.496l.614.51a3.624 3.624 0 002.307.832h33.48a2.54 2.54 0 012.537 2.536v5.419h-5.418a4.674 4.674 0 00-4.67 4.668v1.44a4.675 4.675 0 004.67 4.67H41.1v5.419a2.54 2.54 0 01-2.537 2.537zM2.911 10.008V33.99a1.79 1.79 0 001.787 1.787h33.864a1.79 1.79 0 001.787-1.787v-4.669h-4.668a5.427 5.427 0 01-5.42-5.42v-1.44a5.425 5.425 0 015.42-5.418h4.668v-4.669c0-.985-.802-1.786-1.787-1.786H5.087a4.387 4.387 0 01-2.176-.58zm24.124 22.915h-7.206a1.097 1.097 0 010-2.192h7.206a1.096 1.096 0 010 2.192zm-7.206-1.441a.346.346 0 000 .692h7.206a.346.346 0 000-.692h-7.206zm-2.882 1.441H6.14a1.096 1.096 0 010-2.192h10.808a1.096 1.096 0 01-.001 2.192zM6.14 31.482a.346.346 0 000 .692h10.807a.346.346 0 00.001-.692H6.14zm23.777-2.16h-3.603a1.097 1.097 0 010-2.192h3.603a1.096 1.096 0 010 2.192zm-3.603-1.442a.346.346 0 000 .692h3.603a.346.346 0 000-.692h-3.603zm-3.602 1.442h-3.604a1.097 1.097 0 010-2.192h3.604a1.096 1.096 0 010 2.192zm-3.604-1.442a.347.347 0 000 .692h3.604a.346.346 0 000-.692h-3.604zm-2.881 1.442h-3.604a1.097 1.097 0 010-2.192h3.604a1.097 1.097 0 010 2.192zm-3.604-1.442a.346.346 0 000 .692h3.604a.346.346 0 000-.692h-3.604zm-2.882 1.442H6.14a1.096 1.096 0 010-2.192h3.601a1.097 1.097 0 010 2.192zM6.14 27.88a.346.346 0 000 .692h3.601c.191 0 .347-.155.347-.346s-.156-.346-.347-.346H6.14zm36.401 0h-6.859a3.983 3.983 0 01-3.978-3.979v-1.44a3.982 3.982 0 013.978-3.978h6.859v9.397zm-6.859-8.647a3.232 3.232 0 00-3.228 3.228v1.44a3.232 3.232 0 003.228 3.229h6.109v-7.897h-6.109zm.718 7.206a3.261 3.261 0 01-3.256-3.258 3.26 3.26 0 013.256-3.256 3.26 3.26 0 013.257 3.256 3.261 3.261 0 01-3.257 3.258zm0-5.764a2.509 2.509 0 00-2.506 2.506c0 1.383 1.124 2.508 2.506 2.508s2.507-1.125 2.507-2.508a2.51 2.51 0 00-2.507-2.506zm0 4.323c-1.001 0-1.815-.814-1.815-1.815s.814-1.815 1.815-1.815 1.815.814 1.815 1.815-.814 1.815-1.815 1.815zm0-2.881a1.066 1.066 0 000 2.13 1.066 1.066 0 000-2.13zm4.7-11.857l-.601-.451a3.24 3.24 0 00-.85-.46l-.146-.096a.34.34 0 00-.248-.107h-1.068V5.889a.346.346 0 00-.346-.346H5.42a.347.347 0 00-.347.346v3.28l-.431-.066c-1.438-.22-2.48-1.42-2.48-2.854 0-1.597 1.313-2.897 2.926-2.897h33.45c1.413 0 2.563 1.138 2.563 2.537v4.371zm-1.119-1.588c.126.048.248.103.368.163V5.889c0-.985-.813-1.787-1.813-1.787H5.087c-1.2 0-2.176.963-2.176 2.147a2.13 2.13 0 001.412 2.002V5.889c0-.604.492-1.096 1.097-1.096h32.422c.604 0 1.096.492 1.096 1.096v2.506h.32c.268.001.526.102.723.277zm-2.485.474H5.765V6.234h31.731v2.912zm-30.981-.75h30.231V6.984H6.515v1.412z"/><path d="M11.496 25.358c-.001 0 0 0 0 0l-.094-.001c-1.253-.024-2.422-.537-3.293-1.443s-1.336-2.095-1.312-3.348a4.633 4.633 0 01.785-2.507 4.641 4.641 0 01-.686-2.536c.049-2.54 2.156-4.605 4.698-4.605l.094.001a4.705 4.705 0 014.603 4.791 4.626 4.626 0 01-.784 2.507c.468.765.705 1.637.685 2.537-.051 2.538-2.158 4.604-4.696 4.604zm.175-13.689c-2.214 0-3.984 1.735-4.025 3.869a3.887 3.887 0 00.698 2.315l.156.224-.164.217a3.89 3.89 0 00-.789 2.287 3.92 3.92 0 001.103 2.813 3.92 3.92 0 002.767 1.213l.079.376v-.375c2.133 0 3.903-1.736 3.945-3.87a3.9 3.9 0 00-.696-2.318l-.154-.222.163-.216a3.888 3.888 0 00.787-2.286 3.953 3.953 0 00-3.867-4.027h-.003zm-.178 12.248c-1.857-.036-3.29-1.526-3.256-3.322.018-.86.366-1.663.981-2.261a.345.345 0 00.01-.483 3.213 3.213 0 01-.89-2.299 3.274 3.274 0 013.256-3.192h.064a3.261 3.261 0 013.191 3.321 3.232 3.232 0 01-.979 2.261.348.348 0 00-.01.485c.592.622.908 1.438.89 2.298a3.274 3.274 0 01-3.257 3.192zm.101-11.184v.375a2.52 2.52 0 00-2.506 2.458 2.497 2.497 0 00.684 1.767 1.1 1.1 0 01-.031 1.537 2.482 2.482 0 00-.754 1.739 2.514 2.514 0 002.458 2.557h.001c1.404 0 2.528-1.102 2.555-2.456a2.469 2.469 0 00-.685-1.768 1.101 1.101 0 01.031-1.538c.473-.462.741-1.08.753-1.738a2.51 2.51 0 00-2.456-2.557l-.05-.376z"/></svg><svg viewBox="11.833 12.333 21 20.5" id="sp-icon-arrow_btn" xmlns="http://www.w3.org/2000/svg"><path d="M19.855 18.246c.293-.168.656-.195.945.016l5.625 3.438a.944.944 0 01.449.801.944.944 0 01-.449.801L20.8 26.74a.93.93 0 01-.945.016.93.93 0 01-.48-.816v-6.91c0-.307.184-.62.48-.784zM32.5 22.5c0 5.523-4.477 10-10 10s-10-4.477-10-10 4.477-10 10-10 10 4.477 10 10zm-10-8.125a8.123 8.123 0 00-8.125 8.125c0 4.488 3.637 8.125 8.125 8.125s8.125-3.637 8.125-8.125-3.637-8.125-8.125-8.125z"/></svg><svg aria-hidden="true" viewBox="0 0 45 45" id="sp-icon-arrow_btn_big" xmlns="http://www.w3.org/2000/svg"><path d="M16.55 12.929c.659-.378 1.476-.44 2.127.035l12.656 7.734a2.12 2.12 0 011.01 1.802 2.12 2.12 0 01-1.01 1.802l-12.656 7.734a2.095 2.095 0 01-2.127.035 2.096 2.096 0 01-1.081-1.837V14.686c0-.685.413-1.388 1.08-1.757zM45 22.5C45 34.928 34.928 45 22.5 45S0 34.928 0 22.5 10.072 0 22.5 0 45 10.072 45 22.5zM22.5 4.219C12.401 4.219 4.219 12.4 4.219 22.5c0 10.099 8.182 18.281 18.281 18.281 10.099 0 18.281-8.182 18.281-18.281 0-10.099-8.182-18.281-18.281-18.281z"/></svg><svg viewBox="0 0 27.667 17" id="sp-icon-arrow_sub-menu" xmlns="http://www.w3.org/2000/svg"><path d="M1.999 16.525a2 2 0 01-1.386-3.44L14.196 0l12.971 12.808a2 2 0 01-2.809 2.848L14.162 5.588 3.386 15.967a1.996 1.996 0 01-1.387.558z"/></svg><svg viewBox="0 0 27.667 17" id="sp-icon-arrow_sub-menu_1" xmlns="http://www.w3.org/2000/svg"><path d="M25.881 12.206L14.128.602 1.846 12.435a2.636 2.636 0 00-.814 1.861c-.014.709.25 1.383.742 1.893a2.657 2.657 0 003.752.071l8.558-8.244 8.069 7.967c1.009.994 2.755.987 3.755-.025a2.663 2.663 0 00-.027-3.752z"/></svg><svg viewBox="0 0 17.5 14.664" id="sp-icon-chat_viber_" xmlns="http://www.w3.org/2000/svg"><path d="M10.023.567H7.46a4.874 4.874 0 00-4.871 4.868v2.31c0 1.998 1.144 3.795 2.992 4.528l-.006 2.241 2.006-1.9h2.443a4.874 4.874 0 004.87-4.869v-2.31A4.874 4.874 0 0010.023.567zm-1.662 2.06c1.297.062 2.273.447 3.023 1.458.44.592.679 1.391.701 2.135 0 .111.006.22 0 .331-.008.122-.062.216-.199.218-.141.002-.209-.074-.219-.216a4.985 4.985 0 00-.352-1.589c-.405-.987-1.181-1.518-2.179-1.774a4.848 4.848 0 00-.803-.146c-.123-.011-.235-.036-.226-.2.008-.162.101-.223.254-.217zm1.053 1.594a4.307 4.307 0 00-.807-.207c-.135-.021-.231-.09-.206-.248.023-.148.119-.206.262-.193.905.085 1.611.416 2.098 1.2.227.367.362.886.341 1.276-.015.276-.058.348-.215.342-.229-.006-.195-.195-.214-.333a4.181 4.181 0 00-.131-.629c-.165-.597-.538-1.002-1.128-1.208zm.766 1.527c-.008.077-.009.129-.021.18-.024.1-.085.162-.195.164-.11.001-.171-.063-.2-.161-.021-.065-.025-.138-.038-.205-.072-.364-.28-.604-.642-.701-.045-.013-.091-.019-.135-.031-.115-.033-.257-.034-.261-.202-.005-.138.1-.22.29-.232.13-.008.329.056.446.112.474.233.699.559.756 1.076zm1.907 3.843a1.917 1.917 0 01-1.284 1.114c-.218.062-.428.008-.629-.076C7.43 9.461 5.447 7.534 4.326 4.752c-.082-.2-.129-.41-.121-.602 0-.717.63-1.378 1.319-1.417.19-.01.355.054.492.182.484.455.874.981 1.158 1.58.156.325.091.555-.187.787-.046.039-.094.071-.141.106-.37.27-.452.545-.275.971.29.698.761 1.246 1.396 1.651.24.152.485.297.762.378.254.074.457-.005.619-.205a1.17 1.17 0 00.053-.07c.353-.49.731-.576 1.246-.257.438.272.854.584 1.248.921.265.226.333.494.192.814z"/></svg><svg viewBox="0 0 51 51.667" id="sp-icon-cross" xmlns="http://www.w3.org/2000/svg"><path d="M25.046 2.136c-13.255 0-24 10.746-24 24 0 13.257 10.745 24.002 24 24.002 13.256 0 24-10.745 24-24.002.001-13.255-10.743-24-24-24zm15.415 35.595l-3.82 3.82-11.595-11.595-11.594 11.595-3.818-3.82 11.594-11.593L9.633 14.542l3.818-3.819 11.595 11.595L36.64 10.723l3.82 3.819-11.595 11.596 11.596 11.593z"/></svg><svg version="1" viewBox="0 0 8.672 18.944" id="sp-icon-facebook" xmlns="http://www.w3.org/2000/svg"><path d="M6.275 3.356h2.398V0H5.795C2.656.181 1.54 2.387 1.948 6.114H0v3.518h1.959v9.312h3.837V9.632h2.857V6.114H5.787c-.022-1.045-.037-2.405.488-2.758z"/></svg><svg viewBox="0.112 -2.992 20 20" id="sp-icon-insta" xmlns="http://www.w3.org/2000/svg"><g fill-rule="evenodd"><path d="M20.049 2.885c-.051-1.064-.218-1.795-.466-2.429a4.895 4.895 0 00-1.155-1.771 4.878 4.878 0 00-1.768-1.153c-.637-.248-1.363-.417-2.428-.465-1.068-.046-1.408-.059-4.126-.059-2.713 0-3.056.012-4.122.06-1.063.05-1.791.216-2.426.465a4.907 4.907 0 00-1.769 1.153A4.962 4.962 0 00.635.457c-.247.635-.417 1.365-.464 2.43-.05 1.064-.06 1.404-.06 4.123s.01 3.055.06 4.121c.049 1.064.217 1.793.465 2.429a4.905 4.905 0 001.154 1.77 4.9 4.9 0 001.771 1.154c.636.248 1.363.417 2.425.466 1.068.049 1.408.06 4.122.06 2.716 0 3.059-.011 4.126-.06 1.064-.049 1.79-.218 2.427-.466a4.868 4.868 0 001.769-1.154 4.938 4.938 0 001.155-1.77c.248-.636.415-1.364.465-2.429.045-1.065.062-1.402.062-4.122 0-2.72-.017-3.061-.063-4.124zm-1.803 8.166c-.042.975-.207 1.505-.345 1.857a3.06 3.06 0 01-.745 1.149c-.35.348-.685.566-1.148.748-.353.135-.884.3-1.86.343-1.052.049-1.371.06-4.041.06s-2.984-.011-4.041-.06c-.974-.043-1.503-.209-1.854-.343a3.1 3.1 0 01-1.149-.748 3.097 3.097 0 01-.75-1.149c-.135-.353-.298-.883-.344-1.857-.045-1.056-.056-1.371-.056-4.041 0-2.671.01-2.988.056-4.041.044-.977.209-1.506.344-1.859.184-.465.4-.8.751-1.149a3.089 3.089 0 011.149-.748c.353-.141.88-.299 1.854-.346 1.057-.047 1.371-.057 4.04-.057s2.989.01 4.041.057c.977.046 1.508.209 1.86.346.463.181.799.399 1.148.746.351.35.565.684.745 1.151.141.353.303.882.345 1.859.048 1.052.058 1.37.058 4.041 0 2.67-.01 2.986-.058 4.041z"/><path d="M10.107 1.873c-2.834 0-5.133 2.297-5.133 5.136s2.297 5.136 5.133 5.136c2.837 0 5.137-2.297 5.137-5.136s-2.299-5.136-5.137-5.136zm0 8.469a3.332 3.332 0 01-3.331-3.334 3.333 3.333 0 013.331-3.335 3.335 3.335 0 010 6.669z"/><circle cx="15.446" cy="1.668" r="1.2"/></g></svg><svg viewBox="410.945 287.64 20 20" id="sp-icon-instagram" xmlns="http://www.w3.org/2000/svg"><path fill-rule="evenodd" d="M428.015 287.64h-14.141a2.933 2.933 0 00-2.93 2.93v14.141a2.933 2.933 0 002.93 2.93h14.141a2.933 2.933 0 002.93-2.93V290.57a2.933 2.933 0 00-2.93-2.93zm-7.031 14.063a4.107 4.107 0 01-4.102-4.102 4.107 4.107 0 014.102-4.102 4.106 4.106 0 014.102 4.102 4.106 4.106 0 01-4.102 4.102zm5.961-8.479a1.584 1.584 0 110-3.168 1.584 1.584 0 010 3.168z"/></svg><svg viewBox="0 0 12 20" id="sp-icon-left-slider" xmlns="http://www.w3.org/2000/svg"><path fill-rule="evenodd" clip-rule="evenodd" d="M11.41.59a2 2 0 010 2.82L4.83 10l6.58 6.59A2 2 0 118.6 19.4l-8-8a2 2 0 010-2.82l8-8a2 2 0 012.82 0z"/></svg><svg viewBox="0 0 37.5 59.3" id="sp-icon-left-slider_big" xmlns="http://www.w3.org/2000/svg"><path fill-rule="evenodd" clip-rule="evenodd" d="M34.4 2.6c2.3 2.2 2.3 5.9 0 8.1l-19.5 19 19.5 19c2.6 2 3 5.6 1 8.1s-5.8 2.9-8.3.9c-.4-.3-.7-.6-1-.9l-23.7-23c-2.3-2.2-2.3-5.9 0-8.1L26 2.6c2.3-2.3 6.1-2.3 8.4 0z"/></svg><svg viewBox="0 0 22 20" id="sp-icon-like" xmlns="http://www.w3.org/2000/svg"><path d="M20.348 2.286A5.513 5.513 0 0016.16.399c-2.291 0-3.738 1.368-4.551 2.517a8.087 8.087 0 00-.542.877 8.102 8.102 0 00-.543-.877C9.713 1.768 8.264.399 5.973.399a5.514 5.514 0 00-4.187 1.887C.764 3.447.201 5.001.201 6.663c0 1.808.706 3.489 2.222 5.291 1.354 1.612 3.304 3.271 5.561 5.197.842.715 1.711 1.457 2.637 2.268l.027.022a.637.637 0 00.838 0l.028-.022c.926-.811 1.795-1.553 2.637-2.27 2.258-1.924 4.207-3.583 5.561-5.195 1.516-1.803 2.223-3.483 2.223-5.291-.001-1.662-.564-3.216-1.587-4.377zm-7.024 13.895c-.723.617-1.471 1.254-2.257 1.938-.788-.684-1.534-1.32-2.258-1.938-4.417-3.765-7.335-6.249-7.335-9.518 0-1.353.45-2.607 1.268-3.535a4.247 4.247 0 013.231-1.454c1.746 0 2.874 1.076 3.514 1.979.572.809.873 1.625.974 1.938a.635.635 0 001.21 0 7.634 7.634 0 01.975-1.938c.639-.902 1.77-1.979 3.514-1.979 1.258 0 2.404.517 3.232 1.454.816.928 1.268 2.183 1.268 3.535 0 3.269-2.918 5.753-7.336 9.518z"/></svg><svg viewBox="0 0 16 16" id="sp-icon-mail" xmlns="http://www.w3.org/2000/svg"><path d="M8 10c-.266 0-.5-.094-1-.336L0 6v7c0 .55.45 1 1 1h14c.55 0 1-.45 1-1V6L9 9.664c-.5.242-.734.336-1 .336zm7-8H1c-.55 0-1 .45-1 1v.758l8 4.205 8-4.205V3c0-.55-.45-1-1-1z"/></svg><svg viewBox="0 0 51 51.667" id="sp-icon-messangers-chat_1" xmlns="http://www.w3.org/2000/svg"><path d="M24.571 11.892c-6.587 0-11.947 5.36-11.947 11.947 0 2.147.572 4.238 1.657 6.073l-1.613 5.831 5.83-1.613a11.907 11.907 0 006.073 1.656c6.588 0 11.948-5.359 11.948-11.947.001-6.587-5.36-11.947-11.948-11.947zm5.484 17.535H19.089c-.553 0-1.001-.513-1.001-1.145s.448-1.145 1.001-1.145h10.966c.553 0 1.001.513 1.001 1.145s-.449 1.145-1.001 1.145zm0-4.24H19.089c-.553 0-1.001-.513-1.001-1.145 0-.633.448-1.145 1.001-1.145h10.966c.553 0 1.001.512 1.001 1.145 0 .632-.449 1.145-1.001 1.145zm0-4.241H19.089c-.553 0-1.001-.512-1.001-1.144s.448-1.145 1.001-1.145h10.966c.553 0 1.001.513 1.001 1.145s-.449 1.144-1.001 1.144z"/><path d="M36.447 0H12.552a4.072 4.072 0 00-4.073 4.073v43.854A4.073 4.073 0 0012.552 52h23.895a4.073 4.073 0 004.073-4.073V4.073A4.072 4.072 0 0036.447 0zM22.192 1.765h4.615a.883.883 0 010 1.764h-4.615a.883.883 0 010-1.764zm-8.672-.204a1.086 1.086 0 110 2.171 1.086 1.086 0 010-2.171zM24.5 50.506a2.443 2.443 0 110-4.887 2.443 2.443 0 010 4.887zm14.052-8.168c0 .837-.799 1.516-1.786 1.516H12.234c-.987 0-1.786-.679-1.786-1.516V6.675c0-.837.799-1.516 1.786-1.516h24.532c.987 0 1.786.679 1.786 1.516v35.663z"/></svg><svg viewBox="0 0 51 51.667" id="sp-icon-messangers-chat_2" xmlns="http://www.w3.org/2000/svg"><path d="M25.479 2.562c-13.233 0-23.999 10.768-23.999 24a23.92 23.92 0 003.328 12.199l-3.24 11.712 11.712-3.24a23.895 23.895 0 0012.198 3.328c13.234 0 24-10.767 24-23.999.001-13.232-10.765-24-23.999-24zm11.013 35.225H14.467c-1.111 0-2.013-1.029-2.013-2.3s.902-2.3 2.013-2.3h22.025c1.111 0 2.012 1.029 2.012 2.3s-.9 2.3-2.012 2.3zm0-8.519H14.467c-1.111 0-2.013-1.03-2.013-2.3 0-1.271.902-2.299 2.013-2.299h22.025c1.111 0 2.012 1.028 2.012 2.299 0 1.27-.9 2.3-2.012 2.3zm0-8.519H14.467c-1.111 0-2.013-1.028-2.013-2.298s.902-2.299 2.013-2.299h22.025c1.111 0 2.012 1.029 2.012 2.299s-.9 2.298-2.012 2.298z"/></svg><svg viewBox="0 0 51 51.667" id="sp-icon-messangersl-chat" xmlns="http://www.w3.org/2000/svg"><path d="M25.046 12.519c-6.644 0-12.049 5.405-12.049 12.049 0 2.167.577 4.274 1.671 6.125l-1.626 5.879 5.88-1.626a12.01 12.01 0 006.124 1.672c6.646 0 12.051-5.406 12.051-12.05s-5.406-12.049-12.051-12.049z"/><path d="M36.862.333H12.966a4.073 4.073 0 00-4.074 4.073V48.26a4.074 4.074 0 004.074 4.073h23.896a4.073 4.073 0 004.072-4.073V4.407A4.072 4.072 0 0036.862.333zM22.605 2.099h4.617a.883.883 0 010 1.764h-4.617a.882.882 0 010-1.764zm-8.672-.204a1.086 1.086 0 110 2.171 1.086 1.086 0 010-2.171zm10.981 48.944a2.443 2.443 0 110-4.885 2.443 2.443 0 010 4.885zm14.052-8.168c0 .838-.801 1.516-1.785 1.516H12.648c-.987 0-1.787-.678-1.787-1.516V7.009c0-.837.8-1.516 1.787-1.516H37.18c.984 0 1.785.679 1.785 1.516v35.662z"/></svg><svg viewBox="0 0 20 20" id="sp-icon-ok" xmlns="http://www.w3.org/2000/svg"><path d="M9.941 3.341c1.151 0 2.089.938 2.089 2.09 0 1.15-.938 2.087-2.089 2.087a2.092 2.092 0 01-2.089-2.087c0-1.152.939-2.09 2.089-2.09m0 7.133a5.048 5.048 0 005.045-5.042A5.05 5.05 0 009.941.387a5.049 5.049 0 00-5.044 5.045 5.048 5.048 0 005.044 5.042zm2.041 4.115a9.458 9.458 0 002.929-1.214 1.477 1.477 0 00-1.574-2.502 6.406 6.406 0 01-6.792 0 1.473 1.473 0 00-2.037.466 1.475 1.475 0 00.463 2.036A9.472 9.472 0 007.9 14.589l-2.82 2.82A1.48 1.48 0 007.171 19.5l2.769-2.771 2.774 2.771a1.477 1.477 0 102.088-2.091l-2.82-2.82z"/></svg><svg version="1.0" viewBox="0 0 18 18" id="sp-icon-phone" xmlns="http://www.w3.org/2000/svg"><path d="M3.6 7.8c1.4 2.8 3.8 5.1 6.6 6.6l2.2-2.2c.3-.3.699-.4 1-.2 1.1.4 2.3.6 3.6.6.6 0 1 .4 1 1V17c0 .6-.4 1-1 1C7.6 18 0 10.4 0 1c0-.6.4-1 1-1h3.5c.6 0 1 .4 1 1 0 1.2.2 2.4.6 3.6.1.3 0 .7-.2 1L3.6 7.8z"/></svg><svg viewBox="0 0 20 20" id="sp-icon-pin" xmlns="http://www.w3.org/2000/svg"><path d="M10.401.307C5.037.308 2.187 3.744 2.187 7.492c0 1.737.971 3.904 2.526 4.591.442.201.385-.043.766-1.503a.346.346 0 00-.083-.34c-2.222-2.57-.434-7.854 4.689-7.854 7.412 0 6.028 10.257 1.289 10.257-1.222 0-2.131-.958-1.843-2.144.349-1.414 1.031-2.933 1.031-3.951 0-2.566-3.823-2.186-3.823 1.215 0 1.05.371 1.76.371 1.76l-1.458 5.9c-.387 1.57.052 4.115.091 4.335.024.121.158.157.234.06.122-.16 1.609-2.279 2.025-3.814l.773-2.824c.411.739 1.592 1.359 2.853 1.359 3.747 0 6.455-3.294 6.455-7.381C18.07 3.239 14.718.307 10.401.307z"/></svg><svg viewBox="0 0 17.5 14.664" id="sp-icon-right-arrow" xmlns="http://www.w3.org/2000/svg"><path d="M16.911 6.001L11.457 1.09a1.637 1.637 0 00-2.189 2.433l2.283 2.057H1.635a1.635 1.635 0 000 3.272h9.918l-2.286 2.057a1.638 1.638 0 002.19 2.433l5.454-4.908a1.64 1.64 0 000-2.433z"/></svg><svg viewBox="0 0 12 20" id="sp-icon-right-slider" xmlns="http://www.w3.org/2000/svg"><path fill-rule="evenodd" clip-rule="evenodd" d="M.59 19.41a2 2 0 010-2.82L7.17 10 .6 3.41A2 2 0 113.4.6l8 8a2 2 0 010 2.82l-8 8a2 2 0 01-2.82 0z"/></svg><svg viewBox="0 0 10 13" id="sp-icon-rub" xmlns="http://www.w3.org/2000/svg"><path d="M2.048.5h3.988a3.06 3.06 0 010 6.12H2.048V.5zM2 6.5H0M2 0v13M.31 9.697h6.5"/></svg><svg viewBox="0 0 15 15" id="sp-icon-star" xmlns="http://www.w3.org/2000/svg"><path d="M8.01 1.743l1.654 3.328a.57.57 0 00.429.312l3.704.535a.57.57 0 01.377.219.55.55 0 01-.061.737L11.429 9.47a.544.544 0 00-.162.5l.643 3.663a.562.562 0 01-.466.638.62.62 0 01-.368-.058l-3.299-1.729a.554.554 0 00-.53 0l-3.323 1.739a.58.58 0 01-.769-.236.568.568 0 01-.058-.357l.643-3.663a.563.563 0 00-.161-.5L.88 6.872a.561.561 0 01-.002-.794l.002-.003a.65.65 0 01.323-.159l3.704-.535a.58.58 0 00.429-.313l1.653-3.325a.562.562 0 01.763-.254c.11.055.201.144.258.254z"/></svg><svg viewBox="0 0 51 51.667" id="sp-icon-tel-chat" xmlns="http://www.w3.org/2000/svg"><path d="M25.093 2.011c-13.255 0-24 10.746-24 24 0 13.256 10.745 24.001 24 24.001 13.256 0 24.001-10.745 24.001-24.001 0-13.255-10.745-24-24.001-24zm-5.941 12.747a10.405 10.405 0 017.408-3.068c2.797 0 5.428 1.09 7.406 3.068 4.084 4.084 4.084 10.73 0 14.813a.532.532 0 01-.748 0 .531.531 0 010-.749c3.671-3.671 3.671-9.645 0-13.316a9.353 9.353 0 00-6.658-2.758 9.35 9.35 0 00-6.658 2.758.53.53 0 01-.75-.748zm10.114 4.7c-1.446-1.447-3.968-1.447-5.416 0a.53.53 0 01-.747 0 .531.531 0 010-.749c1.847-1.846 5.066-1.846 6.911 0a4.893 4.893 0 010 6.911.527.527 0 01-.748 0 .53.53 0 010-.749 3.833 3.833 0 000-5.413zm1.958 7.372c2.571-2.571 2.571-6.757 0-9.33a6.553 6.553 0 00-4.665-1.931 6.554 6.554 0 00-4.664 1.931.53.53 0 01-.749-.748c2.984-2.982 7.841-2.985 10.826 0s2.984 7.842 0 10.827a.525.525 0 01-.374.154.53.53 0 01-.374-.903zm7.702 11.992c-.702 1.752-3.873 3.346-5.272 3.422-1.402.079-1.44 1.096-9.064-2.243-7.621-3.34-12.208-11.456-12.571-11.974-.358-.524-2.948-4.245-2.809-7.986.139-3.748 2.175-5.516 2.902-6.252.723-.733 1.558-.893 2.063-.874.506.018 1.012.102 1.459.12.442.016 1.085-.216 1.664 1.333.576 1.545 1.96 5.35 2.132 5.735.177.384.288.835.017 1.336-.273.498-.414.809-.81 1.242-.395.427-.835.961-1.192 1.292-.393.362-.807.76-.393 1.539.417.775 1.849 3.327 4.04 5.426 2.809 2.706 5.229 3.598 5.978 4.008.747.407 1.191.361 1.655-.13.463-.488 1.985-2.148 2.52-2.891.54-.74 1.043-.597 1.729-.318.69.28 4.359 2.263 5.106 2.672.745.409 1.245.617 1.426.942.176.321.122 1.845-.58 3.601z"/></svg><svg viewBox="0 0 51 51.667" id="sp-icon-tel-chat_not_round" xmlns="http://www.w3.org/2000/svg"><path d="M32.69 23.497a.844.844 0 001.183 0 7.568 7.568 0 000-10.784c-2.914-2.881-7.999-2.881-10.917 0a.821.821 0 000 1.168.845.845 0 001.181 0c2.287-2.259 6.268-2.259 8.553 0a5.927 5.927 0 010 8.448.82.82 0 000 1.168z"/><path d="M36.374 26.794a.852.852 0 00.593-.242 11.86 11.86 0 000-16.895c-4.717-4.658-12.39-4.654-17.102 0a.82.82 0 000 1.168.844.844 0 001.182 0 10.414 10.414 0 017.367-3.015c2.784 0 5.401 1.071 7.368 3.015a10.216 10.216 0 010 14.558.823.823 0 000 1.168.844.844 0 00.592.243z"/><path d="M17.898 7.715c2.81-2.776 6.544-4.303 10.517-4.303 3.975 0 7.709 1.527 10.519 4.303a14.583 14.583 0 010 20.78.823.823 0 000 1.168.843.843 0 001.183 0c6.45-6.373 6.45-16.742 0-23.115-3.127-3.088-7.282-4.789-11.702-4.789s-8.576 1.701-11.7 4.788a.82.82 0 000 1.167.844.844 0 001.183.001z"/><path fill-rule="evenodd" clip-rule="evenodd" d="M46.613 37.006c-1.182-.64-6.977-3.733-8.066-4.168-1.085-.438-1.879-.66-2.731.495-.845 1.156-3.25 3.747-3.982 4.511-.73.767-1.434.838-2.614.2-1.181-.641-5.004-2.029-9.442-6.254-3.459-3.276-5.721-7.257-6.379-8.466-.655-1.215 0-1.836.619-2.402.565-.514 1.26-1.349 1.884-2.015.626-.675.849-1.16 1.28-1.937.426-.781.253-1.487-.027-2.085-.271-.601-2.458-6.538-3.368-8.95-.913-2.417-1.931-2.055-2.629-2.081-.707-.028-1.505-.158-2.305-.186-.798-.03-2.116.219-3.258 1.363-1.149 1.151-4.366 3.909-4.586 9.758-.219 5.839 3.872 11.646 4.436 12.464.573.808 7.818 13.473 19.858 18.685 12.044 5.209 12.102 3.623 14.318 3.498 2.212-.116 7.221-2.604 8.33-5.339 1.109-2.739 1.194-5.118.912-5.622-.284-.506-1.072-.832-2.25-1.469z"/></svg><svg viewBox="0 0 20 20" id="sp-icon-telegram" xmlns="http://www.w3.org/2000/svg"><path d="M5.904 11.309l10.083-6.326c.497-.334.653.038.429.295l-8.369 7.528-.429 3.758-1.714-5.255zm12.791-9.235L.994 8.777c-.968.28-.937 1.236-.221 1.466l4.436 1.384 1.697 5.203c.207.57.375.784.727.789.371.005.512-.13.897-.471.45-.422 1.136-1.088 2.219-2.142l4.614 3.409c.849.468 1.462.226 1.673-.788L19.928 3.32c.309-1.243-.421-1.614-1.233-1.246z"/></svg><svg version="1.0" viewBox="0 0 51 51.667" id="sp-icon-telegram-chat" xmlns="http://www.w3.org/2000/svg"><path d="M25.5 1.583c-13.255 0-24 10.745-24 24s10.745 24 24 24 24-10.745 24-24-10.745-24-24-24zm9.749 15.262c-.36 3.795-1.924 13.003-2.72 17.254-.336 1.799-.997 2.402-1.64 2.46-1.394.131-2.451-.92-3.801-1.806-2.113-1.384-3.306-2.247-5.356-3.598-2.37-1.562-.834-2.42.518-3.822.353-.366 6.493-5.952 6.612-6.459.014-.063.028-.3-.111-.425-.141-.124-.349-.081-.497-.048-.212.048-3.586 2.279-10.123 6.69-.959.658-1.826.979-2.603.962-.858-.019-2.507-.484-3.731-.882-1.504-.489-2.697-.748-2.594-1.578.055-.432.65-.873 1.785-1.324 6.997-3.049 11.662-5.059 13.996-6.03 6.666-2.771 8.051-3.253 8.953-3.27.198-.004.644.047.932.279.241.197.308.463.341.65.031.188.07.614.039.947z"/></svg><svg version="1" viewBox="0 0 17.5 14.663" id="sp-icon-twitter" xmlns="http://www.w3.org/2000/svg"><path fill-rule="evenodd" clip-rule="evenodd" d="M11.283.153c1.736-.484 3.074.264 3.685 1.15.694-.225 1.372-.47 2.072-.69-.004.841-.538 1.478-.883 1.728.704.165 1.343-.481 1.343-.481-.175.977-1.035 1.746-1.611 1.977-.239 6.592-3.272 10.956-10.382 10.823h-.46c-.422 0-4.29-.45-5.047-1.843 2.341.192 4.011-.412 4.835-1.15-.989-.293-2.761-.464-3.07-2.881.362.105.583.223 1.228.117C1.757 8.067.385 7.366.461 5.218c.294.319 1.1.523 1.381.461C1.117 5.444-.188 2.398.921.843 2.794 2.655 4.769 4.364 8.29 4.528c.216-2.24 1.171-3.74 2.993-4.375z"/></svg><svg viewBox="0 0 17.5 14.664" id="sp-icon-viber" xmlns="http://www.w3.org/2000/svg"><path d="M10.023.567H7.46a4.874 4.874 0 00-4.871 4.868v2.31c0 1.998 1.144 3.795 2.992 4.528l-.006 2.241 2.006-1.9h2.443a4.874 4.874 0 004.87-4.869v-2.31A4.874 4.874 0 0010.023.567zm-1.662 2.06c1.297.062 2.273.447 3.023 1.458.44.592.679 1.391.701 2.135 0 .111.006.22 0 .331-.008.122-.062.216-.199.218-.141.002-.209-.074-.219-.216a4.985 4.985 0 00-.352-1.589c-.405-.987-1.181-1.518-2.179-1.774a4.848 4.848 0 00-.803-.146c-.123-.011-.235-.036-.226-.2.008-.162.101-.223.254-.217zm1.053 1.594a4.307 4.307 0 00-.807-.207c-.135-.021-.231-.09-.206-.248.023-.148.119-.206.262-.193.905.085 1.611.416 2.098 1.2.227.367.362.886.341 1.276-.015.276-.058.348-.215.342-.229-.006-.195-.195-.214-.333a4.181 4.181 0 00-.131-.629c-.165-.597-.538-1.002-1.128-1.208zm.766 1.527c-.008.077-.009.129-.021.18-.024.1-.085.162-.195.164-.11.001-.171-.063-.2-.161-.021-.065-.025-.138-.038-.205-.072-.364-.28-.604-.642-.701-.045-.013-.091-.019-.135-.031-.115-.033-.257-.034-.261-.202-.005-.138.1-.22.29-.232.13-.008.329.056.446.112.474.233.699.559.756 1.076zm1.907 3.843a1.917 1.917 0 01-1.284 1.114c-.218.062-.428.008-.629-.076C7.43 9.461 5.447 7.534 4.326 4.752c-.082-.2-.129-.41-.121-.602 0-.717.63-1.378 1.319-1.417.19-.01.355.054.492.182.484.455.874.981 1.158 1.58.156.325.091.555-.187.787-.046.039-.094.071-.141.106-.37.27-.452.545-.275.971.29.698.761 1.246 1.396 1.651.24.152.485.297.762.378.254.074.457-.005.619-.205a1.17 1.17 0 00.053-.07c.353-.49.731-.576 1.246-.257.438.272.854.584 1.248.921.265.226.333.494.192.814z"/></svg><svg viewBox="0 0 51 51.667" id="sp-icon-viber-chat" xmlns="http://www.w3.org/2000/svg"><path d="M39.347 33.681c-.934 2.115-2.533 3.512-4.77 4.145-.812.229-1.598.031-2.338-.283-10.2-4.342-17.571-11.506-21.745-21.847-.301-.747-.477-1.524-.449-2.236.006-2.663 2.342-5.125 4.902-5.267.708-.039 1.32.201 1.831.679a19.37 19.37 0 014.305 5.87c.575 1.208.334 2.06-.699 2.926-.165.137-.345.261-.519.388-1.37 1.003-1.678 2.029-1.022 3.61 1.076 2.593 2.827 4.628 5.191 6.135.893.568 1.803 1.109 2.829 1.406.941.275 1.698-.018 2.302-.762.067-.082.131-.172.193-.26 1.316-1.82 2.724-2.135 4.63-.953a38.263 38.263 0 014.638 3.422c.991.846 1.245 1.84.721 3.027m-7.083-14.287c-.032.285-.034.483-.079.669-.091.375-.32.601-.729.607-.413.006-.637-.239-.745-.594-.074-.246-.094-.509-.143-.763-.262-1.355-1.036-2.243-2.384-2.605-.167-.045-.338-.069-.503-.115-.426-.117-.955-.127-.973-.749-.016-.516.377-.822 1.084-.864.48-.03 1.226.206 1.655.417 1.772.864 2.599 2.079 2.817 3.997zm-2.847-5.673c-.98-.343-1.974-.618-3.003-.768-.5-.073-.857-.336-.765-.921.087-.55.447-.767.974-.718 3.365.321 5.993 1.544 7.801 4.459.848 1.362 1.345 3.293 1.27 4.741-.052 1.027-.21 1.292-.796 1.275-.854-.023-.728-.725-.794-1.242a16.02 16.02 0 00-.489-2.34c-.622-2.22-2.015-3.721-4.198-4.486zm-4.864-5.119c.034-.602.377-.833.943-.807 4.82.231 8.45 1.663 11.241 5.419 1.636 2.202 2.518 5.173 2.606 7.936 0 .41.018.82-.004 1.229-.026.458-.226.806-.739.812-.519.006-.773-.275-.809-.803-.136-2.034-.527-4.015-1.306-5.909-1.507-3.666-4.394-5.641-8.104-6.595-.979-.252-1.973-.46-2.985-.542-.458-.035-.876-.134-.843-.74zm19.294-3.788c-1.911-1.632-4.153-2.618-6.559-3.248C31.239-.015 25.11-.409 18.917.43c-3.139.426-6.173 1.257-8.963 2.821-3.276 1.839-5.531 4.488-6.528 8.162-.711 2.62-1.056 5.287-1.191 7.988-.199 3.984-.069 7.942.951 11.831 1.181 4.498 3.747 7.811 8.144 9.576.479.191.931.455 1.408.654.44.184.575.477.571.951-.021 3.113-.011 6.223-.011 9.475 1.155-1.115 1.952-1.934 2.533-2.59 1.732-1.957 3.37-3.588 5.175-5.449.915-.943.531-.898 1.951-.873 1.67.027 4.295.092 5.956-.039 3.168-.246 6.309-.65 9.365-1.566 3.882-1.168 6.992-3.246 8.57-7.17.418-1.045.82-2.092 1.085-3.182 1.517-6.248 1.313-12.506.046-18.755-.589-2.903-1.83-5.483-4.132-7.45z"/></svg><svg version="1" viewBox="0 0 20 20" id="sp-icon-video-fullscreen" xmlns="http://www.w3.org/2000/svg"><path d="M0 0v6h3V3h3V0H3zm3 14H0v6h6v-3H3zM17 0h-3v3h3v3h3V0zm0 17h-3v3h6v-6h-3z"/></svg><svg version="1" viewBox="0 0 16 20" id="sp-icon-video-replay" xmlns="http://www.w3.org/2000/svg"><path d="M8 4V0L3 5l5 5V6c3.315 0 6 2.686 6 6s-2.685 6-6 6-6-2.686-6-6H0c0 4.42 3.58 8 8 8s8-3.58 8-8-3.58-8-8-8z"/></svg><svg version="1" viewBox="0 0 32 20" id="sp-icon-video-subtitles" xmlns="http://www.w3.org/2000/svg"><path d="M29 0H3C1.35 0 0 1.35 0 3v14c0 1.65 1.35 3 3 3h26c1.65 0 3-1.35 3-3V3c0-1.65-1.35-3-3-3zM14.403 15.854a8.61 8.61 0 01-1.678.164 5.986 5.986 0 01-1.976-.323c-.623-.214-1.172-.562-1.646-1.041s-.852-1.103-1.133-1.868c-.28-.766-.419-1.695-.419-2.786 0-1.134.157-2.085.471-2.851.315-.768.723-1.384 1.224-1.854a4.53 4.53 0 011.679-1.008 5.86 5.86 0 011.852-.307c.66 0 1.22.045 1.678.134.457.087.835.192 1.133.313l-.448 1.92a3.332 3.332 0 00-.902-.265A8.244 8.244 0 0012.973 6c-.915 0-1.649.325-2.206.977-.558.651-.836 1.663-.836 3.031 0 .598.067 1.142.199 1.632.132.493.334.913.603 1.26.271.349.607.619 1.01.812.402.193.867.29 1.396.29.496 0 .915-.049 1.257-.148.342-.099.639-.227.893-.38l.463 1.841c-.354.249-.803.43-1.349.539zm8.698 0a8.618 8.618 0 01-1.678.164 5.986 5.986 0 01-1.976-.323c-.623-.214-1.172-.562-1.646-1.041s-.852-1.103-1.133-1.868c-.281-.767-.421-1.695-.421-2.786 0-1.134.157-2.085.471-2.851.314-.768.723-1.384 1.223-1.854a4.526 4.526 0 011.68-1.008 5.858 5.858 0 011.851-.307c.661 0 1.221.045 1.678.134a6.05 6.05 0 011.133.313l-.446 1.918a3.314 3.314 0 00-.901-.265A8.569 8.569 0 0021.67 6c-.915 0-1.649.325-2.206.977-.558.651-.836 1.663-.836 3.031 0 .598.067 1.142.199 1.632.132.493.334.913.603 1.26.271.349.606.619 1.009.812.402.193.868.29 1.396.29.497 0 .915-.049 1.257-.148.342-.099.64-.227.894-.38l.463 1.841c-.353.249-.803.43-1.348.539z"/></svg><svg viewBox="0 0 20 20" id="sp-icon-vk" xmlns="http://www.w3.org/2000/svg"><path fill-rule="evenodd" clip-rule="evenodd" d="M10.011 15.623h1.169s.353-.039.534-.233c.166-.178.16-.512.16-.512s-.023-1.569.706-1.801c.718-.228 1.639 1.517 2.616 2.186.738.509 1.299.397 1.299.397l2.611-.037s1.367-.084.72-1.158c-.054-.088-.378-.795-1.942-2.247-1.639-1.521-1.418-1.274.556-3.904 1.202-1.601 1.68-2.579 1.531-2.998-.144-.399-1.027-.293-1.027-.293l-2.941.019s-.218-.03-.379.067c-.157.094-.26.315-.26.315s-.466 1.24-1.085 2.292c-1.311 2.224-1.835 2.342-2.049 2.204-.5-.322-.373-1.293-.373-1.982 0-2.156.326-3.054-.638-3.287-.319-.077-.555-.128-1.373-.136-1.049-.011-1.938.003-2.439.25-.335.164-.594.529-.436.55.194.024.633.117.867.435.302.41.291 1.33.291 1.33s.173 2.537-.404 2.852c-.397.216-.94-.225-2.108-2.243-.598-1.032-1.05-2.175-1.05-2.175s-.087-.214-.242-.328c-.189-.138-.451-.182-.451-.182l-2.796.018s-.419.013-.574.195c-.137.162-.01.497-.01.497s2.188 5.121 4.666 7.699c2.271 2.366 4.851 2.21 4.851 2.21"/></svg><svg viewBox="0 0 51 51.667" id="sp-icon-whatsapp-chat" xmlns="http://www.w3.org/2000/svg"><path fill-rule="evenodd" clip-rule="evenodd" d="M25.567 2.166c-13.014 0-23.601 10.587-23.601 23.6a23.58 23.58 0 003.117 11.72L1.208 49.113a.8.8 0 00.963 1.026l12.694-3.34a23.643 23.643 0 0010.703 2.566c13.012 0 23.6-10.586 23.6-23.6-.001-13.012-10.589-23.599-23.601-23.599zm14.828 34.786c-.693 1.726-3.819 3.299-5.2 3.373-1.382.078-1.419 1.08-8.936-2.212-7.515-3.292-12.037-11.294-12.395-11.805-.353-.518-2.906-4.185-2.77-7.875.137-3.694 2.146-5.437 2.861-6.164.713-.722 1.535-.88 2.034-.86.499.018.997.1 1.438.116.436.016 1.07-.212 1.641 1.315.567 1.523 1.933 5.275 2.102 5.654.176.379.283.824.018 1.318-.27.49-.408.797-.799 1.222-.39.423-.823.949-1.176 1.274-.387.357-.795.749-.387 1.518.411.763 1.822 3.278 3.981 5.35 2.77 2.667 5.156 3.546 5.894 3.951.737.402 1.175.356 1.632-.127s1.958-2.12 2.485-2.851c.531-.73 1.027-.589 1.704-.314.681.275 4.299 2.23 5.035 2.636.735.402 1.228.606 1.405.928.177.317.124 1.82-.567 3.553z"/></svg><svg viewBox="0 0 20 20" id="sp-icon-youtube" xmlns="http://www.w3.org/2000/svg"><path d="M17.764 2.25H1.934A1.934 1.934 0 000 4.185V15.26c0 1.068.866 1.934 1.934 1.934h15.83a1.934 1.934 0 001.934-1.934V4.185a1.936 1.936 0 00-1.934-1.935zm-3.858 7.884L7.854 13.71a.478.478 0 01-.722-.411V6.145c0-.37.403-.601.722-.412l6.053 3.577a.48.48 0 01-.001.824z"/></svg><svg viewBox="0 0 15 15" id="sp-ikon_star-article" xmlns="http://www.w3.org/2000/svg"><path d="M8.01 1.743l1.654 3.328a.57.57 0 00.429.312l3.704.535a.57.57 0 01.377.219.55.55 0 01-.061.737L11.429 9.47a.544.544 0 00-.162.5l.643 3.663a.562.562 0 01-.466.638.62.62 0 01-.368-.058l-3.299-1.729a.554.554 0 00-.53 0l-3.323 1.739a.58.58 0 01-.769-.236.568.568 0 01-.058-.357l.643-3.663a.563.563 0 00-.161-.5L.88 6.872a.561.561 0 01-.002-.794l.002-.003a.65.65 0 01.323-.159l3.704-.535a.58.58 0 00.429-.313l1.653-3.325a.562.562 0 01.763-.254c.11.055.201.144.258.254z"/></svg><svg viewBox="0.055 2.685 27 28.252" id="sp-logo-mandarin-studio" xmlns="http://www.w3.org/2000/svg"><path d="M9.003 14.82c-.426-.679-1.507-2.155-1.05-2.76l-.002-.001.002-.002.007-.007.007-.007.002-.002h.001c.559-.514 2.133.418 2.851.777.764.382 1.521.693 1.854 1.584.205.548.032 1.148-.338 1.598l.001.001-.01.01-.009.011h-.001c-.413.41-.993.641-1.559.491-.917-.247-1.3-.97-1.756-1.693z"/><path d="M.055 27.06c.392-.568.916-.935 1.306-1.507 3.654 3.396 9.937 3.85 14.058 2.391 4.007-1.419 7.661-4.556 8.989-9.412 1.744-6.37-.614-10.901-3.954-14.269.385-.608.89-1.038 1.321-1.579a16.02 16.02 0 013.482 19.251c-2.905 5.751-9.295 9.875-16.722 8.842-3.695-.513-6.152-1.857-8.288-3.528-.046-.072-.193-.082-.192-.189z"/><path d="M18.731 14.759c-1.438-.083-4.698-.501-5.255.743h-.003l-.002.006-.004.018-.007.016-.002.006.003.002c-.323 1.323 2.508 2.993 3.695 3.811 1.266.871 2.413 1.791 4.104 1.542 1.041-.153 1.834-.945 2.223-1.918h.003l.006-.022a.248.248 0 01.009-.022h-.003c.29-1.005.149-2.119-.578-2.879-1.184-1.237-2.656-1.214-4.189-1.303zM15.899 8.73c-.922 1.108-3.195 3.481-2.526 4.669l-.003.001c.002.001.003.003.004.006l.011.013.008.014a.016.016 0 01.004.007l.002-.003c.873 1.049 3.899-.236 5.26-.707 1.454-.5 2.876-.876 3.68-2.384.495-.928.329-2.037-.222-2.928l.002-.001-.015-.02-.012-.021-.002.002c-.637-.831-1.615-1.38-2.659-1.245-1.693.219-2.549 1.417-3.532 2.597zM5.426 20.096c1.028-1.009 3.208-3.469 4.448-2.899l.002-.002.006.003.014.011c.005.001.01.004.015.008l.006.003-.001.002c1.115.786.082 3.905-.276 5.3-.38 1.49-.638 2.938-2.075 3.861-.885.569-2.004.494-2.936.019l-.001.003a.143.143 0 01-.02-.014l-.022-.011.001-.001c-.88-.567-1.507-1.498-1.458-2.549.077-1.707 1.2-2.658 2.297-3.734zm10.722.314c-.958-1.077-2.968-3.677-4.242-3.191l-.002-.004c-.002.003-.003.004-.006.004l-.015.008c-.005.002-.011.003-.016.006-.002.001-.005.001-.006.003l.002.003c-1.166.707-.344 3.892-.083 5.308.28 1.511.44 2.974 1.81 3.992.845.627 1.966.627 2.929.215l.001.004.021-.013.023-.008-.001-.003c.915-.506 1.603-1.393 1.626-2.444.039-1.71-1.019-2.734-2.041-3.88z"/></svg><svg viewBox="0 0 44.125 39.042" id="sp-logoped_uslugi_icon" xmlns="http://www.w3.org/2000/svg"><path d="M3.375 39.099A.377.377 0 013 38.724V3.869c0-.822.321-1.568.954-2.217C4.589.999 5.345.668 6.2.668h32.03c.822 0 1.568.33 2.22.98.65.649.981 1.396.983 2.219v24.494c0 .822-.33 1.569-.981 2.222-.651.65-1.398.98-2.221.98H11.067L3.64 38.99a.376.376 0 01-.265.109zM6.2 1.418c-.654 0-1.212.248-1.708.757-.499.512-.742 1.066-.742 1.694v33.95l6.896-6.896a.375.375 0 01.265-.109h27.32c.625 0 1.178-.249 1.689-.762.514-.513.763-1.065.763-1.69V3.868c-.002-.625-.252-1.178-.764-1.689-.513-.512-1.064-.761-1.689-.761H6.2zm0 30.853a.376.376 0 01-.375-.375V3.869c0-.207.168-.375.375-.375h32.03c.207 0 .375.168.375.375v24.494a.375.375 0 01-.375.375H9.889l-3.424 3.424a.378.378 0 01-.265.109zm.375-28.027v26.747l2.894-2.894a.375.375 0 01.265-.109h28.122V4.244H6.575z"/><path d="M14.496 25.943c-.779 0-1.448-.268-1.99-.795-.555-.535-.841-1.217-.852-2.022-.013-.803.255-1.492.796-2.047.539-.554 1.219-.841 2.021-.852.814.022 1.507.269 2.048.799.551.531.838 1.212.851 2.019.009.812-.259 1.499-.797 2.046-.535.554-1.216.842-2.021.853l-.056-.001zm.024-4.966c-.643.009-1.131.213-1.533.625-.402.412-.593.907-.583 1.513.007.608.211 1.097.624 1.495.404.393.884.583 1.468.583v.375l.044-.375c.607-.009 1.096-.213 1.495-.626.401-.407.591-.901.584-1.513-.009-.606-.213-1.095-.624-1.491-.402-.396-.885-.586-1.475-.586zm7.435 4.865c-.786 0-1.458-.269-2-.799-.554-.533-.841-1.215-.852-2.021-.011-.804.256-1.492.795-2.047.542-.554 1.223-.84 2.023-.851h.002c.831 0 1.502.268 2.044.794.552.544.837 1.225.851 2.025.011.804-.256 1.491-.795 2.045-.537.555-1.217.843-2.021.854h-.047zm.016-4.967c-.633.008-1.136.219-1.534.625-.4.411-.591.906-.583 1.513.008.607.212 1.097.624 1.494.404.395.886.586 1.477.586v.375l.038-.375c.606-.009 1.094-.213 1.494-.626.401-.412.592-.906.583-1.512-.01-.604-.215-1.096-.626-1.501-.401-.389-.884-.579-1.473-.579zm7.425 4.862c-.777 0-1.447-.267-1.99-.793-.553-.537-.84-1.218-.854-2.022-.009-.812.26-1.5.799-2.049.54-.554 1.222-.841 2.024-.852h.001c.832 0 1.502.268 2.041.796.554.538.842 1.22.853 2.023.013.802-.256 1.489-.797 2.044-.535.554-1.216.842-2.021.853h-.056zm.028-4.966c-.644.009-1.134.213-1.536.626-.4.408-.592.903-.585 1.515.01.605.215 1.095.626 1.494.403.391.884.581 1.468.581v.375l.045-.375c.607-.009 1.096-.213 1.494-.625.403-.413.594-.907.585-1.511-.009-.606-.213-1.096-.627-1.498-.401-.392-.881-.582-1.47-.582zm.029-1.194c-1.375 0-1.982-2.349-2.623-6.684l-.097-.64c-.341-2.245-.636-4.183.311-5.285.502-.584 1.29-.869 2.409-.869 1.06 0 1.808.276 2.288.843.955 1.129.621 3.125.198 5.651l-.218 1.322c-.554 3.41-.921 5.662-2.268 5.662zm.001-12.727c-.888 0-1.489.199-1.841.608-.723.841-.452 2.622-.138 4.684l.097.643c.267 1.808.893 6.043 1.881 6.043.709 0 1.145-2.673 1.528-5.031l.219-1.327c.375-2.243.699-4.179-.031-5.043-.329-.388-.89-.577-1.715-.577z"/></svg><svg viewBox="0 0 44.125 39.042" id="sp-neiropsiho_uslugi_icon" xmlns="http://www.w3.org/2000/svg"><path d="M12.908 22.929c-1.237 0-2.471-.562-3.475-1.581a1.292 1.292 0 01.008-1.794c.481-.489 1.327-.496 1.818-.015.91.924 2.083 1.06 2.623.38.281-.354.362-.868.227-1.447-.08-.37-.017-.714.169-1.003.187-.288.474-.486.809-.558.675-.149 1.381.308 1.527.985.316 1.361.069 2.646-.697 3.61-.717.905-1.814 1.423-3.009 1.423zm-2.551-3.009a.537.537 0 00-.387.905c.859.872 1.903 1.354 2.938 1.354.965 0 1.848-.415 2.422-1.139.621-.781.817-1.84.553-2.979a.543.543 0 00-.637-.416.53.53 0 00-.411.635c.192.829.061 1.569-.365 2.105-.814 1.024-2.515.927-3.74-.315a.535.535 0 00-.373-.15z"/><path d="M24.74 39.24c-1.215 0-2.321-.487-3.102-1.353-.781.865-1.886 1.353-3.102 1.353-1.302 0-2.578-.544-3.614-1.535-2.396.597-4.26-.497-5.248-3.046-1.164-.19-2.12-.743-2.776-1.609-.789-1.042-1.11-2.497-.917-4.125-.979-.39-1.803-1.211-2.293-2.296-.601-1.331-.608-2.822-.021-4.09.289-.622 1.081-.915 1.707-.625.642.3.921 1.065.625 1.708-.317.686-.243 1.565.19 2.242.301.471.709.741 1.121.741l1.928-.161-.501 1.786c-.39 1.389-.319 2.53.199 3.214.361.477.93.718 1.689.718h.973l.265.937c.543 1.935 1.241 2.195 1.851 2.195.321 0 .689-.085 1.128-.258l.889-.354.593.753c.625.792 1.418 1.245 2.177 1.245 1.082 0 1.781-.905 1.781-2.306v-3.952c-1.744.499-3.608-.028-4.691-1.323-.837-1.001-1.154-2.349-.894-3.795.146-.725.812-1.189 1.519-1.05.695.14 1.148.817 1.012 1.513-.121.668.007 1.271.36 1.693.579.692 1.702.773 2.694.177V14.534c-1.518.635-3.336.082-4.696-1.469a1.276 1.276 0 01-.316-.932c.023-.343.177-.656.436-.882.513-.449 1.366-.394 1.814.12.477.543.991.843 1.446.843.787 0 1.316-.909 1.316-2.261V4.694c0-1.5-.649-2.328-1.737-2.241-1.124.088-1.942 1.032-1.945 2.245l-.001.352c.095.216.13.432.104.643-.32 2.64-1.617 3.786-4.188 3.621a1.274 1.274 0 01-.884-.432 1.285 1.285 0 01.962-2.136c.19.009.292.013.386.013.699 0 .958-.123 1.111-.957h-.12l.027-.068c-1.033-.038-2.027.436-2.747 1.293-.818.974-1.139 2.261-.901 3.624a1.288 1.288 0 01-1.018 1.46c-.13.026-.251.025-.375.011-1.258.28-2.267 1.013-2.773 2.02-.467.928-.46 2.013.021 3.056.164.382.166.732.036 1.05-.13.317-.375.565-.692.697-.631.269-1.412-.047-1.683-.683-.778-1.691-.808-3.5-.079-5.083.729-1.583 2.148-2.803 3.921-3.383-.004-1.802.654-3.477 1.868-4.742 1.251-1.304 2.967-2.003 4.688-1.885.575-1.831 2.179-3.132 4.084-3.279 1.317-.099 2.472.354 3.293 1.265.821-.912 1.978-1.37 3.292-1.265 1.886.146 3.484 1.432 4.074 3.242 2.482-.315 4.86.869 6.202 3.061 1.181 1.928 1.362 4.222.515 6.229 2.726.664 4.656 3.261 4.656 6.365 0 .709-.576 1.287-1.285 1.287s-1.285-.577-1.285-1.287c0-2.261-1.508-3.966-3.509-3.966-.346 0-.703.05-1.063.148a1.28 1.28 0 01-1.619-.93 1.29 1.29 0 01.951-1.551c.055-.015.119-.028.186-.041 1.011-1.332 1.192-3.001.505-4.461-.882-1.874-2.889-2.767-4.875-2.076l-1.704.594-.004-1.806c-.003-1.213-.821-2.156-1.944-2.244-1.079-.09-1.738.739-1.738 2.241v29.682c0 .735.188 1.34.545 1.75.801.92 2.384.61 3.415-.693l.593-.75.889.353c.438.173.806.257 1.126.257.611 0 1.31-.261 1.853-2.193l.267-.938h.972c.76 0 1.329-.242 1.69-.719.518-.684.588-1.824.198-3.213l-.5-1.786 1.847.157c.391-.007.758-.184 1.044-.523.431-.511.626-1.25.51-1.929a1.287 1.287 0 011.063-1.495c.698-.122 1.359.369 1.474 1.062.374 2.2-.814 4.46-2.683 5.207.194 1.628-.127 3.084-.916 4.126-.655.866-1.611 1.419-2.775 1.608-.987 2.55-2.852 3.645-5.247 3.048-1.042.99-2.318 1.534-3.62 1.534zm-3.102-2.6l.306.432c.639.9 1.659 1.418 2.796 1.418 1.165 0 2.314-.521 3.236-1.465l.156-.16.216.062a4.51 4.51 0 001.235.187c1.94 0 2.916-1.589 3.393-2.922l.078-.219.23-.027c1.076-.129 1.915-.582 2.496-1.35.715-.943.974-2.317.73-3.867l-.051-.324.313-.094c1.691-.506 2.796-2.512 2.463-4.471a.535.535 0 00-.528-.452c-.228.029-.352.105-.436.222s-.117.258-.095.398c.156.919-.096 1.868-.674 2.554-.466.553-1.072.839-1.68.788l-.771-.065.209.743c.454 1.62.34 2.994-.323 3.869-.504.664-1.295 1.016-2.288 1.016h-.405l-.111.392c-.33 1.175-.957 2.739-2.574 2.739-.416 0-.875-.102-1.402-.31l-.37-.147-.247.313c-.768.973-1.777 1.531-2.769 1.531a2.349 2.349 0 01-1.8-.811c-.478-.548-.729-1.323-.729-2.242V4.695c0-2.348 1.315-3.083 2.547-2.989 1.522.119 2.632 1.376 2.636 2.99l.002.753.71-.248c2.344-.816 4.758.25 5.8 2.464a4.96 4.96 0 01-.667 5.32l-.084.125-.271.069c-.053.01-.105.02-.158.034a.541.541 0 00-.41.651.543.543 0 00.646.394c.47-.129.894-.188 1.306-.188 2.428 0 4.259 2.027 4.259 4.716 0 .296.24.537.535.537s.535-.241.535-.537c0-2.912-1.895-5.317-4.504-5.72l-.514-.079.236-.462c.956-1.872.852-4.093-.279-5.942-1.24-2.027-3.469-3.07-5.767-2.662l-.345.062-.085-.34C27.954 1.975 26.548.768 24.871.638c-1.216-.096-2.259.388-2.928 1.333l-.306.433-.306-.433c-.668-.945-1.718-1.422-2.929-1.333-1.688.13-3.095 1.345-3.5 3.023l-.079.327-.334-.043c-1.587-.207-3.208.411-4.375 1.627-1.135 1.185-1.722 2.778-1.652 4.486l.012.296-.284.081c-1.691.479-3.048 1.595-3.723 3.06-.636 1.381-.606 2.966.083 4.465a.545.545 0 00.706.295.534.534 0 00.287-.701c-.598-1.297-.601-2.613-.029-3.749.619-1.228 1.839-2.113 3.35-2.43l.064-.013.065.009c.04.005.081.01.122.01.349-.063.536-.329.494-.612-.271-1.552.118-3.096 1.068-4.225 1.003-1.193 2.515-1.771 3.923-1.492h.348l-.008.067.141.028-.191.383c-.178 1.386-.56 2.071-2.262 1.967h-.002c-.315 0-.547.22-.564.501a.535.535 0 00.501.568c2.127.139 3.126-.731 3.397-2.963a.512.512 0 00-.068-.297l-.042-.172.001-.437c.004-1.613 1.113-2.871 2.637-2.991 1.228-.095 2.545.641 2.545 2.989v5.259c0 2.08-1.038 3.011-2.066 3.011-.684 0-1.379-.38-2.01-1.1a.55.55 0 00-.755-.049.533.533 0 00-.051.756c1.295 1.477 3.023 1.869 4.3 1.026l.582-.384V28.04l-.164.111c-1.355.923-3.001.813-3.856-.209-.498-.596-.684-1.418-.522-2.313a.54.54 0 00-.42-.638.543.543 0 00-.628.42c-.227 1.25.033 2.38.725 3.207.985 1.179 2.758 1.571 4.351.933l.515-.207v5.031c0 2.111-1.271 3.056-2.531 3.056-.99 0-1.999-.558-2.766-1.53l-.247-.313-.37.146c-.528.209-.987.311-1.404.311-1.617 0-2.243-1.564-2.573-2.741l-.111-.391h-.405c-.993 0-1.784-.351-2.287-1.015-.663-.875-.778-2.249-.323-3.87l.208-.743-.77.065c-.718.061-1.423-.342-1.896-1.082-.576-.9-.667-2.035-.238-2.96a.54.54 0 00-.261-.714.55.55 0 00-.71.261c-.496 1.07-.487 2.333.024 3.466.451.998 1.227 1.724 2.13 1.992l.314.094-.051.323c-.243 1.551.017 2.924.731 3.867.581.767 1.42 1.222 2.496 1.351l.23.027.078.219c.477 1.332 1.453 2.92 3.393 2.92a4.51 4.51 0 001.236-.187l.215-.062.157.16c.921.944 2.07 1.465 3.235 1.465 1.138 0 2.157-.518 2.796-1.418l.304-.432z"/><path d="M28.175 13.813c-1.262 0-2.288-1.026-2.288-2.288s1.026-2.288 2.288-2.288 2.288 1.026 2.288 2.288-1.026 2.288-2.288 2.288zm0-3.826c-.848 0-1.538.69-1.538 1.538s.69 1.538 1.538 1.538 1.538-.69 1.538-1.538-.691-1.538-1.538-1.538zm.455 20.852c-1.01 0-1.832-.822-1.832-1.832s.822-1.831 1.832-1.831 1.832.821 1.832 1.831-.822 1.832-1.832 1.832zm0-2.913a1.083 1.083 0 10.001 2.165 1.083 1.083 0 00-.001-2.165zm4.917-4.462c-1.01 0-1.832-.822-1.832-1.832s.822-1.831 1.832-1.831 1.832.821 1.832 1.831-.822 1.832-1.832 1.832zm0-2.913a1.083 1.083 0 10.001 2.165 1.083 1.083 0 00-.001-2.165z"/><path d="M31.908 22.007h-9.47a.375.375 0 010-.75h9.47a.375.375 0 010 .75z"/><path d="M27.799 13.437h.75v8.014h-.75zm-.807 15.945H22.62a.375.375 0 010-.75h4.372a.375.375 0 010 .75zm-1.458-2.459a.375.375 0 01-.375-.375v-4.916a.375.375 0 01.75 0v4.916a.375.375 0 01-.375.375zm2.732 7.104a.375.375 0 01-.375-.375v-3.277a.375.375 0 01.75 0v3.277a.375.375 0 01-.375.375zm5.282-13.477a.375.375 0 01-.375-.375v-4.189a.375.375 0 01.75 0v4.189a.375.375 0 01-.375.375zm-8.925-1.821a.375.375 0 01-.375-.375V4.695a.375.375 0 01.75 0v13.659a.375.375 0 01-.375.375z"/></svg><svg viewBox="0 0 44.125 39.042" id="sp-news_sub-menu_icon" xmlns="http://www.w3.org/2000/svg"><path d="M14.425 12.514c.344-1.692.788-3.222 1.318-4.549a22.446 22.446 0 012.023-3.879l.522-.803-.928.235c-2.432.616-4.587 1.669-6.407 3.131-1.819 1.46-3.317 3.353-4.453 5.623l-.271.543h8.134l.062-.301zm-6.971-.45c1.048-1.933 2.381-3.556 3.969-4.831 1.502-1.207 3.248-2.123 5.2-2.729a23.182 23.182 0 00-1.576 3.182c-.516 1.289-.951 2.761-1.295 4.378H7.454zm9.031.75h10.224l-.094-.452a19.137 19.137 0 00-1.805-4.999 20.097 20.097 0 00-2.975-4.264l-.243-.265-.274.232c-1.054.89-1.955 2.072-2.676 3.514-.709 1.421-1.393 3.359-2.033 5.761l-.124.473zm2.829-5.897c.612-1.223 1.356-2.243 2.216-3.036a19.482 19.482 0 012.617 3.832 18.5 18.5 0 011.635 4.351h-8.318c.588-2.135 1.21-3.865 1.85-5.147zm9.487 19.728a34.652 34.652 0 01-1.443 4.636 21.23 21.23 0 01-1.996 3.854l-.584.887 1.012-.322a19.59 19.59 0 006.313-3.365 17.534 17.534 0 004.52-5.422l.298-.554H28.87l-.069.286zm6.846.464a16.766 16.766 0 01-4.017 4.639 18.684 18.684 0 01-5.079 2.891 22.526 22.526 0 001.503-3.079 34.965 34.965 0 001.403-4.45h6.19zm-8.59-12.176h-10.94l-.042.327c-.11.795-.19 1.594-.241 2.394-.033.621-.05 1.242-.049 1.863 0 .675.017 1.326.049 1.955.031.628.11 1.428.241 2.443l.042.326h10.939l.041-.326a32.89 32.89 0 00.241-2.443c.031-.627.05-1.28.05-1.955 0-.646-.019-1.266-.051-1.862-.051-.801-.131-1.6-.24-2.395l-.04-.327zm-.467 6.501a30.203 30.203 0 01-.193 2.058h-9.619a30.178 30.178 0 01-.195-2.059 37.028 37.028 0 010-3.74c.026-.506.092-1.181.195-2.01h9.619c.103.831.168 1.506.194 2.011a35.616 35.616 0 01-.001 3.74zm.721-13.636c.549 1.348 1.035 2.937 1.441 4.724l.066.292h8.065l-.258-.537c-1.071-2.24-2.563-4.134-4.431-5.63-1.865-1.493-4.045-2.562-6.479-3.178l-.953-.242.551.815a20.337 20.337 0 011.998 3.756zm4.418-.565a15.12 15.12 0 013.953 4.831h-6.267c-.401-1.708-.876-3.237-1.409-4.548a21.513 21.513 0 00-1.531-3.054c1.951.61 3.714 1.54 5.254 2.771z"/><path d="M39.55 11.886c-1.005-2.347-2.397-4.422-4.143-6.166-1.751-1.75-3.835-3.137-6.194-4.121C26.854.613 24.279.112 21.563.112s-5.29.5-7.65 1.487c-2.358.984-4.442 2.37-6.194 4.121a19.56 19.56 0 00-4.143 6.166c-1.003 2.348-1.512 4.915-1.512 7.63s.508 5.297 1.511 7.674c1.002 2.376 2.396 4.468 4.144 6.218 1.745 1.745 3.827 3.146 6.19 4.166 2.364 1.02 4.939 1.537 7.654 1.537 2.714 0 5.291-.518 7.654-1.537 2.358-1.018 4.441-2.418 6.191-4.166 1.748-1.753 3.142-3.845 4.143-6.218 1.004-2.375 1.512-4.957 1.512-7.674 0-2.715-.508-5.282-1.513-7.63zm-.691 15.013c-.963 2.283-2.303 4.295-3.981 5.978-1.683 1.682-3.687 3.029-5.958 4.008-2.27.98-4.745 1.478-7.357 1.478s-5.087-.497-7.357-1.478c-2.275-.98-4.279-2.328-5.957-4.006C6.57 31.197 5.23 29.187 4.267 26.9c-.964-2.284-1.453-4.769-1.453-7.383s.488-5.082 1.452-7.335A18.77 18.77 0 018.249 6.25c1.682-1.681 3.685-3.013 5.953-3.959C16.47 1.343 18.947.862 21.563.862c2.617 0 5.093.481 7.361 1.429a18.345 18.345 0 015.953 3.959c1.678 1.676 3.018 3.672 3.982 5.931.965 2.254 1.453 4.722 1.453 7.335.001 2.616-.489 5.101-1.453 7.383z"/><path d="M13.855 23.826a27.298 27.298 0 01-.166-2.285 85.173 85.173 0 01-.023-2.021c0-.791.017-1.494.047-2.109.031-.6.094-1.291.188-2.054l.052-.42H5.599l-.079.27c-.227.78-.384 1.491-.466 2.113-.088.73-.128 1.466-.122 2.201 0 .842.041 1.604.122 2.271.083.67.239 1.404.466 2.184l.079.271h8.303l-.047-.421zm-.915-2.268c.015.586.057 1.234.126 1.934H6.164a13.069 13.069 0 01-.366-1.795 18.23 18.23 0 01-.116-2.179c0-.813.039-1.521.115-2.103.068-.513.191-1.094.366-1.731h6.945a28.915 28.915 0 00-.143 1.687 45.203 45.203 0 00-.048 2.147c0 .671.007 1.351.023 2.04zm24.665-6.356l-.08-.27h-8.291l.033.407c.096 1.109.16 1.958.189 2.545.029.582.047 1.127.047 1.63 0 .696-.023 1.354-.068 1.954-.047.623-.121 1.408-.213 2.359l-.041.412h8.344l.08-.271c.213-.715.369-1.445.465-2.186.082-.66.123-1.425.123-2.27 0-.847-.041-1.587-.123-2.202a14.398 14.398 0 00-.465-2.108zm-.278 6.491a12.832 12.832 0 01-.366 1.799h-6.952c.075-.775.136-1.431.177-1.966.047-.618.069-1.296.069-2.011 0-.516-.017-1.074-.048-1.669a71.045 71.045 0 00-.156-2.164h6.911c.175.636.298 1.217.365 1.731.083.698.122 1.4.116 2.103a18.2 18.2 0 01-.116 2.177zm-21.538 9.635c-.563-1.379-1.04-2.951-1.416-4.672l-.064-.296h-8.1l.296.552c1.229 2.297 2.677 4.129 4.303 5.446 1.621 1.313 3.831 2.452 6.569 3.386l1.036.354-.602-.915a22.682 22.682 0 01-2.022-3.855zm-4.509.448c-1.417-1.149-2.696-2.717-3.809-4.666h6.234c.375 1.647.841 3.161 1.389 4.502a24.163 24.163 0 001.514 3.06c-2.189-.833-3.978-1.803-5.328-2.896zm15.394-5.416H16.501l.107.46c.449 1.93 1.062 3.694 1.821 5.244a16.699 16.699 0 002.862 4.156l.269.283.272-.279a16.274 16.274 0 002.861-4.037c.76-1.499 1.39-3.305 1.873-5.366l.108-.461zm-2.651 5.489a15.696 15.696 0 01-2.458 3.564 16.05 16.05 0 01-2.463-3.681c-.674-1.376-1.23-2.931-1.654-4.624h8.275c-.452 1.813-1.023 3.407-1.7 4.741z"/></svg><svg viewBox="0 0 44.125 39.042" id="sp-psiho_uslugi_icon" xmlns="http://www.w3.org/2000/svg"><path d="M9.759 36.349h-.002a1.715 1.715 0 01-1.333-.635 1.713 1.713 0 01-.354-.84l-.324-2.575-2.438-.887a1.71 1.71 0 01-1.065-1.97c.117-.503.454-.919.924-1.142l2.348-1.104.091-2.591a1.68 1.68 0 011.092-1.52 1.708 1.708 0 011.824.424l1.775 1.892 2.492-.716a1.695 1.695 0 011.784.568c.427.535.489 1.267.158 1.865l-1.249 2.272 1.451 2.149c.383.565.387 1.3.011 1.871a1.68 1.68 0 01-1.723.729l-2.548-.486-1.597 2.046a1.672 1.672 0 01-1.317.65zm-.466-12.622a.933.933 0 00-.938.905l-.107 3.05-2.761 1.298a.936.936 0 00-.514.634.975.975 0 00.591 1.095l2.868 1.043.382 3.028c.022.172.09.334.196.468.176.22.455.352.745.353a.93.93 0 00.729-.36l1.878-2.406 2.998.572a.937.937 0 00.951-1.443l-1.708-2.53 1.47-2.674a.932.932 0 00-.087-1.035.942.942 0 00-.992-.315l-2.931.843-2.089-2.226a.928.928 0 00-.681-.3z"/><path d="M37.415 39.417H6.954a6.094 6.094 0 01-6.087-6.086v-19.99a6.093 6.093 0 016.087-6.086h4.395c.196-3.707 3.273-6.663 7.027-6.663h7.615c3.755 0 6.833 2.956 7.028 6.663h4.396a6.092 6.092 0 016.085 6.086v19.991a6.092 6.092 0 01-6.085 6.085zM6.954 8.005a5.343 5.343 0 00-5.337 5.336v19.991a5.343 5.343 0 005.337 5.336h30.461a5.342 5.342 0 005.335-5.336V13.341a5.342 5.342 0 00-5.335-5.336h-5.136V7.63a6.295 6.295 0 00-6.288-6.288h-7.615a6.295 6.295 0 00-6.287 6.288v.375H6.954zm30.461 29.51H6.954a4.188 4.188 0 01-4.183-4.184V19.78l19.413 4.565 19.412-4.565.002 13.552a4.188 4.188 0 01-4.183 4.183zM3.521 20.727v12.604a3.437 3.437 0 003.433 3.434h30.461a3.439 3.439 0 003.432-3.334l-.001-.1V20.727l-18.662 4.388-.086-.02-18.577-4.368zm18.664 2.433l-.086-.02-19.328-4.544v-5.255a4.188 4.188 0 014.183-4.183h30.461a4.187 4.187 0 014.183 4.183v5.255L22.185 23.16zM3.521 18.002l18.664 4.388 18.663-4.388v-4.661a3.437 3.437 0 00-3.433-3.433H6.954a3.437 3.437 0 00-3.433 3.433v4.661zm27.605-9.997H13.241V7.63a5.14 5.14 0 015.135-5.134h7.615a5.14 5.14 0 015.135 5.134v.375zm-17.119-.75H30.36a4.391 4.391 0 00-4.369-4.009h-7.615a4.39 4.39 0 00-4.369 4.009z"/></svg><svg viewBox="0 0 44.125 39.042" id="sp-repetitor_uslugi_icon" xmlns="http://www.w3.org/2000/svg"><path d="M25.763 38.957l-4.207-9.799-7.932-7.93-9.8-4.208 8.522-8.472a3.293 3.293 0 011.331-.824 3.068 3.068 0 011.56-.082l5.037 1.008.008-.005c3.144-3.144 6.542-5.437 10.102-6.82C33.945.441 37.94-.118 42.261.17l.328.021.021.328c.285 4.318-.263 8.314-1.629 11.877-1.369 3.562-3.655 6.96-6.795 10.101l-.049.048 1.002 5a3.112 3.112 0 01-.081 1.558c-.16.497-.438.944-.825 1.333l-8.47 8.521zM5.141 16.769l8.963 3.877 8.113 8.149 3.798 8.845 7.688-7.733a2.55 2.55 0 00.643-1.032c.12-.38.14-.778.059-1.183l-1.08-5.396.331-.327c3.066-3.067 5.296-6.377 6.627-9.84 1.292-3.371 1.831-7.148 1.601-11.23-4.094-.232-7.858.316-11.227 1.626-3.462 1.345-6.773 3.582-9.841 6.649a.765.765 0 01-.194.142l-.142.14-5.389-1.077a2.313 2.313 0 00-1.182.06 2.52 2.52 0 00-1.031.641l-7.737 7.689zM3.712 38.642l.067-.49c.473-3.438.978-6.064 1.502-7.806.536-1.784 1.244-3.125 2.102-3.984 1.17-1.17 2.617-1.771 4.301-1.789h.001c1.727 0 3.155.586 4.309 1.742 1.171 1.173 1.757 2.622 1.74 4.308-.016 1.683-.617 3.131-1.787 4.302-.86.858-2.191 1.573-3.958 2.126-1.729.537-4.349 1.05-7.787 1.523l-.49.068zm8.035-13.319c-1.556.016-2.792.529-3.833 1.569-.77.771-1.414 2.006-1.915 3.671-.487 1.62-.96 4.041-1.408 7.199 3.156-.449 5.568-.929 7.175-1.429 1.65-.516 2.878-1.168 3.652-1.939 1.04-1.041 1.553-2.277 1.566-3.779.015-1.497-.482-2.73-1.52-3.771-1.023-1.023-2.239-1.521-3.717-1.521zm-4.644 9.883l.082-.512c.255-1.592.562-2.917.914-3.938.366-1.067.778-1.837 1.261-2.354a3.035 3.035 0 012.275-1.041l.064-.001c.877 0 1.652.313 2.305.93.647.688.959 1.483.944 2.383-.02.912-.372 1.68-1.047 2.283-.504.474-1.275.887-2.349 1.257-1.028.352-2.353.657-3.938.911l-.511.082zm4.596-7.471l-.051.376a2.28 2.28 0 00-1.735.797c-.409.438-.779 1.14-1.105 2.092-.299.869-.566 1.977-.796 3.297 1.315-.229 2.422-.495 3.297-.794.957-.33 1.659-.701 2.085-1.101a2.291 2.291 0 00.804-1.745c.012-.705-.225-1.308-.725-1.839a2.488 2.488 0 00-1.774-.709v-.374zm15.006 6.259l-2.481-5.844.316-.158a56.649 56.649 0 003.333-1.808 40.364 40.364 0 003.137-2.036l.471-.339.911 4.501-5.687 5.684zm-1.516-5.49l1.771 4.173 4.616-4.613-.602-2.973a41.08 41.08 0 01-2.724 1.739 54.74 54.74 0 01-3.061 1.674zm-2.263-1.995l-6.654-6.653.108-.236a37.472 37.472 0 012.817-5.107c1.048-1.589 2.082-2.896 3.072-3.887 2.576-2.575 5.252-4.492 7.956-5.699 2.706-1.211 5.807-1.874 9.215-1.971l.396-.011-.011.397c-.096 3.405-.759 6.505-1.971 9.215-1.208 2.706-3.126 5.382-5.701 7.956-.983.985-2.291 2.019-3.884 3.07a37.783 37.783 0 01-5.106 2.817l-.237.109zm-5.755-6.815l5.916 5.916a36.98 36.98 0 004.769-2.651c1.552-1.024 2.819-2.025 3.768-2.976 2.51-2.508 4.376-5.11 5.546-7.731 1.125-2.514 1.761-5.382 1.893-8.531-3.152.132-6.021.768-8.53 1.892-2.619 1.17-5.221 3.035-7.732 5.545-.954.955-1.956 2.223-2.976 3.77a36.307 36.307 0 00-2.654 4.766zm-2.54-1.137l-5.846-2.481 5.686-5.688 4.499.912-.338.471a40.28 40.28 0 00-2.036 3.138 56.05 56.05 0 00-1.807 3.333l-.158.315zm-4.529-2.737l4.174 1.771a56.58 56.58 0 011.673-3.062 41.62 41.62 0 011.74-2.724l-2.972-.602-4.615 4.617zm19.779.739c-1.029 0-1.905-.355-2.604-1.056-.699-.699-1.054-1.575-1.054-2.604 0-1.029.354-1.905 1.055-2.603.698-.7 1.574-1.055 2.604-1.055 1.027 0 1.904.355 2.604 1.055.7.697 1.055 1.573 1.055 2.603 0 1.029-.354 1.906-1.055 2.604-.701.701-1.577 1.056-2.605 1.056zm0-6.567c-.834 0-1.513.273-2.073.835-.563.561-.835 1.239-.835 2.073s.273 1.512.835 2.074c.561.563 1.238.835 2.073.835.833 0 1.512-.273 2.075-.835.562-.561.834-1.239.834-2.074s-.272-1.513-.834-2.072c-.563-.563-1.242-.836-2.075-.836z"/></svg><svg viewBox="0 0 44.125 39.042" id="sp-robototehnica_uslugi_icon" xmlns="http://www.w3.org/2000/svg"><path d="M22.363 39.427l-.28-.008a19.315 19.315 0 01-2.905-.299l-.267-.049-.365-2.616a17.423 17.423 0 01-3.556-1.292l-1.889 1.826-.244-.139a20.185 20.185 0 01-2.473-1.655l-.214-.168.899-2.498a17.276 17.276 0 01-2.442-2.705l-2.517.737-.151-.236a20.181 20.181 0 01-1.443-2.696l-.108-.246 1.962-1.795a17.45 17.45 0 01-.869-3.364l-2.577-.521-.025-.278a19.69 19.69 0 01-.029-3.141l.019-.268 2.578-.679c.147-1.102.399-2.185.752-3.226l-2.043-1.66.105-.257c.404-.99.892-1.958 1.449-2.877l.14-.234 2.595.595a17.094 17.094 0 012.074-2.434L9.494 4.819l.208-.18a19.614 19.614 0 012.632-1.92l.232-.141 2.016 1.727A17.979 17.979 0 0117.5 3.101l.209-2.644.264-.064a19.669 19.669 0 013.215-.5l.274-.02.973 2.455a17.49 17.49 0 013.188.262L27.038.34l.262.064c1.048.26 2.074.601 3.051 1.014l.256.108-.277 2.614a17.373 17.373 0 012.814 1.753l2.304-1.335.203.177a20.485 20.485 0 012.196 2.241l.181.215-1.461 2.192c.681.938 1.27 1.943 1.754 2.995l2.658-.111.097.25c.367.948.664 1.933.882 2.928l.061.274-2.304 1.256c.188 1.196.247 2.418.179 3.64l2.402 1.138-.034.27a20.16 20.16 0 01-.583 2.913l-.075.269-2.624.047a17.57 17.57 0 01-1.61 3.426l1.594 2.111-.157.223a20.71 20.71 0 01-1.847 2.265l-.192.205-2.348-1.192a17.38 17.38 0 01-3.111 2.306l.431 2.604-.248.123a21.97 21.97 0 01-1.317.607 22.23 22.23 0 01-1.362.5l-.263.089-1.532-2.148a17.121 17.121 0 01-3.831.562l-.824 2.494zm-2.784-.998c.722.119 1.476.197 2.248.23l.813-2.468.267-.004a16.36 16.36 0 004.162-.609l.254-.071 1.514 2.122c.352-.121.7-.249 1.052-.393.348-.146.687-.302 1.021-.464l-.428-2.572.23-.128a16.609 16.609 0 003.382-2.507l.192-.185 2.315 1.176c.519-.566.998-1.154 1.432-1.753l-1.575-2.087.14-.219a16.76 16.76 0 001.753-3.733l.083-.253 2.595-.047c.193-.733.346-1.494.453-2.267l-2.372-1.122.019-.256a16.5 16.5 0 00-.196-3.982l-.046-.265 2.276-1.242a19.21 19.21 0 00-.691-2.293l-2.627.11-.104-.233a16.94 16.94 0 00-1.932-3.296l-.159-.212 1.441-2.162a19.82 19.82 0 00-1.733-1.768l-2.276 1.319-.2-.158a16.64 16.64 0 00-3.114-1.938l-.238-.114.272-2.583a19.772 19.772 0 00-2.42-.803L25.986 3.42l-.252-.048a16.352 16.352 0 00-3.543-.29l-.261.007-.961-2.426a18.97 18.97 0 00-2.555.396l-.207 2.61-.245.074c-.594.179-1.154.377-1.665.589-.53.219-1.064.473-1.588.754l-.226.121-1.99-1.705c-.725.456-1.426.967-2.092 1.526l1.033 2.398-.191.18a16.374 16.374 0 00-2.304 2.704l-.144.212-2.563-.586a19.835 19.835 0 00-1.15 2.284l2.02 1.642-.089.25a16.37 16.37 0 00-.833 3.567l-.03.254-2.548.67c-.046.834-.039 1.665.022 2.476l2.546.515.037.263a16.64 16.64 0 00.955 3.702l.092.239-1.94 1.773c.334.729.713 1.438 1.13 2.112l2.488-.729.154.22a16.51 16.51 0 002.67 2.96l.194.169-.888 2.467c.616.468 1.262.9 1.924 1.289l1.869-1.806.239.122a16.655 16.655 0 003.875 1.409l.252.058.358 2.587zm3.085-4.693c-.001 0-.001 0 0 0a13.952 13.952 0 01-12.936-8.654 13.9 13.9 0 01.01-10.708 13.898 13.898 0 017.579-7.564 13.916 13.916 0 015.339-1.064 13.954 13.954 0 0112.937 8.65 13.903 13.903 0 01-.009 10.711 13.899 13.899 0 01-7.581 7.564 13.92 13.92 0 01-5.339 1.065zm-.008-27.241c-1.735 0-3.435.339-5.053 1.007a13.15 13.15 0 00-7.172 7.159 13.147 13.147 0 00-.009 10.133 13.2 13.2 0 0012.241 8.191h.001c1.734 0 3.435-.339 5.052-1.009 3.271-1.35 5.818-3.893 7.175-7.159s1.359-6.866.009-10.137a13.207 13.207 0 00-12.244-8.185zm.009 24.364c-.001 0-.001 0 0 0a11.086 11.086 0 01-10.278-6.873 11.039 11.039 0 01.007-8.507 11.045 11.045 0 016.018-6.01 11.067 11.067 0 014.244-.846c4.518 0 8.551 2.697 10.274 6.871a11.045 11.045 0 01-.006 8.511 11.051 11.051 0 01-6.024 6.011 11.06 11.06 0 01-4.235.843zm-.009-21.486c-1.359 0-2.69.265-3.958.789a10.292 10.292 0 00-5.611 5.604 10.293 10.293 0 00-.006 7.933 10.337 10.337 0 009.583 6.41h.001c1.355 0 2.685-.265 3.948-.787a10.302 10.302 0 005.619-5.605 10.303 10.303 0 00.005-7.937 10.33 10.33 0 00-9.581-6.407z"/></svg><svg viewBox="0 96 960 960" id="sp-schedule_time" xmlns="http://www.w3.org/2000/svg"><path d="M627 769l45-45-159-160V363h-60v225l174 181zM480 976q-82 0-155-31.5t-127.5-86Q143 804 111.5 731T80 576q0-82 31.5-155t86-127.5Q252 239 325 207.5T480 176q82 0 155 31.5t127.5 86Q817 348 848.5 421T880 576q0 82-31.5 155t-86 127.5Q708 913 635 944.5T480 976zm0-400zm0 340q140 0 240-100t100-240q0-140-100-240T480 236q-140 0-240 100T140 576q0 140 100 240t240 100z"/></svg><svg viewBox="0 0 16 16" id="sp-share_abakusstart" xmlns="http://www.w3.org/2000/svg"><path d="M14.6 2.9a2.7 2.7 0 01-4.554 1.963L5.303 7.28a2.702 2.702 0 010 1.44l4.743 2.417a2.7 2.7 0 11-.834 1.708l-5.05-2.575a2.7 2.7 0 110-4.54l5.05-2.575A2.7 2.7 0 1114.6 2.9z"/></svg></svg>