<svg xmlns="http://www.w3.org/2000/svg" width="459.754" height="149.402"><path fill="#0336FF" stroke="#FFF" stroke-width="1.417" stroke-miterlimit="10" d="M90.457 0c6.975 0 13.348 1.393 19.125 4.173 5.775 2.784 10.602 6.5 14.476 11.148l-18.596 12.785c-3.242-4.79-8.03-7.185-14.37-7.185-4.439 0-8.313 1.638-11.623 4.914-3.313 3.274-4.965 7.414-4.965 12.414 0 5.004 1.654 9.141 4.965 12.416 3.311 3.276 7.185 4.913 11.623 4.913 6.34 0 11.128-2.395 14.37-7.185l18.596 12.785c-3.874 4.649-8.7 8.364-14.476 11.146-5.776 2.784-12.15 4.175-19.125 4.175-10.709 0-19.953-3.591-27.736-10.778-7.784-7.186-11.676-16.341-11.676-27.472 0-11.128 3.891-20.288 11.676-27.472C70.504 3.593 79.75 0 90.457 0h0zm47.441 22.189V1.267h54.311v20.922H177.31v53.042h-24.514V22.189h-14.898zm105.77-20.922l29.899 72.801-23.245 2.43-3.909-10.986h-19.971l-3.803 10.986-23.247-2.43 29.903-72.801h14.373zm-7.186 32.44l-5.6 17.222h11.2l-5.6-17.222zm108.302-6.448c0 7.609-2.783 13.843-8.346 18.703-5.565 4.86-13.491 7.29-23.773 7.29v21.979h-23.458V1.267h24.512c9.861 0 17.504 2.449 22.929 7.344 5.426 4.896 8.136 11.112 8.136 18.648zm-32.119-8.24v16.482h3.485c2.185 0 3.944-.702 5.283-2.114 1.337-1.408 2.008-3.449 2.008-6.129 0-2.674-.67-4.717-2.008-6.127-1.339-1.407-3.1-2.113-5.283-2.113l-3.485.001h0zm45.962 3.17V1.267h54.31v20.922h-14.898v53.042h-24.512V22.189h-14.9z"/><path fill="#ff5722" d="M179.09 111.305v7.965h-3.915v-4.252h-12.419v4.252h-3.916v-7.965h1.789a32.643 32.643 0 0 0 2.414-8.101c.46-2.834.692-6.098.692-9.788v-2.023h13.195v19.912h2.16zm-14.445 0h8.371v-16.2h-5.636c-.022 6.346-.934 11.745-2.735 16.2zm30.442 0v3.713h-12.319V91.393h12.016v3.712h-8.101v5.063h7.256v3.577h-7.256v7.56h8.404zm2.43-16.2v-3.712h15.053v3.712H207v19.913h-3.915V95.105h-5.568zm29.867-4.118c3.511 0 6.479 1.215 8.909 3.646l-2.701 2.633c-1.642-1.709-3.712-2.565-6.208-2.565-2.386 0-4.404.812-6.059 2.431-1.653 1.617-2.48 3.646-2.48 6.074 0 2.43.827 4.455 2.48 6.073 1.653 1.621 3.673 2.432 6.059 2.432 2.496 0 4.566-.855 6.208-2.564l2.701 2.634c-2.43 2.429-5.399 3.645-8.909 3.645-3.42 0-6.351-1.178-8.792-3.526-2.441-2.353-3.662-5.25-3.662-8.69s1.221-6.339 3.662-8.689c2.441-2.358 5.372-3.534 8.792-3.534zm16.738 24.031h-3.913V91.393h3.913v23.625zm0-12.014l8.844-12.016 3.104 1.992-7.595 9.988 8.775 10.261-3.206 2.193-9.922-12.418zm32.097-3.883l-14.411 16.302-1.418-.34V91.394h3.915v15.896l14.411-16.302 1.419.339v23.692h-3.916V99.121zm25.008 0l-14.409 16.302-1.42-.34V91.394h3.914v15.896l14.411-16.302 1.418.339v23.692h-3.914V99.121zm-10.935-15.49h2.834c0 .653.192 1.236.574 1.755.382.518.898.775 1.553.775s1.17-.258 1.553-.775a2.875 2.875 0 0 0 .574-1.755h2.834c0 1.484-.471 2.732-1.417 3.745s-2.127 1.519-3.544 1.519-2.599-.506-3.544-1.519c-.945-1.011-1.417-2.26-1.417-3.745zm-80.038 60.032h1.881v5.278h-1.881v-3.565h-13.03V125.72h1.91v17.943h9.21V125.72h1.91v17.943zm14.687 0v1.713h-9.407V125.72h9.126v1.713h-7.217v6.01h6.486v1.712h-6.486v8.508h7.498zm15.163-17.944h1.909v19.655h-1.909v-9.911h-9.351v9.911h-1.91v-19.655h1.91v8.029h9.351v-8.029zm4.914 1.715v-1.713h11.794v1.713h-4.941v17.943h-1.91v-17.943h-4.943zm16.708 9.631v8.312h-1.909V125.72h4.129c1.982 0 3.556.535 4.717 1.602 1.16 1.066 1.742 2.425 1.742 4.07 0 1.647-.582 3.006-1.742 4.072-1.161 1.065-2.734 1.602-4.717 1.602l-2.22-.001zm0-1.713h2.162c1.404 0 2.522-.361 3.354-1.082.832-.722 1.249-1.68 1.249-2.879 0-1.197-.417-2.158-1.249-2.88s-1.95-1.079-3.354-1.079h-2.162v7.92z"/></svg>