<svg xmlns="http://www.w3.org/2000/svg" xml:space="preserve" width="18" height="18"><path d="M17.673 15.616a3.542 3.542 0 0 0-1.289-1.837 16.704 16.704 0 0 0-3.998-1.701 5.221 5.221 0 0 1-.963-.415 1.133 1.133 0 0 1-.43-.771 3.515 3.515 0 0 1 0-.459 9.973 9.973 0 0 0 1.584-5.391 3.17 3.17 0 0 0-2.641-3.621 3.235 3.235 0 0 0-.927-.005 3.167 3.167 0 0 0-3.642 3.627 9.822 9.822 0 0 0 1.822 5.523v.312a1.114 1.114 0 0 1-.43.771c-.306.17-.628.31-.962.416a16.472 16.472 0 0 0-3.999 1.672A3.638 3.638 0 0 0 .51 15.618 7.494 7.494 0 0 0 .184 18h17.813a7.456 7.456 0 0 0-.324-2.384z"/></svg>