<svg xmlns="http://www.w3.org/2000/svg" width="158.434" height="164.458"><g fill="none" stroke="#0F888C" stroke-width="1.5" stroke-linecap="round" stroke-linejoin="round" stroke-miterlimit="10"><path d="M156.602 129.682a340.926 340.926 0 0 0-2.557-2.056c-8.717-6.896-20.647-16.346-17.928-30.95 2.383-12.801 5.266-32.226 2.768-52.992-1.428-11.924-7.068-22.213-16.299-29.754-8.303-6.786-19.088-10.918-30.363-11.642l-.121-.005c-4.987-.319-8.002-.508-11.12-.508-2.102 0-4.228.083-7.085.288-16.667 1.195-31.523 7.22-44.168 17.902C18.8 29.195 9.63 42.006 3.209 57.026l-.696 1.615 1.766.083c7.925.399 14.494 3.226 18.986 8.17 4.66 5.123 6.99 12.261 6.779 20.694a338.767 338.767 0 0 1-5.304-.556c-4.286-.483-7.981-.888-12.284-.888-1.761 0-3.544.063-5.44.199l-1.83.137.807 1.631c3.489 7.053 8.367 12.816 13.086 18.386 1.972 2.339 4.008 4.746 5.905 7.216-2.82 6.676-2.53 14.438.771 19.524 2.879 4.437 7.688 6.413 13.74 5.573 4.012 7.619 11.25 7.955 18.896 8.308 2.108.099 4.28.199 6.499.44 2.496.277 5.047.985 7.742 1.735 3.668 1.022 7.461 2.077 11.377 2.077 1.261 0 2.5-.116 3.67-.341 4.007 1.489 7.775 3.325 11.426 5.108 4.744 2.318 9.646 4.709 15.199 6.414l.186.051h.186c3.168 0 6.602-2.338 9.431-6.396 2.696-3.885 4.759-9.533 3.274-13.376-.689-1.776-2.229-2.912-4.539-4.416 3.349-1.384 6.533-2.931 9.64-4.437 3.362-1.637 6.842-3.32 10.459-4.762 1.829.87 5.644 4.18 7.772 6.225l.771.738.849-.666c.127-.099 3.264-2.553 4.471-4.158l.713-.932-.915-.74zM30.304 100.813c-.701 1.888-1.818 3.44-2.567 4.354l-9.813-9.523c.26-.822.713-2.213 1.219-3.383 4.175.258 8.953 1.07 11.879 1.563.027 0 .06.01.084.017.006.225.026.455.032.707.089 1.472.204 3.49-.834 6.265zM25.27 57.948c-.813-.441-1.598-.928-2.415-1.438-2.446-1.515-4.229-3.361-7.909-3.817 1.635-5.301 4.039-8.799 7.36-12.78.538-.65 1.087-1.315 1.641-1.988 1.809 1.301 2.711 3.462 3.147 5.145 1.211 4.642.4 10.924-1.824 14.878zm54.573 83.642c.69-.529 1.345-1.039 2.415-1.751 1.474-.965 2.924-2.04 4.324-3.073 5.438-4.017 11.067-8.17 20.067-8.17 1.118 0 2.282.058 3.483.189-6.344 6.697-16.393 13.902-30.314 13.902-.471 0-.951-.006-1.424-.021.564-.4 1.008-.746 1.449-1.076zm-23.44-8.916c6.069-3.574 12.943-7.635 17.567-10.592.133-.084.349-.105.511-.105 1.671 0 4.772 1.793 7.498 3.367 1.401.813 2.753 1.59 3.972 2.178-6.745 4.914-17.647 12.317-27.4 12.317-3.508 0-6.635-.981-9.313-2.921 2.13-1.265 4.593-2.717 7.165-4.244zm68.126-26.345c-3.365 10.226-9.846 14.595-21.682 14.595-2.035 0-4.271-.132-6.654-.404-7.379-.834-15.432-4.474-22.102-9.975-5.947-4.919-14.162-14.563-14.289-16.746.613-.544 1.214-1.1 1.821-1.64 3.178-2.863 6.468-5.815 10.333-10.409 3.845-4.567 9.09-13.692 9.316-14.076l.627-1.095-6.573-3.435-.586 1.054c-.049.1-5.278 9.554-10.166 14.788-4.523 4.865-10.018 8.033-14.862 10.828-.892.508-1.752 1.002-2.562 1.484-.181.11-.37.225-.561.336-1.507.918-3.21 1.95-4.972 1.95-.406 0-.776-.047-1.149-.157-1.282-3.424-2.194-7.33-3.073-11.117-1.445-6.209-2.932-12.613-6.117-17.4 4.862-10.399 5.969-24.988-1.234-32.854 8.722-13.073 29.185-21.799 51.338-21.799 23.748 0 41.162 9.88 46.594 26.43 6.259 19.084 1.936 53.292-3.447 69.642zm-71.821-9.418c2.795 6.554 7.091 11.63 11.262 16.556.891 1.059 1.814 2.144 2.716 3.234-.785.547-1.598 1.133-2.442 1.741-7.106 5.103-15.964 11.459-24.895 11.459h0a17.04 17.04 0 0 1-7.046-1.5c-3.727-16.094 9.416-24.658 20.405-31.49zm69.642 32.105c2.396-4.064 4.668-7.929 7.515-14.894 1.472 3.267 3.271 6.024 5.679 8.758-4.438 2.843-9.063 5.087-13.813 7.185.208-.352.415-.71.619-1.049zm-4.608 17.152c0 2.737-2.183 6.151-4.031 6.303-.068.006-.139.006-.217.006-2.037 0-5.685-2.014-10.104-5.553 2.072-1.968 5.553-4.474 6.839-5.375 3.664 1.211 7.513 3.318 7.513 4.619z"/><path d="M111.723 108.678c.021-.371.046-.879.046-1.977v-1.223h-1.233c-12.834 0-23.777-5.26-28.564-13.723l-.75-1.316-1.147.992c-.592.508-.813.67-1.129.891-.396.268-.887.609-2.132 1.663l-.726.608.405.844c4.81 10.137 17.046 16.686 31.171 16.686.981 0 1.971-.025 2.958-.095l1.233-.083-.085-1.232c-.1-1.322-.082-1.557-.047-2.035zM70.369 23.132c-4.002 0-7.275 3.23-7.275 7.207 0 3.97 3.273 7.199 7.275 7.199 4.008 0 7.277-3.229 7.277-7.199 0-3.976-3.269-7.207-7.277-7.207z"/></g><path fill="#0F888C" d="M74.551 31.994c0 2.963-2.42 5.37-5.398 5.37-2.979 0-5.4-2.407-5.4-5.37s2.421-5.37 5.4-5.37c2.978 0 5.398 2.407 5.398 5.37z"/></svg>