<svg xmlns="http://www.w3.org/2000/svg"  width="841.89px" height="595.281px" viewBox="0 0 841.89 595.281">
<title>advantage-2-illustration</title>
<g>
	<polygon fill="#FFDE03" points="423.865,46.466 443.103,85.449 486.125,91.701 454.994,122.044 462.341,164.89 423.865,144.661 
		385.386,164.89 392.734,122.044 361.605,91.701 404.625,85.449 	"/>
	<path fill="#FFDE03" d="M619.423,386.912c33.326,0,60.439-27.114,60.439-60.441v-28.869h-38.305
		c-11.76,0-23.133,3.435-32.877,9.784c-1.088-5.995-2.463-11.913-4.115-17.74l11.553-6.649c13.98-8.072,23.98-21.105,28.16-36.699
		c4.178-15.596,2.035-31.883-6.037-45.865l-14.436-25l-33.172,19.152c-10.188,5.88-18.316,14.543-23.57,24.916
		c-4.166-4.895-8.598-9.596-13.287-14.079l5.559-9.63c8.074-13.981,10.217-30.27,6.039-45.863
		c-4.178-15.596-14.18-28.629-28.162-36.7l-25-14.435l-19.15,33.172c-16.664,28.861-6.738,65.9,22.121,82.563l10.867,6.274
		c35.396,30.028,55.666,73.806,55.666,120.316c0,32.199-9.715,62.556-26.666,87.892c-0.154,0.215-0.32,0.421-0.479,0.639
		l0.037,0.024c-15.201,22.476-36.123,40.94-61.027,53.159c-0.24,0.104-0.482,0.199-0.721,0.307l0.018,0.035
		c-3.469,1.682-7.01,3.244-10.625,4.676v-52.844c31.359-19.56,52.271-54.364,52.271-93.966c0-61.023-49.646-110.67-110.668-110.67
		c-61.024,0-110.67,49.646-110.67,110.67c0,39.607,20.92,74.417,52.287,93.974v52.831c-3.615-1.432-7.154-2.996-10.621-4.676
		l0.012-0.029c-0.199-0.091-0.403-0.169-0.604-0.258c-24.951-12.221-45.913-30.707-61.135-53.213l0.028-0.021
		c-0.125-0.175-0.259-0.341-0.385-0.515c-17.005-25.36-26.752-55.766-26.752-88.017c0-46.511,20.271-90.287,55.667-120.316
		l10.865-6.273c13.981-8.071,23.982-21.105,28.161-36.699c4.179-15.596,2.034-31.883-6.038-45.864L335.52,98.794l-25.001,14.435
		c-28.862,16.664-38.786,53.702-22.123,82.564l5.56,9.629c-4.692,4.484-9.125,9.188-13.291,14.084
		c-5.255-10.375-13.385-19.039-23.573-24.92l-33.171-19.154l-14.435,25c-8.072,13.982-10.217,30.271-6.038,45.865
		c4.179,15.594,14.18,28.627,28.18,36.71l11.541,6.642c-1.654,5.826-3.028,11.746-4.117,17.74
		c-9.745-6.352-21.121-9.787-32.883-9.787h-38.305v28.869c0,33.326,27.113,60.44,60.461,60.44l13.332-0.02
		c1.484,5.926,3.251,11.746,5.286,17.449c-11.624-0.641-23.189,2.063-33.368,7.939l-33.172,19.151l14.435,25.003
		c11.182,19.366,31.532,30.204,52.441,30.204c10.251,0,20.64-2.606,30.142-8.094l11.49-6.655c4.223,4.362,8.657,8.526,13.296,12.473
		c-10.333,5.256-18.962,13.366-24.825,23.522L258.23,541.06l25.002,14.435c9.313,5.378,19.648,8.124,30.122,8.124
		c5.25,0,10.534-0.69,15.741-2.085c15.39-4.124,28.275-13.926,36.381-27.637v46.592l58.393-20.188l58.387,20.188v-46.592
		c8.094,13.702,20.986,23.512,36.381,27.637c5.209,1.396,10.49,2.085,15.742,2.085c10.473,0,20.813-2.747,30.123-8.124
		l25.002-14.435l-19.152-33.174c-5.861-10.153-14.486-18.264-24.814-23.52c4.641-3.945,9.074-8.108,13.297-12.474l11.5,6.663
		c9.494,5.481,19.871,8.085,30.117,8.085c20.904,0,41.264-10.841,52.445-30.207l14.436-25.004l-33.172-19.148
		c-10.176-5.876-21.74-8.579-33.359-7.94c2.035-5.703,3.803-11.523,5.285-17.449L619.423,386.912z M533.359,180.792l-4.146,7.175
		c-6.535-4.096-11.207-10.413-13.215-17.901c-2.104-7.854-1.023-16.06,3.043-23.102l4.143-7.175
		c6.535,4.096,11.207,10.413,13.217,17.902C538.501,165.546,537.421,173.75,533.359,180.792z M324.555,139.789l4.143,7.175
		c4.065,7.042,5.146,15.245,3.041,23.102c-2.008,7.488-6.68,13.806-13.216,17.901l-4.144-7.175
		C306.175,166.582,310.767,148.437,324.555,139.789z M641.56,327.601h8.285c-0.598,16.266-14.014,29.313-30.4,29.313l-8.389-0.013
		c0.045-0.554,0.08-1.107,0.123-1.661h0.002C612.691,339.74,626.035,327.601,641.56,327.601L641.56,327.601z M605.634,220.563
		l7.176-4.144c3.611,6.814,4.5,14.622,2.494,22.111c-2.104,7.854-7.143,14.419-14.166,18.475l-7.234,4.164
		c-0.236-0.504-0.475-1.008-0.713-1.51l0.012-0.004C586.755,245.48,592.218,228.308,605.634,220.563z M343.188,341.041
		c0-44.48,36.188-80.67,80.671-80.67c44.48,0,80.67,36.188,80.67,80.67c0,44.482-36.189,80.672-80.67,80.672
		C379.376,421.712,343.188,385.523,343.188,341.041z M246.61,257.016c-7.042-4.065-12.079-10.63-14.185-18.483
		c-2.007-7.49-1.118-15.298,2.494-22.111l7.176,4.143c13.416,7.746,18.877,24.917,12.434,39.092l0.018,0.008
		c-0.241,0.502-0.479,1.007-0.714,1.511L246.61,257.016z M228.306,356.913c-16.408,0-29.826-13.048-30.422-29.313h8.285
		c15.526,0,28.87,12.142,30.378,27.64l0.009-0.002c0.041,0.555,0.075,1.11,0.123,1.664L228.306,356.913z M262.403,452.578
		c-14.21,8.201-32.354,3.613-41.003-10.175l7.176-4.144c13.178-7.605,30.394-4.021,39.627,8.104
		c0.462,0.685,0.932,1.363,1.403,2.042L262.403,452.578z M321.331,532.554c-7.489,2.009-15.296,1.119-22.112-2.493l4.143-7.175
		c7.6-13.162,24.27-18.66,38.284-12.778c0.763,0.368,1.526,0.737,2.294,1.099l-4.124,7.166
		C335.75,525.413,329.186,530.45,321.331,532.554L321.331,532.554z M423.869,528.561l-28.396,9.814v-90.36
		c9.063,2.406,18.576,3.695,28.386,3.695c9.813,0,19.33-1.291,28.395-3.699v90.363L423.869,528.561z M544.371,522.886l4.143,7.175
		c-6.814,3.612-14.621,4.505-22.113,2.493c-7.854-2.104-14.418-7.142-18.475-14.165l-4.131-7.179
		c0.805-0.377,1.602-0.762,2.398-1.15C520.185,504.256,536.791,509.758,544.371,522.886L544.371,522.886z M619.156,438.261
		l7.174,4.144c-8.648,13.787-26.793,18.379-40.98,10.187l-7.215-4.181c0.502-0.721,1-1.443,1.49-2.172
		C588.878,434.214,606.025,430.68,619.156,438.261L619.156,438.261z"/>
	<path fill="#FFDE03" d="M458.865,360.878h-20v-71.672h-45.001v29.998h15.001v41.674h-20v29.999h70V360.878z"/>
</g>
<path fill="#FFDE03" d="M667.037,125.076C609.535,48.295,519.242,3.068,423.316,3C255.002,3.119,118.654,139.66,118.773,307.972
	c0.064,91.335,41.071,177.563,111.271,235.241l17.417-19c-119.01-96.682-137.691-271.461-41.519-391.124
	C302.428,13.038,477.966-6.067,598.017,90.418c120.053,96.485,139.156,272.022,42.672,392.075
	c-12.561,15.626-26.77,29.851-42.381,42.429l16.107,20.035C741.619,442.49,765.732,256.863,667.037,125.076z"/>
</svg>
