<svg xmlns="http://www.w3.org/2000/svg"  width="841.89px" height="595.281px" viewBox="0 0 841.89 595.281">
<title>advantage-1-illustration</title>
<g>
	<path fill="#FFDE03" d="M643.099,432.491c-2.27-1.856-4.682-3.776-7.182-5.768c-24.408-19.438-57.838-46.06-50.215-87.195
		c6.684-36.071,14.762-90.791,7.764-149.28c-4.023-33.612-19.82-62.602-45.678-83.837c-23.275-19.114-53.484-30.758-85.063-32.788
		l-0.344-0.022c-13.988-0.899-22.43-1.441-31.141-1.441c-5.92,0-11.862,0.246-19.871,0.824
		c-46.694,3.367-88.336,20.332-123.767,50.424c-30.622,26.007-56.321,62.11-74.318,104.407l-1.934,4.546l4.949,0.25
		c22.203,1.122,40.596,9.079,53.195,23.012c13.053,14.435,19.594,34.54,19.015,58.314c-5.367-0.527-10.188-1.065-14.878-1.591
		c-12.008-1.341-22.379-2.499-34.423-2.499c-4.939,0-9.931,0.19-15.258,0.58l-5.118,0.374l2.26,4.59
		c9.784,19.875,23.446,36.111,36.658,51.813c5.53,6.571,11.233,13.352,16.564,20.302c-7.9,18.826-7.102,40.69,2.149,55.008
		c8.077,12.499,21.54,18.068,38.499,15.716c11.239,21.456,31.531,22.402,52.971,23.4c5.892,0.274,11.985,0.559,18.187,1.244
		c6.993,0.773,14.143,2.771,21.712,4.889c10.269,2.87,20.886,5.839,31.851,5.839c3.549,0,7.01-0.319,10.303-0.953
		c11.223,4.188,21.779,9.37,32,14.39c13.299,6.53,27.051,13.283,42.609,18.06l0.498,0.153h0.521c8.879,0,18.512-6.573,26.43-18.035
		c7.559-10.944,13.328-26.838,9.172-37.67c-1.926-5.019-6.242-8.188-12.709-12.453c9.373-3.891,18.309-8.25,26.998-12.49
		c9.434-4.603,19.174-9.354,29.324-13.423c5.131,2.454,15.795,11.795,21.744,17.534l2.176,2.098l2.379-1.863
		c0.371-0.292,9.143-7.189,12.543-11.715l1.988-2.646L643.099,432.491z M289.226,351.181c-1.972,5.333-5.099,9.689-7.213,12.251
		l-27.482-26.822c0.711-2.3,1.994-6.229,3.407-9.535c11.708,0.734,25.087,3.016,33.287,4.412c0.079,0.014,0.156,0.025,0.232,0.039
		c0.021,0.637,0.059,1.299,0.098,1.992C291.79,337.676,292.113,343.371,289.226,351.181z M275.108,230.417
		c-2.286-1.24-4.479-2.609-6.763-4.034c-6.856-4.278-13.918-8.685-24.233-9.961c4.586-14.94,13.394-25.586,22.676-36.806
		c1.517-1.834,3.071-3.711,4.606-5.613c5.077,3.68,7.591,9.757,8.826,14.504C283.619,201.575,281.353,219.275,275.108,230.417z
		 M428.017,466.045c1.939-1.495,3.768-2.907,6.781-4.909c4.129-2.742,8.184-5.755,12.107-8.668
		c15.242-11.321,31.004-23.029,56.23-23.029c3.139,0,6.402,0.183,9.754,0.544c-17.752,18.874-45.918,39.168-84.945,39.168
		c-1.314,0-2.643-0.023-3.977-0.07C425.533,467.962,426.785,466.997,428.017,466.045z M362.352,440.944
		c16.996-10.079,36.258-21.503,49.218-29.834c0.383-0.247,0.987-0.299,1.427-0.299c4.692,0,13.36,5.035,21.006,9.478
		c3.922,2.277,7.711,4.478,11.146,6.144c-18.904,13.821-49.478,34.686-76.792,34.686c-9.814-0.001-18.566-2.762-26.083-8.217
		C348.234,449.317,355.132,445.226,362.352,440.944z M553.24,366.707c-9.441,28.834-27.609,41.136-60.752,41.136
		c-5.709,0-11.98-0.384-18.645-1.14c-20.68-2.348-43.254-12.591-61.934-28.102c-16.685-13.854-39.682-41.041-40.025-47.175
		c1.699-1.558,3.391-3.089,5.087-4.624c8.905-8.055,18.114-16.385,28.942-29.33c10.763-12.868,25.489-38.562,26.11-39.649
		l1.773-3.103l-18.427-9.665l-1.636,2.985c-0.146,0.268-14.807,26.9-28.486,41.668c-12.69,13.7-28.077,22.614-41.652,30.479
		c-2.495,1.443-4.898,2.837-7.177,4.198c-0.508,0.305-1.029,0.622-1.563,0.946c-4.222,2.572-9.007,5.489-13.945,5.488
		c-1.107,0-2.173-0.145-3.228-0.437c-3.581-9.656-6.129-20.668-8.599-31.334c-4.046-17.476-8.225-35.521-17.135-49.021
		c13.625-29.281,16.719-70.373-3.454-92.54c24.443-36.832,81.763-61.412,143.833-61.412c66.545,0,115.355,27.838,130.568,74.468
		C580.433,224.295,568.318,320.651,553.24,366.707z M351.983,340.172c7.824,18.473,19.873,32.78,31.551,46.646
		c2.513,2.983,5.091,6.046,7.611,9.131c-2.19,1.547-4.464,3.187-6.827,4.892c-19.939,14.38-44.752,32.274-69.757,32.274
		c-0.001,0-0.005,0-0.006,0c-6.9-0.001-13.534-1.419-19.743-4.218C284.37,383.561,321.194,359.431,351.983,340.172z
		 M547.128,430.621c6.705-11.445,13.08-22.328,21.045-41.948c4.135,9.197,9.178,16.981,15.932,24.657
		c-12.439,8.039-25.414,14.346-38.713,20.259C545.976,432.587,546.556,431.6,547.128,430.621z M534.228,478.959
		c0,7.701-6.127,17.316-11.307,17.736c-0.197,0.017-0.4,0.022-0.605,0.022c-5.707-0.001-15.926-5.665-28.314-15.646
		c5.793-5.523,15.555-12.585,19.16-15.145C523.437,469.357,534.228,475.299,534.228,478.959z"/>
	<path fill="#FFDE03" d="M517.339,373.33c0.064-1.04,0.152-2.466,0.152-5.552v-3.453h-3.465c-35.959,0-66.637-14.816-80.061-38.666
		l-2.09-3.712l-3.215,2.802c-1.648,1.437-2.285,1.884-3.166,2.502c-1.104,0.772-2.473,1.733-5.97,4.684l-2.027,1.71l1.131,2.396
		c13.493,28.555,47.776,47.006,87.344,47.006c2.742,0,5.527-0.092,8.277-0.271l3.479-0.228l-0.248-3.466
		C517.214,375.355,517.257,374.679,517.339,373.33z"/>
	<path fill="#FFDE03" d="M401.48,132.335c-11.233,0-20.372,9.105-20.372,20.298c0,11.193,9.139,20.299,20.372,20.299
		c11.232,0,20.371-9.106,20.371-20.299C421.851,141.44,412.712,132.335,401.48,132.335z"/>
</g>
<path fill="#FFDE03" d="M610.914,487.65c-49.002,48.822-116.695,79.021-191.469,79.021c-149.552,0-270.788-120.803-270.788-269.82
	s121.236-269.82,270.788-269.82c149.553,0,270.787,120.803,270.787,269.82c0,42.192-9.727,82.118-27.055,117.685l29.654,4.347
	c16.775-37.255,26.113-78.555,26.113-122.031c0-164.819-134.092-298.43-299.501-298.43c-165.41,0-299.5,133.611-299.5,298.43
	c0,164.818,134.09,298.43,299.5,298.43c78.604,0,150.12-30.188,203.55-79.542L610.914,487.65z"/>
</svg>
