<?xml version="1.0" encoding="utf-8"?>
<!-- Generator: Adobe Illustrator 15.1.0, SVG Export Plug-In . SVG Version: 6.00 Build 0)  -->
<svg xmlns="http://www.w3.org/2000/svg"  width="841.89px" height="595.281px" viewBox="0 0 841.89 595.281">
<title>advantage-3-illustration</title>
<g>
	<g>
		<g>
			<path fill="#FFDD00" d="M638.494,319.115L448.858,466.953c-6.935,5.405-16.376,6.299-24.201,2.283l-119.263-61.175
				l-52.043,40.572c-9.839,7.672-24.037,5.911-31.709-3.93c-7.671-9.841-5.912-24.036,3.927-31.709l63.416-49.438
				c6.937-5.406,16.378-6.298,24.202-2.284l119.263,61.176l178.265-138.97c9.842-7.673,24.038-5.913,31.709,3.927
				C650.094,297.247,648.336,311.443,638.494,319.115z"/>
		</g>
		<circle fill="#FFDD00" cx="525.877" cy="475.548" r="39.575"/>
		<circle fill="#FFDD00" cx="624.436" cy="398.713" r="39.574"/>
	</g>
	<path fill="#FFDD00" d="M499.149,267.382l4.923-7.392c-2.249-2.708-4.702-5.199-7.325-7.482l-7.764,4.514
		c-3.368-2.649-6.996-4.9-10.804-6.731l0.921-8.828c-3.299-1.403-6.695-2.524-10.176-3.387l-4.772,7.604
		c-4.031-0.772-8.137-1.118-12.31-1.015l-3.279-8.298c-3.594,0.271-7.161,0.802-10.723,1.667l-0.703,8.937
		c-1.927,0.569-3.866,1.25-5.77,2.035c-1.912,0.788-3.746,1.666-5.508,2.621l-6.807-5.823c-3.131,1.891-6.055,4.046-8.77,6.387
		l3.53,8.19c-3.026,2.864-5.711,6.013-8,9.402l-8.762-2.013c-1.865,3.065-3.48,6.263-4.821,9.585l6.9,5.6
		c-1.43,3.981-2.391,8.144-2.901,12.392l-8.703,2.287c-0.234,3.469-0.22,6.962,0.104,10.472l8.692,1.76
		c0.597,4.309,1.692,8.626,3.314,12.845l-6.626,6.07c1.391,3.158,3.014,6.158,4.812,8.984l8.505-2.479
		c2.701,3.841,5.822,7.271,9.275,10.279l-3.036,8.435c2.616,2.043,5.374,3.894,8.246,5.521l6.378-6.155
		c4.265,2.171,8.793,3.82,13.478,4.876l1.214,8.852c3.19,0.571,6.418,0.903,9.681,1.003l2.789-8.438
		c4.807-0.082,9.657-0.771,14.456-2.129l5.176,7.26c1.525-0.514,3.033-1.05,4.531-1.667c1.516-0.621,2.967-1.31,4.401-2.032
		l-1.448-8.786c4.332-2.429,8.258-5.355,11.736-8.697l7.928,4.005c2.242-2.372,4.295-4.881,6.147-7.537l-5.382-7.131
		c2.569-4.055,4.611-8.42,6.09-12.966l8.884-0.146c0.876-3.175,1.528-6.435,1.938-9.729l-8.111-3.822
		c0.326-4.571,0.114-9.199-0.681-13.838l7.775-4.239c-0.717-3.275-1.693-6.555-2.939-9.76l-8.973,0.374
		C504.051,274.68,501.781,270.842,499.149,267.382z M474.679,329.316c-15.204,11.854-37.131,9.138-48.986-6.071
		c-11.855-15.206-9.139-37.134,6.064-48.986c15.2-11.851,37.136-9.141,48.99,6.066C492.603,295.53,489.881,317.467,474.679,329.316z
		"/>
	<path fill="#FFDD00" d="M566.052,88.71l13.212-0.556c1.83,4.723,3.265,9.539,4.314,14.362l-11.438,6.237
		c1.173,6.818,1.487,13.639,1.003,20.356l11.932,5.627c-0.603,4.852-1.549,9.639-2.855,14.319l-13.046,0.21
		c-2.188,6.689-5.193,13.114-8.968,19.066l7.923,10.494c-2.731,3.914-5.758,7.609-9.055,11.097l-11.657-5.896
		c-5.123,4.924-10.894,9.227-17.28,12.806l2.133,12.932c-2.107,1.05-4.244,2.063-6.475,2.979c-2.197,0.911-4.423,1.704-6.664,2.449
		l-7.618-10.668c-7.063,1.98-14.188,3.006-21.264,3.124l-4.096,12.407c-4.81-0.14-9.559-0.626-14.247-1.472l-1.802-13.021
		c-6.879-1.557-13.539-3.983-19.813-7.176l-9.396,9.06c-4.223-2.396-8.27-5.117-12.122-8.129l4.472-12.405
		c-5.081-4.417-9.675-9.472-13.652-15.131l-12.515,3.658c-2.648-4.162-5.034-8.583-7.075-13.219l9.755-8.931
		c-2.394-6.21-4.005-12.572-4.883-18.901l-12.797-2.597c-0.466-5.163-0.495-10.306-0.147-15.399l12.81-3.376
		c0.746-6.247,2.166-12.367,4.264-18.234l-10.154-8.235c1.978-4.884,4.355-9.581,7.091-14.099l12.896,2.959
		c3.376-4.981,7.318-9.618,11.768-13.833l-5.177-12.061c3.984-3.441,8.281-6.604,12.892-9.396l10.013,8.572
		c2.599-1.404,5.3-2.696,8.099-3.853c2.814-1.167,5.657-2.16,8.496-3.008l1.043-13.136c5.229-1.275,10.484-2.062,15.756-2.443
		l4.84,12.199c6.13-0.162,12.172,0.352,18.104,1.485l7.02-11.186c5.124,1.271,10.125,2.923,14.972,4.977l-1.354,12.993
		c5.605,2.688,10.944,6.013,15.896,9.907l11.431-6.642c3.859,3.357,7.466,7.019,10.783,11.003l-7.254,10.88
		C560.02,76.982,563.358,82.622,566.052,88.71 M462.963,60.685c-34.729,14.352-51.251,54.149-36.904,88.879
		c14.354,34.749,54.155,51.281,88.887,36.93c34.752-14.357,51.276-54.16,36.921-88.911
		C537.517,62.851,497.717,46.326,462.963,60.685 M468.45,73.974c-27.387,11.317-40.425,42.71-29.104,70.103
		c11.327,27.41,42.715,40.441,70.105,29.121c27.413-11.321,40.449-42.712,29.116-70.124C527.26,75.68,495.865,62.647,468.45,73.974"
		/>
	<path fill="#FFDD00" d="M327.467,277.425l7.81-0.332c1.082,2.792,1.933,5.639,2.554,8.489l-6.763,3.685
		c0.695,4.025,0.887,8.052,0.591,12.021l7.047,3.326c-0.352,2.862-0.909,5.689-1.683,8.457l-7.708,0.122
		c-1.292,3.952-3.072,7.753-5.299,11.266l4.675,6.2c-1.604,2.308-3.396,4.492-5.346,6.559l-6.892-3.48
		c-3.021,2.902-6.432,5.449-10.199,7.562l1.251,7.646c-1.238,0.614-2.506,1.215-3.821,1.752c-1.297,0.54-2.61,1.009-3.931,1.447
		l-4.506-6.295c-4.171,1.169-8.378,1.771-12.565,1.847l-2.42,7.329c-2.833-0.085-5.642-0.372-8.416-0.872l-1.058-7.692
		c-4.068-0.923-8.009-2.352-11.707-4.242l-5.545,5.351c-2.494-1.409-4.896-3.013-7.164-4.794l2.644-7.326
		c-3.008-2.61-5.718-5.6-8.067-8.942l-7.39,2.156c-1.564-2.451-2.975-5.066-4.177-7.806l5.757-5.276
		c-1.409-3.675-2.364-7.423-2.878-11.17l-7.567-1.527c-0.271-3.053-0.282-6.087-0.082-9.095l7.563-1.989
		c0.442-3.687,1.28-7.304,2.521-10.772l-6-4.865c1.167-2.887,2.577-5.659,4.188-8.322l7.62,1.745
		c1.987-2.936,4.324-5.683,6.949-8.167l-3.066-7.123c2.354-2.024,4.896-3.906,7.614-5.549l5.918,5.067
		c1.535-0.832,3.126-1.6,4.786-2.277c1.656-0.684,3.339-1.275,5.015-1.778l0.613-7.755c3.102-0.764,6.195-1.224,9.316-1.448
		l2.854,7.206c3.626-0.098,7.195,0.204,10.693,0.879l4.155-6.613c3.029,0.748,5.979,1.725,8.837,2.938l-0.807,7.685
		c3.314,1.583,6.469,3.551,9.399,5.843l6.747-3.916c2.282,1.975,4.412,4.143,6.366,6.5l-4.284,6.421
		C323.907,270.491,325.882,273.832,327.467,277.425 M266.569,260.87c-20.506,8.478-30.266,31.985-21.783,52.496
		c8.476,20.532,31.977,30.296,52.5,21.816c20.518-8.477,30.285-31.99,21.805-52.516C310.618,262.148,287.102,252.387,266.569,260.87
		 M269.824,268.717c-16.181,6.692-23.875,25.23-17.188,41.408c6.683,16.191,25.227,23.884,41.41,17.203
		c16.188-6.691,23.884-25.228,17.188-41.417C304.556,269.728,286.008,262.031,269.824,268.717"/>
	<path fill="#FFDD00" d="M367.914,131.956l9.536-0.401c1.322,3.412,2.354,6.887,3.116,10.366l-8.257,4.504
		c0.851,4.921,1.077,9.848,0.727,14.692l8.612,4.064c-0.437,3.498-1.127,6.956-2.067,10.34l-9.417,0.147
		c-1.583,4.833-3.75,9.468-6.48,13.771l5.723,7.569c-1.974,2.823-4.153,5.491-6.533,8.008l-8.413-4.259
		c-3.698,3.554-7.868,6.662-12.472,9.237l1.543,9.339c-1.53,0.754-3.068,1.489-4.674,2.148c-1.588,0.658-3.195,1.231-4.816,1.771
		l-5.502-7.699c-5.094,1.432-10.236,2.168-15.347,2.257l-2.955,8.953c-3.47-0.098-6.9-0.448-10.286-1.056l-1.293-9.4
		c-4.969-1.123-9.776-2.872-14.309-5.179l-6.773,6.54c-3.052-1.733-5.979-3.696-8.753-5.867l3.228-8.955
		c-3.669-3.189-6.985-6.834-9.854-10.918l-9.033,2.638c-1.916-2.999-3.637-6.192-5.11-9.541l7.037-6.446
		c-1.723-4.484-2.892-9.075-3.519-13.646l-9.236-1.875c-0.335-3.728-0.355-7.44-0.107-11.118l9.244-2.429
		c0.546-4.51,1.563-8.928,3.079-13.165l-7.326-5.946c1.429-3.525,3.144-6.913,5.112-10.173l9.313,2.131
		c2.434-3.592,5.279-6.938,8.495-9.979l-3.733-8.706c2.877-2.485,5.968-4.768,9.303-6.78l7.225,6.187
		c1.88-1.011,3.827-1.949,5.852-2.783c2.023-0.84,4.078-1.557,6.125-2.166l0.753-9.481c3.773-0.921,7.573-1.49,11.378-1.767
		l3.489,8.81c4.423-0.115,8.783,0.255,13.063,1.071l5.067-8.073c3.695,0.919,7.309,2.104,10.807,3.598l-0.97,9.371
		c4.041,1.941,7.9,4.34,11.469,7.154l8.249-4.796c2.792,2.422,5.391,5.068,7.788,7.943l-5.236,7.856
		C363.561,123.491,365.973,127.561,367.914,131.956 M304.592,138.552c-10.254,4.237-15.13,15.988-10.897,26.247
		c4.244,10.261,15.996,15.144,26.251,10.905c10.266-4.242,15.145-15.995,10.904-26.259
		C326.615,139.188,314.863,134.308,304.592,138.552"/>
</g>
<g>
	<path fill="#FFDE03" d="M683.894,344.883l28.27,12.512c3.793-19.012,5.816-38.659,5.816-58.784
		c0-93.545-42.961-177.045-110.217-231.885c-6.789,6.79-13.58,13.58-20.369,20.369c-0.363,0.363-0.742,0.671-1.127,0.934
		c61.93,49.282,101.643,125.287,101.643,210.583C687.909,314.391,686.51,329.845,683.894,344.883z"/>
	<path fill="#FFDE03" d="M610.129,487.717c-48.752,49.31-116.396,79.893-191.219,79.893c-79.054,0-150.113-34.129-199.329-88.423
		l-26.862,15.042c54.839,63.354,135.825,103.448,226.191,103.448c84.577,0,160.924-35.129,215.313-91.568L610.129,487.717z"/>
	<path fill="#FFDE03" d="M237.308,100.203l-20.659-21.828c-59.501,54.649-96.811,133.068-96.811,220.23
		c0,23.39,2.705,46.146,7.788,67.986l30.01-3.81c-5.038-20.564-7.728-42.059-7.728-64.178
		C149.91,220.046,183.599,149.374,237.308,100.203z"/>
</g>
</svg>
