<svg xmlns="http://www.w3.org/2000/svg" width="74.695" height="72.346"><g fill="#0336ff"><path d="M28.575 23.283c2.303 1.998 5.361 3.098 8.61 3.098 5.375 0 10.232-2.824 12.373-7.193 2.163-4.415 2.056-8.929-.302-12.711-2.508-4.021-7.199-6.619-11.951-6.619-.478 0-.964.028-1.446.085-5.282.625-9.561 4.259-11.167 9.481-1.571 5.108-.082 10.419 3.883 13.859zm8.73-21.111c3.911 0 7.925 2.223 9.988 5.53 1.358 2.179 2.493 5.764.188 10.468-1.729 3.528-5.867 5.898-10.296 5.898-2.694 0-5.213-.899-7.094-2.532-3.264-2.832-4.485-7.212-3.188-11.433 1.333-4.334 4.869-7.347 9.229-7.863.381-.045.776-.068 1.173-.068zm-7.284 35.753c2.322.969 4.723 1.972 7.167 2.889l.427.16.422-.174c1.367-.566 2.725-1.141 4.083-1.715 4.233-1.79 8.611-3.641 13.167-5.187l1.212-.412-.531-1.166c-1.169-2.559-4.516-4.305-8.952-4.67-3.774-.309-7.078-.459-10.101-.459-9.887 0-15.736 1.631-17.882 4.987l-.802 1.252 1.412.468c3.581 1.191 7.022 2.627 10.378 4.027zm6.894-8.419c2.96 0 6.202.148 9.911.453 2.677.219 4.988 1.059 6.25 2.259-4.13 1.466-8.057 3.129-11.856 4.737l-.582.245c-1.02.431-2.04.861-3.064 1.287-2.268-.862-4.502-1.795-6.674-2.703-2.841-1.186-5.776-2.411-8.829-3.495 1.74-1.305 5.724-2.783 14.844-2.783z"/><path d="M54.175 50.575c-.002-3.147 1.669-6.64 5.343-6.87l1.085-.069V32.94l-1.531.523c-3.85 1.315-7.538 2.823-11.105 4.282l-.113.046c-3.395 1.386-6.903 2.818-10.508 4.065-3.088-1.155-6.122-2.391-9.056-3.586-4.007-1.633-8.152-3.321-12.433-4.805l-1.536-.534v10.707l1.086.067c3.673.223 5.345 3.708 5.345 6.853 0 3.237-1.653 6.604-5.344 6.829l-1.087.064v6.181l.785.267c3.002 1.018 5.882 2.199 8.931 3.45l1.931.789c.685.279 1.584.7 2.628 1.188 3.174 1.482 6.772 3.162 8.954 3.162h.002l.059-.002c1.216-.016 2.6-.707 3.938-1.375l-.063-.126.098.109c.629-.313 1.223-.609 1.761-.817 1.803-.701 3.529-1.38 5.219-2.043l.192-.076c3.556-1.399 7.232-2.847 11.091-4.271l.757-.278v-6.158l-1.086-.064c-3.687-.227-5.341-3.585-5.343-6.812zm-31.11-.015c0-3.887-1.989-8.163-6.432-9.026v-5.339c3.746 1.351 7.481 2.873 10.783 4.219 3.084 1.256 6.274 2.555 9.51 3.756l.386.143.39-.134c3.861-1.317 7.562-2.829 11.14-4.292 3.049-1.246 6.2-2.534 9.447-3.698v5.346c-4.444.869-6.431 5.153-6.427 9.043.002 3.865 1.991 8.121 6.427 8.981v2.439c-3.483 1.294-6.766 2.585-10.239 3.95l-.142.056c-1.747.688-3.534 1.391-5.403 2.117-.644.25-1.323.589-1.982.917-1.056.528-2.251 1.126-2.944 1.136h-.029c-1.674 0-5.317-1.703-7.978-2.945-1.068-.5-1.991-.932-2.732-1.231l-1.868-.766c-2.701-1.109-5.494-2.256-8.338-3.253v-2.42c4.44-.861 6.431-5.125 6.431-8.999z"/><path d="M65.595 40.114l-1.952-1.854v5.089c-4.753.603-6.392 3.999-6.348 6.743.06 3.622 2.852 7.499 6.913 7.499 1.778 0 3.567-.724 5.318-2.151 1.576-1.285 2.409-2.846 2.477-4.64.15-3.985-3.585-8.008-6.408-10.686zm2.469 13.532c-1.325 1.083-2.622 1.632-3.855 1.632-2.699 0-4.558-2.701-4.6-5.224-.044-2.698 1.91-4.373 5.229-4.481l1.117-.038V43.75c2.516 2.722 3.806 5.125 3.736 6.966-.04 1.113-.573 2.071-1.627 2.93zm-50.665-3.555c.045-2.744-1.593-6.141-6.347-6.743v-5.089l-1.953 1.854c-2.823 2.679-6.558 6.701-6.408 10.686.067 1.794.9 3.355 2.477 4.64 1.75 1.428 3.54 2.151 5.319 2.151 4.06 0 6.852-3.877 6.912-7.499zm-6.912 5.187c-1.233 0-2.531-.549-3.857-1.633-1.053-.857-1.585-1.815-1.627-2.93-.07-1.867 1.186-4.209 3.736-6.966v1.785l1.119.038c3.318.108 5.273 1.783 5.229 4.481-.043 2.523-1.901 5.225-4.6 5.225z"/></g></svg>