<svg xmlns="http://www.w3.org/2000/svg" width="76.166" height="68.959"><path fill="#0336ff" d="M33.851 68.959l-.995-.149a34.312 34.312 0 0 1-4.98-1.136l-.937-.289-.072-4.563a30.418 30.418 0 0 1-5.047-2.555l-3.62 2.73-.812-.603a35.281 35.281 0 0 1-3.936-3.397l-.691-.691 2.067-4.093a30.173 30.173 0 0 1-3.118-4.428l-4.466.735-.438-.914a35.06 35.06 0 0 1-1.933-4.983l-.279-.928 3.737-2.666a30.055 30.055 0 0 1-.667-5.077l-4.309-1.431.031-1.006c.057-1.808.265-3.646.62-5.463l.186-.948 4.55-.621a30.506 30.506 0 0 1 1.663-4.545L7.259 18.67l.483-.873a35.486 35.486 0 0 1 3.114-4.678l.604-.769 4.32 1.566a30.358 30.358 0 0 1 3.414-3.146l-1.282-4.376.824-.551a34.322 34.322 0 0 1 4.971-2.768l.891-.4 3.091 3.377a30.962 30.962 0 0 1 4.406-1.22l.912-4.489.97-.115a34.306 34.306 0 0 1 5.688-.185l.987.049 1.156 4.411a30 30 0 0 1 4.546.939l2.904-3.567.912.348a35.239 35.239 0 0 1 5.078 2.409l.863.5-1.02 4.42a30.3 30.3 0 0 1 3.764 3.043l4.231-1.813.647.723a35.013 35.013 0 0 1 3.331 4.362l.545.845-2.953 3.446a30.372 30.372 0 0 1 2.035 4.696l4.58.363.235.94c.433 1.717.738 3.488.906 5.266l.096 1.008-4.21 1.671a30.241 30.241 0 0 1-.393 5.401l3.881 2.445-.238.947a35.556 35.556 0 0 1-1.627 4.942l-.387.932-4.508-.478a30.528 30.528 0 0 1-3.011 4.787l2.288 3.949-.655.73a34.088 34.088 0 0 1-3.687 3.537l-.774.64-3.771-2.523a30.122 30.122 0 0 1-5.05 2.863l.194 4.557-.945.332c-.646.227-1.502.518-2.405.768a35.28 35.28 0 0 1-2.468.581l-.978.2-2.181-4.004c-1.93.234-3.871.282-5.8.144l-1.932 4.107zm-4.242-3.593c.875.239 1.764.442 2.663.607l1.881-3.989.953.099c2.319.24 4.693.184 7.018-.173l.938-.142 2.118 3.891a27.939 27.939 0 0 0 2.598-.722l-.187-4.426.877-.36a27.379 27.379 0 0 0 6.104-3.463l.767-.576 3.667 2.452a30.654 30.654 0 0 0 1.971-1.891l-2.228-3.845.594-.724a27.616 27.616 0 0 0 3.662-5.828l.407-.871 4.385.464c.331-.876.626-1.775.883-2.688l-3.766-2.374.177-.908a27.41 27.41 0 0 0 .48-6.636l-.047-.963 4.092-1.625a32.853 32.853 0 0 0-.504-2.92l-4.454-.354-.268-.881a27.755 27.755 0 0 0-2.538-5.85l-.479-.829 2.867-3.346a32.345 32.345 0 0 0-1.886-2.461l-4.109 1.76-.645-.65a27.489 27.489 0 0 0-4.759-3.84l-.807-.513.995-4.304a32.93 32.93 0 0 0-2.917-1.381L47.291 8.57l-.879-.285a27.335 27.335 0 0 0-5.804-1.198l-.94-.09-1.121-4.29a31.815 31.815 0 0 0-3.287.105l-.885 4.359-.914.155a28.64 28.64 0 0 0-2.867.635c-.931.259-1.871.573-2.794.934l-.863.337-3.002-3.28a31.826 31.826 0 0 0-2.87 1.601l1.246 4.254-.758.561a27.664 27.664 0 0 0-4.364 4.018l-.608.695-4.19-1.52a32.967 32.967 0 0 0-1.791 2.685l3.06 3.18-.424.852a27.905 27.905 0 0 0-2.106 5.744l-.219.891-4.423.604a31.51 31.51 0 0 0-.354 3.082l4.192 1.392.011.962c.025 2.107.303 4.233.826 6.322l.223.892-3.634 2.593c.313.935.671 1.858 1.07 2.763l4.343-.714.456.853a27.386 27.386 0 0 0 3.827 5.443l.62.688-2.006 3.973a32.36 32.36 0 0 0 2.139 1.85l3.519-2.655.799.538a27.696 27.696 0 0 0 6.141 3.113l.88.315.069 4.439zm8.404-9.84c-9.278 0-17.492-6.253-19.974-15.207a20.59 20.59 0 0 1 1.939-15.749 20.599 20.599 0 0 1 12.511-9.768 20.767 20.767 0 0 1 5.547-.758c9.277 0 17.488 6.25 19.969 15.199 3.055 11.021-3.424 22.471-14.44 25.524a20.764 20.764 0 0 1-5.552.759zm.023-38.781a18.07 18.07 0 0 0-4.826.66 17.924 17.924 0 0 0-10.882 8.496 17.912 17.912 0 0 0-1.687 13.697c2.159 7.788 9.302 13.227 17.371 13.227 1.624 0 3.249-.222 4.831-.66 9.58-2.654 15.214-12.613 12.559-22.2-2.157-7.784-9.298-13.22-17.366-13.22z"/></svg>