<?xml version="1.0" encoding="utf-8"?>
<!-- Generator: Adobe Illustrator 15.1.0, SVG Export Plug-In . SVG Version: 6.00 Build 0)  -->
<!DOCTYPE svg PUBLIC "-//W3C//DTD SVG 1.1//EN" "http://www.w3.org/Graphics/SVG/1.1/DTD/svg11.dtd">
<svg version="1.1" id="Layer_1" xmlns="http://www.w3.org/2000/svg" xmlns:xlink="http://www.w3.org/1999/xlink" x="0px" y="0px"
	 width="63px" height="75.084px" viewBox="0 0 63 75.084" enable-background="new 0 0 63 75.084" xml:space="preserve">
<g>
	<path fill="#0ABCFF" d="M-0.436,66.929c0.001,1.762,1.428,3.188,3.188,3.188h56.625c1.762,0,3.188-1.428,3.188-3.188V61.72h-63
		V66.929z M59.377,67.786H2.752c-0.474,0-0.857-0.383-0.858-0.855v-2.883h58.342v2.883C60.234,67.403,59.852,67.786,59.377,67.786z
		 M59.377,4.582h-2.021c-1.76,0.002-3.186,1.43-3.188,3.188v1.868h-20.93V8.781c-0.002-1.76-1.426-3.186-3.187-3.188h-2.021
		c-1.395,0-2.616,0.93-3.034,2.214c-0.43-1.313-1.651-2.205-3.033-2.214h-2.022c-1.382,0.009-2.604,0.9-3.034,2.213
		c-0.418-1.283-1.639-2.213-3.034-2.213h-2.023c-1.759,0.002-3.184,1.43-3.185,3.188v0.857H7.961V7.77
		C7.96,6.011,6.534,4.583,4.774,4.582H2.752C0.992,4.583-0.435,6.01-0.436,7.77v49.284h8.397V47.13h2.725v0.854
		c0.001,1.76,1.428,3.188,3.188,3.189h2.022c1.396,0,2.617-0.932,3.035-2.217c0.417,1.285,1.637,2.217,3.033,2.217h2.022
		c1.76-0.004,3.186-1.43,3.188-3.189V47.13H54.17v9.924h8.396V7.77C62.564,6.01,61.139,4.583,59.377,4.582z M24.844,44.8v3.186
		c0,0.475-0.384,0.857-0.858,0.859h-2.022c-0.473-0.002-0.856-0.387-0.857-0.859V44.8h-4.353v3.186c0,0.475-0.384,0.857-0.858,0.859
		h-2.022c-0.474,0-0.858-0.385-0.859-0.859V44.8H5.632v9.924H1.894V7.77c0.001-0.473,0.384-0.856,0.858-0.858h2.022
		C5.248,6.914,5.631,7.297,5.632,7.77v4.198h5.364V8.781c0-0.474,0.383-0.857,0.855-0.857h2.023
		c0.473,0.001,0.857,0.384,0.858,0.857v3.188h4.352V8.781c0-0.474,0.385-0.857,0.858-0.857h2.022c0.473,0,0.857,0.385,0.857,0.857
		v3.188h4.352V8.781c0-0.474,0.384-0.857,0.857-0.857h2.022c0.473,0,0.857,0.385,0.857,0.857v3.188h25.587V7.77
		c0-0.473,0.383-0.858,0.855-0.858h2.021c0.475,0,0.857,0.386,0.857,0.858v46.954h-3.738V44.8H24.844L24.844,44.8z"/>
	<path fill="#0ABCFF" d="M37.283,23.861c0.002-0.474,0.387-0.855,0.861-0.855h2.021c0.473,0,0.854,0.385,0.854,0.855v3.188h4.354
		v-3.188c0-0.472,0.385-0.855,0.857-0.855h2.021c0.475,0,0.857,0.385,0.857,0.855v3.188h7.385V13.634H30.911v3.188
		c0,0.474-0.384,0.856-0.857,0.856h-2.023c-0.473,0-0.856-0.383-0.857-0.856v-3.188h-4.352v3.188
		c-0.001,0.474-0.384,0.855-0.857,0.856h-2.022c-0.473,0-0.857-0.383-0.858-0.856v-3.188h-4.352v3.188
		c-0.001,0.474-0.385,0.856-0.858,0.856h-2.024c-0.473,0-0.855-0.384-0.855-0.856v-3.188H5.632v13.415h31.649L37.283,23.861
		L37.283,23.861z M34.953,23.861v0.858H7.961v-8.756h0.705v0.858c0.002,1.758,1.427,3.183,3.185,3.186h2.023
		c1.395,0,2.616-0.93,3.034-2.212c0.431,1.313,1.653,2.202,3.034,2.212h2.022c1.382-0.01,2.603-0.9,3.033-2.213
		c0.431,1.313,1.652,2.203,3.034,2.213h2.022c1.758-0.002,3.184-1.428,3.186-3.186v-0.858h20.93v8.756h-2.727v-0.858
		c-0.002-1.759-1.428-3.185-3.188-3.186h-2.021c-1.381,0.009-2.604,0.898-3.035,2.21c-0.432-1.312-1.65-2.201-3.031-2.21h-2.021
		C36.383,20.677,34.957,22.101,34.953,23.861z M56.498,28.715h-7.385v3.188c-0.002,0.473-0.385,0.855-0.857,0.856h-2.021
		c-0.475,0-0.857-0.384-0.857-0.856v-3.188h-4.354v3.188c0,0.473-0.381,0.855-0.854,0.856h-2.021c-0.475,0-0.859-0.384-0.861-0.856
		v-3.188H5.632v14.417h7.383v-3.189c0-0.475,0.385-0.857,0.859-0.859h2.022c0.474,0.002,0.857,0.387,0.858,0.859v3.189h4.353v-3.189
		c0-0.473,0.384-0.859,0.857-0.859h2.022c0.474,0.002,0.857,0.387,0.858,0.859v3.189h31.654V28.715L56.498,28.715z M18.932,38.97
		c-0.43-1.314-1.652-2.205-3.035-2.214h-2.022c-1.76,0.002-3.187,1.427-3.188,3.187v0.859H7.961v-9.759h26.992v0.859
		c0.002,1.76,1.43,3.188,3.189,3.189h2.021c1.381-0.012,2.602-0.9,3.031-2.212c0.434,1.312,1.654,2.202,3.035,2.212h2.02
		c1.76-0.002,3.188-1.43,3.189-3.189v-0.859h2.729v9.759H27.174v-0.859c-0.001-1.76-1.428-3.185-3.188-3.187h-2.022
		C20.582,36.763,19.36,37.656,18.932,38.97z"/>
</g>
</svg>
