<svg xmlns="http://www.w3.org/2000/svg" xmlns:xlink="http://www.w3.org/1999/xlink" width="132" height="83" viewBox="-15.166 0.492 132 83"><path fill="#00BCD4" d="M-13.425.278a65.779 65.779 0 0 0-1.741 9.583v7.088h.013c0 .134-.013.264-.013.401 0 20.431 9.304 38.689 23.9 50.779 11.453 9.402 26.105 15.049 42.078 15.049a66.239 66.239 0 0 0 22.707-3.988c25.162-9.278 43.099-33.46 43.099-61.838 0-.056.1-3.229.217-6.999a65.6 65.6 0 0 0-1.79-10.074h-128.47z"/><defs><path id="a" d="M-13.034 1.854a66.043 66.043 0 0 0-1.911 15.749c0 36.391 29.5 65.889 65.888 65.889 36.396 0 65.893-29.497 65.893-65.889 0-5.427-.676-10.698-1.912-15.749H-13.034z"/></defs><clipPath id="b"><use xlink:href="#a" overflow="visible"/></clipPath><path clip-path="url(#b)" fill="#E1F5FE" d="M-.25 67.023a21.463 21.463 0 0 1-4.387-15.307 6.995 6.995 0 0 1-3.395-2.378 6.99 6.99 0 0 1 4.963-11.241c-.964-3.187.057-6.777 2.849-8.937a8.262 8.262 0 0 1 7.603-1.323 5.601 5.601 0 0 1 1.304-1.438 5.592 5.592 0 0 1 7.842 1.004c.053.066.097.133.141.201.093-.08.179-.162.277-.236a6.176 6.176 0 0 1 9.779 6.325 6.157 6.157 0 0 1 5.39 2.873 4.887 4.887 0 0 1 7.224 6.118 6.407 6.407 0 0 1 5.894 2.432 6.402 6.402 0 0 1-1.151 8.983 6.378 6.378 0 0 1-3.211 1.292 7.505 7.505 0 0 1 2.373 2.003 7.469 7.469 0 0 1-1.339 10.467c-2.061 1.592-4.689 1.925-6.982 1.147.063 2.163-.861 4.326-2.703 5.751-2.719 2.1-6.491 1.876-8.955-.353-8.364 2.628-17.835-.038-23.516-7.383z"/><path fill="#BEF0FC" d="M21.797 70.227a5.113 5.113 0 0 0 4.841-.319 5.126 5.126 0 0 0 1.602-7.062 5.127 5.127 0 0 0-1.488-1.523c.78-.01 1.57-.226 2.279-.676a4.391 4.391 0 0 0 1.378-6.058 4.403 4.403 0 0 0-3.866-2.047 3.345 3.345 0 0 0-.025-3.525 3.349 3.349 0 0 0-4.507-1.123 4.222 4.222 0 0 0-3.492-2.317 4.227 4.227 0 0 0-.42-3.635 4.237 4.237 0 0 0-5.84-1.325c-.072.039-.137.094-.205.141-.027-.052-.051-.102-.083-.145a3.838 3.838 0 0 0-5.291-1.205 3.861 3.861 0 0 0-.983.897 5.669 5.669 0 0 0-5.282.4 5.68 5.68 0 0 0-2.529 5.923 4.756 4.756 0 0 0-2.627.732 4.748 4.748 0 0 0-1.906 2.35 66.406 66.406 0 0 0 1.606 2.857c.342.178.693.328 1.056.447-.039.383-.044.771-.062 1.156a66.138 66.138 0 0 0 7.725 9.929 66.15 66.15 0 0 0 4.408 4.026 66.31 66.31 0 0 0 9.548 6.531 4.745 4.745 0 0 0 1.94-.678 4.79 4.79 0 0 0 2.223-3.751z"/><path fill="#FFF" d="M57.728 38.134a18.46 18.46 0 0 1 6.115 12.258 5.985 5.985 0 0 1 3.245 1.477 6.013 6.013 0 0 1 .479 8.491 5.986 5.986 0 0 1-2.912 1.793 7.119 7.119 0 0 1-1.003 8.011 7.11 7.11 0 0 1-6.228 2.311 4.67 4.67 0 0 1-.875 1.422 4.811 4.811 0 0 1-6.791.384c-.057-.046-.101-.097-.151-.15-.065.083-.125.168-.195.245a5.313 5.313 0 0 1-7.499.424 5.3 5.3 0 0 1-1.764-4.235 5.283 5.283 0 0 1-5.011-1.584 4.206 4.206 0 0 1-5.822.206 4.192 4.192 0 0 1-1.251-4.24 5.523 5.523 0 0 1-5.366-1.128 5.512 5.512 0 0 1-.437-7.782 5.452 5.452 0 0 1 2.515-1.597 6.392 6.392 0 0 1-2.321-1.323 6.421 6.421 0 0 1-.512-9.062 6.41 6.41 0 0 1 5.723-2.066 6.002 6.002 0 0 1 1.384-5.288c1.966-2.203 5.192-2.607 7.625-1.109 6.663-3.543 15.095-2.775 21.052 2.542z"/><path fill="#FF7043" d="M45.325 23.815c-6.222-1.821-15.147-.12-18.619 2.073-3.028 1.911-5.834 4.059-7.797 8.478 3.692-.268 4.905-1.141 10.465-.568 3.866.4 6.38 1.389 8.26 2.7 1.15-4.53 6.301-10.309 7.691-12.683z"/><path fill="#EC1C24" d="M62.499 44.017c.829 6.429-2.687 14.538-5.391 17.627-2.361 2.687-4.928 5.129-9.596 6.377.844-3.604 1.901-4.67 2.202-10.257.21-3.878-.378-6.517-1.375-8.582 9.42-2.14 11.38-3.696 14.16-5.165zm-27.6-4.792c-.66.535-.917 1.309-.573 1.735l7.553 9.369c.345.426 1.158.341 1.819-.193.662-.531.916-1.31.573-1.742l-7.554-9.367c-.345-.418-1.156-.335-1.818.198z"/><path fill="#FAFAFA" d="M55.125 13.596C73.26.148 93.005 2.932 93.005 2.932c-.01.297-1.926 20.71-19.42 34.712-11.492 9.147-12.823 9.075-17.761 10.973-7.86 3.031-11.116 1.482-15.008-3.385a58.212 58.212 0 0 1-.729-.933l.044-.034a36.703 36.703 0 0 1-.703-.922c-3.709-5-4.458-8.5.476-15.333 3.094-4.283 3.444-5.639 15.221-14.414z"/><path fill="#D9E0E3" d="M39.881 44.066L93.017 3.152c-.117 1.3-2.433 21.003-19.509 34.59-11.512 9.114-12.854 9.045-17.788 10.933-7.876 3.009-11.122 1.444-15-3.428a31.514 31.514 0 0 1-.729-.937l.042-.037a5.932 5.932 0 0 0-.152-.207z"/><path fill="#FFA270" d="M77.206 14.935c-2.886-3.525-6.546-6.31-10.481-7.918 13.429-5.583 26.272-4.043 26.272-4.043-.017.224-2.142 14.233-10.027 24.833-.696-4.509-2.669-9.088-5.764-12.872z"/><path fill="#FF7043" d="M78.841 13.553c-2.758-3.359-6.09-5.812-9.818-7.435C82.167 1.313 93.11 2.837 93.11 2.837c-.005.218-1.093 11.454-8.704 22.92-.759-4.329-2.582-8.566-5.565-12.204z"/><circle fill="#80DEEA" cx="67.682" cy="23.177" r="5.599"/><path fill="#F05A22" d="M93.06 3.041c-.01.225-2.158 14.239-10.063 24.823-.677-4.442-2.6-8.948-5.606-12.703L93.06 3.041z"/><path fill="#EC1C24" d="M93.131 2.849c-.009.218-1.066 11.508-8.695 22.963a26.65 26.65 0 0 0-5.4-12.012L93.131 2.849z"/><path fill="#B4FFFF" d="M63.01 26.459a5.57 5.57 0 0 1-.922-3.085 5.598 5.598 0 0 1 9.771-3.73l-8.849 6.815z"/><path fill="#F05A22" d="M67.685 18.174a5.09 5.09 0 0 1 3.602 1.511 5.087 5.087 0 0 1 1.513 3.604 5.087 5.087 0 0 1-1.513 3.602 5.068 5.068 0 0 1-3.602 1.507 5.107 5.107 0 0 1-3.604-1.507 5.096 5.096 0 0 1-1.502-3.602c0-1.346.538-2.635 1.502-3.604a5.095 5.095 0 0 1 3.604-1.511m0-1.612c-1.717 0-3.443.644-4.73 1.987a6.711 6.711 0 0 0 0 9.518 6.702 6.702 0 0 0 4.73 1.991c1.721 0 3.441-.644 4.735-1.991a6.722 6.722 0 0 0 0-9.518c-1.292-1.339-3.015-1.987-4.735-1.987z"/><path fill="#F6921E" d="M71.404 19.799c-.041-.037-.079-.082-.118-.117a5.075 5.075 0 0 0-3.602-1.51 5.105 5.105 0 0 0-3.604 1.51 5.105 5.105 0 0 0-1.502 3.605c0 .959.269 1.895.783 2.703l-1.289.998a6.716 6.716 0 0 1 .887-8.433c1.285-1.343 3.012-1.988 4.73-1.988 1.722 0 3.442.645 4.735 1.988.086.085.175.179.256.268l-1.276.976z"/><g fill="#FFC107"><path d="M38.957 45.052c-3.942-5.361-7.236-4.208-11.105-2.108C18.1 48.243 13.01 65.477 13.01 65.477l25.947-20.425z"/><path d="M38.957 45.052L13.014 65.477v.002s17.943-.903 25.386-9.136c2.954-3.268 4.842-6.2.557-11.291z"/></g><g fill="#FFF280"><path d="M38.957 45.049c-2.956-4.021-5.427-3.161-8.327-1.579-7.313 3.979-11.13 16.9-11.13 16.9l19.457-15.321z"/><path d="M38.96 45.049L19.501 60.366l-.001.002s13.46-.675 19.042-6.85c2.213-2.453 3.631-4.649.418-8.469z"/></g><path fill="#EC1C24" d="M32.395 50.177c.982.113 7.405.567 14.806-5.798 7.345-6.367 9.588-12.671 9.923-13.728L32.395 50.177z"/><path fill="#FF7043" d="M32.39 50.172c.116-.981 1.167-7.333 9.07-13.056 7.896-5.675 14.546-6.386 15.659-6.472L32.39 50.172z"/></svg>