<svg xmlns="http://www.w3.org/2000/svg" xmlns:xlink="http://www.w3.org/1999/xlink" width="134" height="82"><path fill="#24B7CF" d="M3.732.395a66.199 66.199 0 0 0-1.913 15.773c0 36.452 29.55 66.001 65.997 66.001 36.457 0 66.003-29.55 66.003-66.001A66.22 66.22 0 0 0 131.904.394H3.732z"/><defs><path id="a" d="M3.733.395a66.156 66.156 0 0 0-1.914 15.774c0 36.452 29.55 66.001 65.997 66.001 36.457 0 66.003-29.55 66.003-66.001A66.22 66.22 0 0 0 131.904.395H3.733z"/></defs><clipPath id="b"><use xlink:href="#a" overflow="visible"/></clipPath><path clip-path="url(#b)" fill="#E3F3FB" d="M16.54 65.671a21.493 21.493 0 0 1-4.394-15.334 6.97 6.97 0 0 1-3.4-2.38A7 7 0 0 1 13.72 36.7c-.968-3.193.055-6.791 2.852-8.954a8.276 8.276 0 0 1 7.615-1.325 5.59 5.59 0 0 1 1.307-1.441 5.6 5.6 0 0 1 7.856 1.006c.053.066.096.134.142.204.093-.08.178-.162.276-.237a6.186 6.186 0 0 1 8.674 1.111 6.173 6.173 0 0 1 1.12 5.223 6.169 6.169 0 0 1 5.4 2.881 4.893 4.893 0 0 1 7.235 6.125 6.42 6.42 0 0 1 5.906 2.434 6.414 6.414 0 0 1-1.155 9 6.351 6.351 0 0 1-3.216 1.294 7.506 7.506 0 0 1 2.376 2.008 7.474 7.474 0 0 1-1.342 10.48c-2.063 1.597-4.698 1.931-6.994 1.15a6.989 6.989 0 0 1-2.708 5.76c-2.723 2.104-6.502 1.883-8.968-.35-8.379 2.629-17.869-.041-23.556-7.398z"/><path fill="#EB6F48" d="M60.459 24.759c-5.9-1.73-14.36-.115-17.654 1.963-2.869 1.813-5.531 3.849-7.392 8.042 3.5-.254 4.652-1.086 9.923-.542 3.665.378 6.048 1.319 7.83 2.56 1.092-4.294 5.975-9.775 7.293-12.023z"/><path fill="#E42528" d="M76.743 43.912c.785 6.095-2.55 13.784-5.111 16.711-2.241 2.551-4.672 4.864-9.098 6.048.798-3.419 1.802-4.428 2.084-9.724.201-3.68-.356-6.18-1.301-8.136 8.929-2.032 10.788-3.506 13.426-4.899zM50.574 39.37c-.625.505-.868 1.242-.543 1.644l7.161 8.884c.327.403 1.099.321 1.726-.186.625-.504.869-1.24.543-1.648l-7.163-8.882c-.328-.4-1.097-.317-1.724.188z"/><path fill="#FBFAFA" d="M69.751 15.069c17.196-12.751 35.915-10.11 35.915-10.11-.01.282-1.829 19.637-18.413 32.909-10.896 8.674-12.159 8.608-16.84 10.41-7.453 2.873-10.538 1.401-14.229-3.21a60.234 60.234 0 0 1-.691-.885l.041-.035c-.218-.278-.442-.57-.666-.874-3.517-4.743-4.227-8.059.452-14.538 2.933-4.062 3.266-5.347 14.431-13.667z"/><path fill="#D9E0E3" d="M55.298 43.959l50.38-38.792c-.113 1.231-2.309 19.913-18.496 32.795-10.916 8.642-12.189 8.576-16.866 10.367-7.468 2.853-10.546 1.371-14.223-3.249-.242-.301-.47-.597-.689-.888l.039-.033a3.253 3.253 0 0 0-.145-.2z"/><path fill="#F3A072" d="M90.686 16.337c-2.735-3.34-6.204-5.981-9.939-7.505 12.73-5.294 24.91-3.836 24.91-3.836-.014.213-2.031 13.497-9.508 23.547-.655-4.274-2.526-8.617-5.463-12.206z"/><path fill="#EB6F48" d="M92.235 15.029c-2.613-3.184-5.771-5.512-9.308-7.049 12.462-4.556 22.837-3.112 22.837-3.112-.005.207-1.036 10.857-8.25 21.732-.72-4.104-2.448-8.121-5.279-11.571z"/><circle fill="#8BCFDE" cx="81.657" cy="24.153" r="5.309"/><path fill="#E95C28" d="M105.717 5.062c-.01.213-2.044 13.5-9.541 23.536-.643-4.21-2.464-8.482-5.317-12.045l14.858-11.491z"/><path fill="#E42528" d="M105.782 4.881c-.008.208-1.011 10.909-8.244 21.772a25.289 25.289 0 0 0-5.119-11.391l13.363-10.381z"/><path fill="#BFE3EC" d="M77.227 27.267a5.31 5.31 0 0 1 4.431-8.236c1.574 0 2.986.687 3.958 1.774l-8.389 6.462z"/><path fill="#E95C28" d="M81.659 19.411c1.272 0 2.499.513 3.415 1.431a4.816 4.816 0 0 1 1.434 3.417 4.826 4.826 0 0 1-1.434 3.417 4.817 4.817 0 0 1-3.415 1.427 4.834 4.834 0 0 1-3.416-1.427 4.827 4.827 0 0 1-1.428-3.417c0-1.275.51-2.5 1.428-3.417a4.821 4.821 0 0 1 3.416-1.431m0-1.53c-1.63 0-3.265.612-4.485 1.887a6.367 6.367 0 0 0 0 9.023 6.364 6.364 0 0 0 4.485 1.887c1.631 0 3.263-.611 4.488-1.887a6.367 6.367 0 0 0 0-9.023c-1.225-1.275-2.857-1.887-4.488-1.887z"/><path fill="#F29223" d="M85.185 20.951c-.039-.038-.074-.078-.11-.11a4.816 4.816 0 0 0-3.415-1.431 4.833 4.833 0 0 0-3.416 1.431 4.824 4.824 0 0 0-1.428 3.418c0 .911.259 1.795.744 2.562l-1.222.946a6.362 6.362 0 0 1 .836-7.995c1.221-1.274 2.855-1.886 4.485-1.886 1.631 0 3.263.612 4.488 1.886.083.081.163.168.243.254l-1.205.925z"/><g fill="#FBC013"><path d="M54.421 44.892c-3.738-5.083-6.861-3.992-10.529-1.998-9.244 5.027-14.072 21.364-14.072 21.364l24.601-19.366z"/><path d="M54.421 44.892L29.823 64.258v.003s17.014-.857 24.071-8.663c2.8-3.098 4.59-5.878.527-10.706z"/></g><path d="M54.421 44.891c-2.802-3.814-5.145-2.997-7.895-1.498-6.935 3.769-10.554 16.023-10.554 16.023l18.449-14.525zm.002 0L35.975 59.415l-.001.002s12.761-.643 18.054-6.496c2.098-2.326 3.444-4.41.395-8.03z" fill="#FEF183"/><path fill="#E42528" d="M48.2 49.756c.932.107 7.022.533 14.038-5.498 6.965-6.038 9.09-12.013 9.41-13.017L48.2 49.756z"/><path fill="#EB6F48" d="M48.196 49.748c.111-.931 1.107-6.952 8.6-12.38 7.487-5.378 13.79-6.053 14.846-6.135L48.196 49.748z"/></svg>