<svg fill="none" xmlns="http://www.w3.org/2000/svg" viewBox="0 0 25 25">
<path fill="none" stroke="#D4D4D6" d="M4,0.5h17c1.9,0,3.5,1.6,3.5,3.5v17c0,1.9-1.6,3.5-3.5,3.5H4c-1.9,0-3.5-1.6-3.5-3.5V4
	C0.5,2.1,2.1,0.5,4,0.5z"/>
<path fill="#D4D4D6" d="M13.8,5c-4.2,0-6.4,2.7-6.4,5.6c0,1.4,0.8,3.1,2,3.6c0.3,0.2,0.3,0,0.6-1.2c0-0.1,0-0.2-0.1-0.3
	c-1.7-2-0.3-6.1,3.7-6.1c5.8,0,4.7,8,1,8c-1,0-1.7-0.7-1.4-1.7c0.3-1.1,0.8-2.3,0.8-3.1c0-2-3-1.7-3,1c0,0.8,0.3,1.4,0.3,1.4
	s-1,3.9-1.1,4.6c-0.3,1.2,0,3.2,0.1,3.4c0,0.1,0.1,0.1,0.2,0c0.1-0.1,1.3-1.8,1.6-3c0.1-0.4,0.6-2.2,0.6-2.2
	c0.3,0.6,1.2,1.1,2.2,1.1c2.9,0,5-2.6,5-5.8C19.8,7.3,17.2,5,13.8,5z"/>
</svg>