<svg fill="none" xmlns="http://www.w3.org/2000/svg" viewBox="0 0 25 25">
<path fill="none" stroke="#D4D4D6" d="M4.1,0.8h17c1.9,0,3.5,1.6,3.5,3.5v17c0,1.9-1.6,3.5-3.5,3.5h-17c-1.9,0-3.5-1.6-3.5-3.5v-17
	C0.6,2.3,2.2,0.8,4.1,0.8z"/>
<path fill="none" stroke="#D4D4D6" d="M0.1,0.3"/>
<path fill="#D4D4D6" d="M8.1,14L8.1,14l10.1-6.3c0.5-0.3,0.7,0,0.4,0.3l-8.4,7.5l-0.4,3.8L8.1,14z M20.9,4.8L3.2,11.5
	c-1,0.3-0.9,1.2-0.2,1.5l4.4,1.4l1.7,5.2c0.2,0.6,0.4,0.8,0.7,0.8c0.4,0,0.5-0.1,0.9-0.5c0.4-0.4,1.1-1.1,2.2-2.1l4.6,3.4
	c0.8,0.5,1.5,0.2,1.7-0.8L22.1,6C22.4,4.8,21.7,4.4,20.9,4.8z"/>
</svg>
