<svg xmlns="http://www.w3.org/2000/svg" width="459.754" height="350.074"><path d="M49.533 252.998c8.851 0 16.939 1.766 24.27 5.296 7.329 3.532 13.453 8.247 18.369 14.146l-23.598 16.224c-4.114-6.078-10.189-9.117-18.235-9.117-5.633 0-10.55 2.079-14.75 6.235-4.202 4.155-6.3 9.408-6.3 15.753 0 6.349 2.1 11.599 6.3 15.756 4.201 4.157 9.118 6.234 14.75 6.234 8.045 0 14.121-3.038 18.235-9.117l23.598 16.224c-4.916 5.9-11.04 10.614-18.369 14.146-7.33 3.533-15.419 5.297-24.27 5.297-13.588 0-25.32-4.558-35.197-13.678C4.459 327.28-.48 315.661-.48 301.536c0-14.121 4.937-25.744 14.816-34.861 9.877-9.119 21.611-13.677 35.197-13.677zm60.203 28.157v-26.55h68.918v26.55h-18.906v67.309h-31.107v-67.309h-18.905zm134.219-26.55l37.944 92.383-29.499 3.084-4.961-13.943h-25.342l-4.826 13.943-29.5-3.084 37.946-92.383h18.238zm-9.119 41.165l-7.106 21.856h14.213l-7.107-21.856zm137.435-8.181c0 9.655-3.532 17.566-10.592 23.734-7.063 6.167-17.12 9.251-30.169 9.251v27.89h-29.767v-93.859h31.107c12.514 0 22.211 3.108 29.096 9.319 6.884 6.213 10.325 14.102 10.325 23.665zm-40.761-10.456v20.916h4.425c2.77 0 5.005-.892 6.704-2.683 1.696-1.786 2.549-4.377 2.549-7.777 0-3.394-.852-5.987-2.549-7.776-1.699-1.786-3.935-2.681-6.704-2.681l-4.425.001h0zm58.326 4.022v-26.55h68.918v26.55h-18.905v67.309h-31.105v-67.309h-18.908z" fill="#0336FF" stroke="#FFF" stroke-width="1.417" stroke-miterlimit="10"/><path d="M179.848 188.439v7.965h-3.915v-4.252h-12.419v4.252h-3.916v-7.965h1.789a32.61 32.61 0 0 0 2.414-8.1c.46-2.834.692-6.098.692-9.788v-2.024h13.196v19.912h2.159zm-14.445 0h8.371v-16.2h-5.636c-.023 6.347-.935 11.745-2.735 16.2zm30.442 0v3.713h-12.319v-23.625h12.015v3.712h-8.1v5.063h7.256v3.578h-7.256v7.559h8.404zm2.43-16.2v-3.712h15.052v3.712h-5.569v19.913h-3.915v-19.913h-5.568zm29.867-4.118c3.511 0 6.479 1.215 8.909 3.646l-2.701 2.633c-1.642-1.709-3.712-2.565-6.208-2.565-2.386 0-4.404.811-6.059 2.43-1.653 1.618-2.48 3.646-2.48 6.075s.827 4.455 2.48 6.073c1.654 1.621 3.673 2.431 6.059 2.431 2.496 0 4.566-.855 6.208-2.564l2.701 2.634c-2.43 2.429-5.399 3.644-8.909 3.644-3.42 0-6.351-1.177-8.792-3.526-2.442-2.353-3.662-5.25-3.662-8.69 0-3.441 1.22-6.339 3.662-8.69 2.441-2.354 5.372-3.531 8.792-3.531zm16.738 24.031h-3.913v-23.625h3.913v23.625zm0-12.014l8.844-12.015 3.104 1.992-7.594 9.988 8.775 10.261-3.206 2.193-9.923-12.419zm32.097-3.882l-14.411 16.301-1.418-.339v-23.69h3.915v15.896l14.411-16.302 1.419.339v23.692h-3.916v-15.897zm25.008 0l-14.41 16.301-1.419-.339v-23.69h3.914v15.896l14.411-16.302 1.418.339v23.692h-3.914v-15.897zm-10.935-15.491h2.834c0 .654.192 1.237.574 1.755.382.518.899.776 1.553.776s1.17-.258 1.553-.776a2.876 2.876 0 0 0 .574-1.755h2.834c0 1.485-.471 2.733-1.417 3.745-.946 1.013-2.127 1.519-3.544 1.519s-2.599-.506-3.544-1.519c-.945-1.011-1.417-2.259-1.417-3.745zm-80.038 60.033h1.881v5.278h-1.881v-3.566h-13.03v-19.656h1.91v17.944h9.21v-17.944h1.91v17.944zm14.686 0v1.712h-9.407v-19.656h9.126v1.713H218.2v6.01h6.487v1.712H218.2v8.508h7.499v.001zm15.164-17.945h1.909v19.656h-1.909v-9.912h-9.351v9.912h-1.91v-19.656h1.91v8.03h9.351v-8.03zm4.914 1.715v-1.713h11.794v1.713h-4.942v17.943h-1.91v-17.943h-4.942zm16.708 9.631v8.311h-1.91v-19.656h4.129c1.983 0 3.556.535 4.717 1.602 1.16 1.066 1.742 2.425 1.742 4.07 0 1.648-.582 3.006-1.742 4.072-1.161 1.066-2.734 1.602-4.717 1.602h-2.219zm0-1.713h2.162c1.404 0 2.522-.361 3.354-1.082.832-.722 1.249-1.68 1.249-2.879 0-1.197-.417-2.158-1.249-2.88-.832-.721-1.95-1.079-3.354-1.079h-2.162v7.92z" fill="#FFF"/></svg>