<svg xmlns="http://www.w3.org/2000/svg" width="44.125" height="39.042" fill="#252525">
<g>
	<g>
		<path d="M21.24,39.002c-8.838,0-14.451-6.917-15.245-13.425c-0.764-6.255,2.056-10.121,5.041-14.214l0.47-0.645l0.262,0.089
			c0.803,0.275,1.285,0.901,1.71,1.454c0.501,0.651,0.896,1.165,1.687,1.165c1.147,0,1.304-0.752,1.41-2.6
			c0.041-0.706,0.086-1.507,0.279-2.25c0.982-3.798,4.353-6.693,7.259-7.877l0.184-0.033c0.073,0,0.436,0.024,0.478,0.494
			c1.174,4.141,3.265,7.22,5.349,9.919c0.547,0.708,1.148,1.413,1.73,2.094c2.124,2.485,4.32,5.056,4.795,8.791
			c0.898,7.084-3.454,11.689-4.811,12.932c-2.487,2.281-5.97,3.798-9.313,4.056C22.089,38.986,21.662,39.002,21.24,39.002z
			 M11.772,11.625l-0.131,0.18c-2.895,3.97-5.63,7.72-4.902,13.68c0.755,6.189,6.094,12.767,14.501,12.767
			c0.403,0,0.812-0.016,1.225-0.048c3.183-0.245,6.496-1.688,8.864-3.86c1.289-1.182,5.427-5.558,4.573-12.285
			c-0.446-3.512-2.568-5.995-4.621-8.397c-0.588-0.688-1.196-1.4-1.754-2.124c-2.093-2.711-4.194-5.801-5.426-10.019
			c-2.586,1.156-5.645,3.848-6.522,7.245c-0.174,0.673-0.216,1.401-0.256,2.106c-0.093,1.626-0.19,3.307-2.159,3.307
			c-1.159,0-1.755-0.774-2.281-1.458C12.546,12.281,12.225,11.864,11.772,11.625z M21.139,36.651
			C21.139,36.651,21.139,36.651,21.139,36.651c-3.575-0.001-6.885-1.357-9.321-3.82c-1.974-1.994-3.329-4.763-3.625-7.405
			c-0.584-5.231,1.333-8.033,3.364-10.999l0.343-0.501l0.319,0.361c0.689,0.781,1.801,1.247,2.975,1.247
			c1.531,0,2.761-0.756,3.289-2.022c0.351-0.84,0.348-1.642,0.345-2.418c-0.001-0.461-0.003-0.897,0.071-1.315
			c0.384-2.141,2.242-5.104,4.063-5.714l0.312-0.105l0.145,0.296c1.599,3.277,3.125,6.04,5.381,8.874
			c0.476,0.597,1.001,1.183,1.508,1.749c2.298,2.563,4.674,5.212,4.143,10.399C33.691,32.665,27.026,36.651,21.139,36.651z
			 M11.991,15.119c-1.954,2.86-3.59,5.418-3.054,10.222c0.278,2.48,1.554,5.083,3.413,6.962c2.294,2.319,5.416,3.597,8.788,3.598
			c5.559,0,11.852-3.75,12.564-10.7c0.497-4.857-1.665-7.269-3.955-9.823c-0.515-0.574-1.047-1.167-1.535-1.782
			c-2.226-2.794-3.748-5.51-5.313-8.693c-1.433,0.736-2.947,3.244-3.263,5.007c-0.063,0.351-0.061,0.754-0.06,1.181
			c0.003,0.811,0.006,1.729-0.402,2.709c-0.64,1.531-2.165,2.483-3.981,2.483C13.981,16.283,12.819,15.854,11.991,15.119z"/>
	</g>
	<g>
		<g>
			<path d="M26.073,32.333c-1.009,0-1.893-0.357-2.627-1.062c-0.738-0.707-1.113-1.588-1.113-2.618c0-1.028,0.375-1.909,1.113-2.619
				c0.732-0.704,1.617-1.061,2.627-1.061c1.011,0,1.893,0.361,2.62,1.075c0.741,0.696,1.12,1.574,1.12,2.604
				c0,1.029-0.375,1.91-1.113,2.618C27.966,31.976,27.082,32.333,26.073,32.333z M26.073,25.724c-0.821,0-1.511,0.278-2.107,0.852
				c-0.594,0.57-0.883,1.25-0.883,2.078c0,0.829,0.289,1.508,0.883,2.077c0.599,0.573,1.288,0.853,2.107,0.853
				s1.509-0.279,2.107-0.853c0.594-0.569,0.883-1.249,0.883-2.077c0-0.826-0.291-1.502-0.89-2.063
				C27.578,26.005,26.893,25.724,26.073,25.724z M16.803,32.333c-0.351,0-0.662-0.125-0.899-0.361c-0.24-0.24-0.362-0.543-0.362-0.9
				c0-0.271,0.106-0.55,0.316-0.829l9.061-12.749c0.431-0.606,1.368-0.658,1.892-0.139c0.24,0.241,0.361,0.544,0.361,0.901
				c0,0.272-0.107,0.552-0.318,0.831l-9.06,12.748C17.563,32.161,17.22,32.333,16.803,32.333z M25.912,17.745
				c-0.175,0-0.289,0.055-0.381,0.184l-9.067,12.755c-0.114,0.153-0.172,0.284-0.172,0.388c0,0.157,0.043,0.271,0.142,0.369
				c0.206,0.206,0.579,0.198,0.749-0.04l9.067-12.758c0.115-0.153,0.173-0.284,0.173-0.387c0-0.156-0.045-0.273-0.142-0.37
				C26.185,17.79,26.067,17.745,25.912,17.745z M26.073,30.5c-0.507,0-0.943-0.185-1.297-0.548
				c-0.352-0.359-0.529-0.797-0.529-1.299s0.179-0.938,0.532-1.293c0.695-0.727,1.876-0.733,2.589-0.007
				c0.353,0.36,0.53,0.798,0.53,1.3c0,0.503-0.179,0.94-0.53,1.3C27.014,30.316,26.578,30.5,26.073,30.5z M26.073,27.557
				c-0.3,0-0.547,0.107-0.757,0.327c-0.217,0.218-0.319,0.468-0.319,0.77c0,0.304,0.104,0.558,0.316,0.775
				c0.42,0.432,1.096,0.432,1.519,0c0.213-0.218,0.316-0.471,0.316-0.775c0-0.304-0.104-0.558-0.316-0.775
				C26.62,27.663,26.372,27.557,26.073,27.557z M16.642,24.353c-1.01,0-1.894-0.357-2.627-1.062
				c-0.738-0.707-1.112-1.588-1.112-2.617s0.374-1.91,1.112-2.619c0.735-0.704,1.619-1.061,2.627-1.061
				c1.01,0,1.892,0.361,2.621,1.074c0.742,0.698,1.12,1.576,1.12,2.606c0,1.028-0.375,1.908-1.113,2.617
				C18.537,23.996,17.653,24.353,16.642,24.353z M16.642,17.745c-0.82,0-1.509,0.279-2.108,0.853
				c-0.593,0.569-0.881,1.249-0.881,2.077c0,0.828,0.289,1.508,0.881,2.076c0.598,0.573,1.287,0.853,2.108,0.853
				c0.822,0,1.512-0.279,2.108-0.853c0.594-0.569,0.882-1.249,0.882-2.076c0-0.826-0.291-1.501-0.889-2.065
				C18.146,18.026,17.461,17.745,16.642,17.745z M16.642,22.52c-0.506,0-0.942-0.184-1.295-0.546c-0.352-0.36-0.531-0.798-0.531-1.3
				c0-0.505,0.18-0.94,0.535-1.293c0.693-0.729,1.882-0.731,2.588-0.006c0.351,0.359,0.529,0.796,0.529,1.299s-0.178,0.94-0.529,1.3
				C17.586,22.336,17.15,22.52,16.642,22.52z M16.642,19.578c-0.299,0-0.546,0.107-0.755,0.327
				c-0.218,0.217-0.321,0.466-0.321,0.769c0,0.304,0.104,0.558,0.317,0.775c0.421,0.433,1.101,0.43,1.518,0.001
				c0.213-0.218,0.316-0.472,0.316-0.776s-0.104-0.558-0.316-0.775C17.191,19.683,16.943,19.578,16.642,19.578z"/>
		</g>
	</g>
</g>
</svg>


