<svg xmlns="http://www.w3.org/2000/svg" width="44.125" height="39.042" fill="#252525"><path d="M41.397 34.077V1.986c0-1.08-.878-1.959-1.96-1.959a1.96 1.96 0 0 0-1.958 1.959v4.302h-1.503v-.355a2.306 2.306 0 0 0-2.305-2.304h-.208a2.307 2.307 0 0 0-2.305 2.304v.357h-2.832v-.357a2.307 2.307 0 0 0-2.308-2.304h-.205a2.308 2.308 0 0 0-2.306 2.304v.357h-2.493v-.357a2.307 2.307 0 0 0-2.306-2.304h-.205a2.308 2.308 0 0 0-2.306 2.304v.357H6.315V1.986c0-1.08-.878-1.959-1.958-1.959S2.399.906 2.399 1.986v32.09H0v4.966h43.815v-4.966h-2.418zM31.926 7.056V5.933c0-.848.69-1.538 1.538-1.538h.208c.848 0 1.539.69 1.539 1.538l-.003 2.906c0 .849-.689 1.539-1.536 1.539h-.208a1.54 1.54 0 0 1-1.538-1.539V7.056zm-7.651-1.123c0-.848.69-1.538 1.539-1.538h.205c.851 0 1.541.69 1.541 1.538v2.906a1.54 1.54 0 0 1-1.541 1.539h-.205a1.54 1.54 0 0 1-1.537-1.539V6.966h-.002V5.933zm-7.31 1.033V5.933a1.54 1.54 0 0 1 1.54-1.538h.205c.849 0 1.54.69 1.54 1.538v2.906a1.54 1.54 0 0 1-1.54 1.539h-.205c-.849 0-1.54-.69-1.54-1.539V6.966zm-10.65.766h9.883v1.107a2.309 2.309 0 0 0 2.306 2.306h.205a2.309 2.309 0 0 0 2.306-2.306V7.732h2.495v1.107a2.308 2.308 0 0 0 2.304 2.306h.205a2.31 2.31 0 0 0 2.308-2.306V7.732h2.832v1.107a2.308 2.308 0 0 0 2.305 2.306h.208a2.307 2.307 0 0 0 2.303-2.306V7.732h1.505v9.506H21.706v-.927a2.307 2.307 0 0 0-2.304-2.305h-.207a2.307 2.307 0 0 0-2.304 2.305v.927h-3.375v-.927a2.308 2.308 0 0 0-2.305-2.305h-.206A2.308 2.308 0 0 0 8.7 16.311v.927H6.315V7.732zm14.625 8.579l-.001 2.905a1.54 1.54 0 0 1-1.538 1.538h-.207a1.54 1.54 0 0 1-1.538-1.538v-1.212l.001-1.693c0-.849.69-1.539 1.538-1.539h.207c.848 0 1.538.69 1.538 1.539zm-8.19 0v2.905a1.54 1.54 0 0 1-1.539 1.538h-.206a1.54 1.54 0 0 1-1.539-1.538v-2.905c0-.849.69-1.539 1.539-1.539h.206c.849 0 1.539.69 1.539 1.539zm-6.435 2.372H8.7v.533a2.308 2.308 0 0 0 2.305 2.305h.206a2.308 2.308 0 0 0 2.305-2.305v-.533h3.374v.533a2.307 2.307 0 0 0 2.304 2.305h.207a2.307 2.307 0 0 0 2.304-2.305v-.533h15.772v8.454h-2.211v-.778a2.307 2.307 0 0 0-2.306-2.303h-.205a2.31 2.31 0 0 0-2.308 2.303v.778h-3.373v-.778a2.306 2.306 0 0 0-2.305-2.303h-.206a2.307 2.307 0 0 0-2.306 2.303v.778H6.315v-8.454zM34.5 26.359v2.906a1.54 1.54 0 0 1-1.539 1.541h-.205c-.85 0-1.541-.691-1.541-1.541v-2.906c0-.846.691-1.537 1.541-1.537h.205c.85 0 1.539.691 1.539 1.537zm-8.191 0v2.906c0 .85-.69 1.541-1.538 1.541h-.206a1.541 1.541 0 0 1-1.539-1.541v-2.906c0-.846.69-1.537 1.539-1.537h.206a1.54 1.54 0 0 1 1.538 1.537zM6.315 28.583h15.943v.683a2.309 2.309 0 0 0 2.306 2.307h.206a2.308 2.308 0 0 0 2.305-2.307v-.683h3.373v.683a2.31 2.31 0 0 0 2.308 2.307h.205a2.309 2.309 0 0 0 2.306-2.307v-.683h2.213v5.494H6.315v-5.494zm36.733 9.693H.766v-3.433h2.4V1.986a1.192 1.192 0 0 1 2.382 0v32.857h32.697v-5.859h.006v-2.619h-.008l.002-24.378a1.193 1.193 0 0 1 2.384 0v32.857h2.417v3.432z"/></svg>