<svg xmlns="http://www.w3.org/2000/svg" width="44.125" height="39.042" fill="#252525"><path d="M40.116 38.865H7.054a4.243 4.243 0 0 1-4.236-4.396l-.003-.109V6.719A6.394 6.394 0 0 1 9.202.333h25.761a6.394 6.394 0 0 1 6.387 6.386v22.325a3.82 3.82 0 0 1-2.73 3.654c-.734.395-1.154 1.058-1.19 1.824-.036.763.31 1.457.928 1.876h1.76c.68 0 1.233.554 1.233 1.233s-.555 1.234-1.235 1.234zM3.565 33.984h.033l-.024.406a3.492 3.492 0 0 0 3.48 3.724h33.062a.483.483 0 0 0 0-.965H38.14l-.091-.056a2.853 2.853 0 0 1-1.37-2.606 2.86 2.86 0 0 1 1.621-2.465l.087-.037a3.067 3.067 0 0 0 2.212-2.94V6.719a5.642 5.642 0 0 0-5.637-5.636H9.202a5.643 5.643 0 0 0-5.637 5.636v27.265zm32.994 3.164H7.055a2.524 2.524 0 0 1-2.521-2.521 2.524 2.524 0 0 1 2.521-2.521h29.503l-.327.563a3.961 3.961 0 0 0 0 3.915l.328.564zM7.055 32.856c-.977 0-1.771.794-1.771 1.771s.794 1.771 1.771 1.771h28.25a4.662 4.662 0 0 1 0-3.542H7.055zm-2.521-.739V6.719A4.674 4.674 0 0 1 9.203 2.05h25.762a4.674 4.674 0 0 1 4.668 4.669v22.325a2.096 2.096 0 0 1-2.093 2.095l-30.485-.001c-.695 0-1.365.203-1.937.587l-.584.392zM9.203 2.8a3.923 3.923 0 0 0-3.919 3.919v24.055a4.222 4.222 0 0 1 1.771-.386l30.485.001c.74 0 1.343-.604 1.343-1.345V6.719A3.923 3.923 0 0 0 34.965 2.8H9.203z"/><path d="M26.064 29.478c-.377 0-.711-.142-.992-.422a1.37 1.37 0 0 1-.422-.995c0-.404.145-.747.429-1.017.281-.263.612-.396.985-.396 1.287 0 2.382-.263 3.254-.779.821-.486 1.22-1.015 1.22-1.616 0-.403-.293-.827-.87-1.26-.633-.472-1.513-.847-2.617-1.113l-.65-.156 2.261-2.26.215.065c1.515.458 2.65 1.106 3.376 1.927.74.84 1.115 1.78 1.115 2.795 0 1.682-.772 2.996-2.296 3.906-1.46.877-3.144 1.321-5.008 1.321zm1.798-8.155c.92.274 1.661.628 2.255 1.07.777.582 1.171 1.208 1.171 1.86 0 .877-.534 1.638-1.587 2.261-.989.587-2.213.885-3.637.885a.658.658 0 0 0-.472.192.605.605 0 0 0-.192.47c0 .179.064.326.202.465a.624.624 0 0 0 .462.202c1.726 0 3.28-.408 4.621-1.214 1.3-.776 1.932-1.844 1.932-3.263 0-.839-.304-1.591-.928-2.299-.599-.677-1.546-1.228-2.817-1.639l-1.01 1.01zm-11.063 8.155h-4.964v-4.966L26.238 10.11l4.964 4.964-14.403 14.404zm-4.214-.75h3.904l13.653-13.654-3.903-3.903-13.654 13.652v3.905zm2.515-9.399l-.2-.044c-1.545-.337-2.683-.887-3.38-1.634-.711-.761-1.072-1.57-1.072-2.403 0-.902.336-1.722 1-2.437.649-.699 2.058-1.434 4.304-2.245 1.841-.67 2.561-1.073 2.84-1.293.346-.273.514-.573.514-.917 0-.463-.204-.855-.624-1.198-.438-.358-1.151-.54-2.118-.54-.572 0-1.065.074-1.464.219a2.89 2.89 0 0 0-1.043.675 1.532 1.532 0 0 1-.931.436 1.4 1.4 0 0 1-1.058-.307 1.236 1.236 0 0 1-.537-.969c-.016-.376.104-.71.354-.992.414-.537 1.059-1.001 1.9-1.36.831-.354 1.766-.532 2.78-.532 1.65 0 2.999.406 4.008 1.207 1.037.822 1.563 1.952 1.563 3.359 0 1.046-.37 1.946-1.098 2.673-.701.702-2.008 1.404-3.995 2.146-1.511.563-2.516 1.01-2.987 1.328-.264.178-.58.453-.58.746 0 .212.262.471.739.727.592.317 1.505.626 2.716.917l.651.157-2.282 2.281zm1.264-13.461c1.145 0 2.017.238 2.593.708.597.487.899 1.086.899 1.779 0 .58-.269 1.086-.799 1.506-.477.375-1.474.836-3.049 1.41-2.103.759-3.452 1.449-4.01 2.05-.538.58-.8 1.21-.8 1.927 0 .637.292 1.273.87 1.891.563.603 1.502 1.063 2.793 1.368l1.051-1.048c-.968-.26-1.708-.531-2.251-.822-.752-.405-1.134-.872-1.134-1.388 0-.5.306-.96.91-1.368.528-.355 1.556-.816 3.144-1.409 1.857-.694 3.111-1.358 3.727-1.974.591-.59.878-1.291.878-2.143 0-1.183-.418-2.089-1.279-2.771-.874-.693-2.065-1.045-3.542-1.045-.913 0-1.75.159-2.487.472-.722.308-1.266.694-1.617 1.148a.643.643 0 0 0-.182.483c.004.101.034.251.244.403a.655.655 0 0 0 .424.163c.294-.03.454-.103.579-.227a3.636 3.636 0 0 1 1.315-.849c.484-.175 1.063-.264 1.723-.264zm11.064 9.472l-1.455-1.455.531-.53 1.455 1.455-.531.53zm4.733-1.226l-4.965-4.963 1.825-1.824c.974-.974 2.33-.973 3.302 0l1.663 1.662c.486.486.732 1.042.732 1.651 0 .61-.247 1.165-.733 1.65l-1.824 1.824zm-3.904-4.963l3.904 3.903 1.295-1.294c.345-.345.513-.711.513-1.12 0-.409-.168-.776-.514-1.121l-1.662-1.662c-.691-.691-1.549-.691-2.242 0l-1.294 1.294z"/></svg>