<svg xmlns="http://www.w3.org/2000/svg" width="17.5px" height="14.664px" viewBox="0 0 17.5 14.664">
<path d="M10.023,0.567H7.46c-2.686,0-4.871,2.183-4.871,4.868v2.31c0,1.998,1.144,3.795,2.992,4.528l-0.006,2.241l2.006-1.9h2.443
	c2.686,0,4.87-2.184,4.87-4.869v-2.31C14.895,2.75,12.709,0.567,10.023,0.567z M8.361,2.627c1.297,0.062,2.273,0.447,3.023,1.458
	c0.44,0.592,0.679,1.391,0.701,2.135c0,0.111,0.006,0.22,0,0.331c-0.008,0.122-0.062,0.216-0.199,0.218
	c-0.141,0.002-0.209-0.074-0.219-0.216c-0.036-0.547-0.142-1.081-0.352-1.589c-0.405-0.987-1.181-1.518-2.179-1.774
	c-0.264-0.067-0.53-0.124-0.803-0.146C8.21,3.033,8.098,3.008,8.107,2.844C8.115,2.682,8.208,2.621,8.361,2.627z M9.414,4.221
	c-0.263-0.092-0.53-0.167-0.807-0.207c-0.135-0.021-0.231-0.09-0.206-0.248c0.023-0.148,0.119-0.206,0.262-0.193
	c0.905,0.085,1.611,0.416,2.098,1.2c0.227,0.367,0.362,0.886,0.341,1.276c-0.015,0.276-0.058,0.348-0.215,0.342
	c-0.229-0.006-0.195-0.195-0.214-0.333c-0.026-0.214-0.073-0.423-0.131-0.629C10.377,4.832,10.004,4.427,9.414,4.221z M10.18,5.748
	c-0.008,0.077-0.009,0.129-0.021,0.18c-0.024,0.1-0.085,0.162-0.195,0.164c-0.11,0.001-0.171-0.063-0.2-0.161
	C9.743,5.866,9.739,5.793,9.726,5.726C9.654,5.362,9.446,5.122,9.084,5.025C9.039,5.012,8.993,5.006,8.949,4.994
	C8.834,4.961,8.692,4.96,8.688,4.792C8.683,4.654,8.788,4.572,8.978,4.56c0.13-0.008,0.329,0.056,0.446,0.112
	C9.898,4.905,10.123,5.231,10.18,5.748z M12.087,9.591c-0.252,0.568-0.682,0.944-1.284,1.114c-0.218,0.062-0.428,0.008-0.629-0.076
	C7.43,9.461,5.447,7.534,4.326,4.752C4.244,4.552,4.197,4.342,4.205,4.15c0-0.717,0.63-1.378,1.319-1.417
	c0.19-0.01,0.355,0.054,0.492,0.182C6.5,3.37,6.89,3.896,7.174,4.495C7.33,4.82,7.265,5.05,6.987,5.282
	C6.941,5.321,6.893,5.353,6.846,5.388c-0.37,0.27-0.452,0.545-0.275,0.971c0.29,0.698,0.761,1.246,1.396,1.651
	c0.24,0.152,0.485,0.297,0.762,0.378c0.254,0.074,0.457-0.005,0.619-0.205C9.367,8.16,9.384,8.137,9.401,8.113
	c0.353-0.49,0.731-0.576,1.246-0.257c0.438,0.272,0.854,0.584,1.248,0.921C12.16,9.003,12.228,9.271,12.087,9.591z"/>
</svg>
