<svg xmlns="http://www.w3.org/2000/svg" width="21" height="20.5"  fill="#03F" viewBox="11.833 12.333 21 20.5"><path d="M19.855 18.246c.293-.168.656-.195.945.016l5.625 3.438a.944.944 0 0 1 .449.801.944.944 0 0 1-.449.801L20.8 26.74a.93.93 0 0 1-.945.016.93.93 0 0 1-.48-.816v-6.91c0-.307.184-.62.48-.784zM32.5 22.5c0 5.523-4.477 10-10 10s-10-4.477-10-10 4.477-10 10-10 10 4.477 10 10zm-10-8.125a8.123 8.123 0 0 0-8.125 8.125c0 4.488 3.637 8.125 8.125 8.125s8.125-3.637 8.125-8.125-3.637-8.125-8.125-8.125z"/></svg>