<svg xmlns="http://www.w3.org/2000/svg" width="51px" height="51.667px" viewBox="0 0 51 51.667">
<path d="M24.571,11.892c-6.587,0-11.947,5.36-11.947,11.947c0,2.147,0.572,4.238,1.657,6.073l-1.613,5.831l5.83-1.613
	c1.836,1.086,3.927,1.656,6.073,1.656c6.588,0,11.948-5.359,11.948-11.947C36.52,17.252,31.159,11.892,24.571,11.892z
	 M30.055,29.427H19.089c-0.553,0-1.001-0.513-1.001-1.145s0.448-1.145,1.001-1.145h10.966c0.553,0,1.001,0.513,1.001,1.145
	S30.607,29.427,30.055,29.427z M30.055,25.187H19.089c-0.553,0-1.001-0.513-1.001-1.145c0-0.633,0.448-1.145,1.001-1.145h10.966
	c0.553,0,1.001,0.512,1.001,1.145C31.056,24.674,30.607,25.187,30.055,25.187z M30.055,20.946H19.089
	c-0.553,0-1.001-0.512-1.001-1.144s0.448-1.145,1.001-1.145h10.966c0.553,0,1.001,0.513,1.001,1.145S30.607,20.946,30.055,20.946z"
	/>
<path d="M36.447,0H12.552c-2.25,0-4.073,1.823-4.073,4.073v43.854c0,2.249,1.823,4.073,4.073,4.073h23.895
	c2.25,0,4.073-1.824,4.073-4.073V4.073C40.521,1.823,38.697,0,36.447,0z M22.192,1.765h4.615c0.487,0,0.883,0.395,0.883,0.882
	c0,0.487-0.396,0.882-0.883,0.882h-4.615c-0.487,0-0.883-0.395-0.883-0.882C21.31,2.16,21.705,1.765,22.192,1.765z M13.52,1.561
	c0.6,0,1.086,0.486,1.086,1.086c0,0.6-0.486,1.086-1.086,1.086s-1.086-0.486-1.086-1.086C12.434,2.047,12.919,1.561,13.52,1.561z
	 M24.5,50.506c-1.35,0-2.443-1.095-2.443-2.443c0-1.351,1.094-2.444,2.443-2.444s2.443,1.094,2.443,2.444
	C26.943,49.412,25.85,50.506,24.5,50.506z M38.552,42.338c0,0.837-0.799,1.516-1.786,1.516H12.234c-0.987,0-1.786-0.679-1.786-1.516
	V6.675c0-0.837,0.799-1.516,1.786-1.516h24.532c0.987,0,1.786,0.679,1.786,1.516V42.338z"/>
</svg>
