<svg xmlns="http://www.w3.org/2000/svg" width="51px" height="51.667px" viewBox="0 0 51 51.667">
<g>
	<path d="M25.046,12.519c-6.644,0-12.049,5.405-12.049,12.049c0,2.167,0.577,4.274,1.671,6.125l-1.626,5.879l5.88-1.626
		c1.852,1.095,3.959,1.672,6.124,1.672c6.646,0,12.051-5.406,12.051-12.05S31.691,12.519,25.046,12.519z"/>
	<path d="M36.862,0.333H12.966c-2.25,0-4.074,1.823-4.074,4.073V48.26c0,2.249,1.824,4.073,4.074,4.073h23.896
		c2.249,0,4.072-1.824,4.072-4.073V4.407C40.935,2.157,39.111,0.333,36.862,0.333z M22.605,2.099h4.617
		c0.486,0,0.883,0.395,0.883,0.882s-0.396,0.882-0.883,0.882h-4.617c-0.487,0-0.882-0.395-0.882-0.882S22.118,2.099,22.605,2.099z
		 M13.933,1.895c0.6,0,1.086,0.486,1.086,1.086c0,0.601-0.486,1.086-1.086,1.086c-0.599,0-1.086-0.485-1.086-1.086
		C12.847,2.381,13.334,1.895,13.933,1.895z M24.914,50.839c-1.35,0-2.443-1.094-2.443-2.443s1.094-2.444,2.443-2.444
		s2.443,1.095,2.443,2.444S26.264,50.839,24.914,50.839z M38.966,42.671c0,0.838-0.801,1.516-1.785,1.516H12.648
		c-0.987,0-1.787-0.678-1.787-1.516V7.009c0-0.837,0.8-1.516,1.787-1.516h24.532c0.984,0,1.785,0.679,1.785,1.516V42.671z"/>
</g>
</svg>
