<?xml version="1.0" encoding="utf-8"?>
<!-- Generator: Adobe Illustrator 15.1.0, SVG Export Plug-In . SVG Version: 6.00 Build 0)  -->
<!DOCTYPE svg PUBLIC "-//W3C//DTD SVG 1.1//EN" "http://www.w3.org/Graphics/SVG/1.1/DTD/svg11.dtd">
<svg version="1.1" id="Layer_1" xmlns="http://www.w3.org/2000/svg" xmlns:xlink="http://www.w3.org/1999/xlink" x="0px" y="0px"
	 width="20px" height="20px" viewBox="0 0 20 20" enable-background="new 0 0 20 20" xml:space="preserve">
<path d="M10.401,0.307C5.037,0.308,2.187,3.744,2.187,7.492c0,1.737,0.971,3.904,2.526,4.591c0.442,0.201,0.385-0.043,0.766-1.503
	c0.03-0.121,0.015-0.227-0.083-0.34c-2.222-2.57-0.434-7.854,4.689-7.854c7.412,0,6.028,10.257,1.289,10.257
	c-1.222,0-2.131-0.958-1.843-2.144c0.349-1.414,1.031-2.933,1.031-3.951c0-2.566-3.823-2.186-3.823,1.215
	c0,1.05,0.371,1.76,0.371,1.76s-1.229,4.971-1.458,5.9c-0.387,1.57,0.052,4.115,0.091,4.335c0.024,0.121,0.158,0.157,0.234,0.06
	c0.122-0.16,1.609-2.279,2.025-3.814c0.152-0.559,0.773-2.824,0.773-2.824c0.411,0.739,1.592,1.359,2.853,1.359
	c3.747,0,6.455-3.294,6.455-7.381C18.07,3.239,14.718,0.307,10.401,0.307z"/>
</svg>
