<svg xmlns="http://www.w3.org/2000/svg" width="20px" height="20px" viewBox="0 0 20 20">
<path d="M5.904,11.309L5.904,11.309l10.083-6.326c0.497-0.334,0.653,0.038,0.429,0.295l-8.369,7.528l-0.429,3.758L5.904,11.309z
	 M18.695,2.074L0.994,8.777c-0.968,0.28-0.937,1.236-0.221,1.466l4.436,1.384l1.697,5.203c0.207,0.57,0.375,0.784,0.727,0.789
	c0.371,0.005,0.512-0.13,0.897-0.471c0.45-0.422,1.136-1.088,2.219-2.142l4.614,3.409c0.849,0.468,1.462,0.226,1.673-0.788
	L19.928,3.32C20.237,2.077,19.507,1.706,18.695,2.074z"/>
</svg>
