<svg xmlns="http://www.w3.org/2000/svg" width="27" height="28.252" viewBox="0.055 2.685 27 28.252"><path fill="#F48120" d="M9.003 14.82c-.426-.679-1.507-2.155-1.05-2.76l-.002-.001.002-.002.007-.007.007-.007.002-.002h.001c.559-.514 2.133.418 2.851.777.764.382 1.521.693 1.854 1.584.205.548.032 1.148-.338 1.598l.001.001-.01.01-.009.011h-.001c-.413.41-.993.641-1.559.491-.917-.247-1.3-.97-1.756-1.693z"/><path fill="#F48120" d="M.055 27.06c.392-.568.916-.935 1.306-1.507 3.654 3.396 9.937 3.85 14.058 2.391 4.007-1.419 7.661-4.556 8.989-9.412 1.744-6.37-.614-10.901-3.954-14.269.385-.608.89-1.038 1.321-1.579a16.02 16.02 0 0 1 3.482 19.251c-2.905 5.751-9.295 9.875-16.722 8.842-3.695-.513-6.152-1.857-8.288-3.528-.046-.072-.193-.082-.192-.189z"/><path fill="#F6921E" d="M18.731 14.759c-1.438-.083-4.698-.501-5.255.743h-.003l-.002.006-.004.018-.007.016-.002.006.003.002c-.323 1.323 2.508 2.993 3.695 3.811 1.266.871 2.413 1.791 4.104 1.542 1.041-.153 1.834-.945 2.223-1.918h.003l.006-.022a.248.248 0 0 1 .009-.022h-.003c.29-1.005.149-2.119-.578-2.879-1.184-1.237-2.656-1.214-4.189-1.303zM15.899 8.73c-.922 1.108-3.195 3.481-2.526 4.669l-.003.001c.002.001.003.003.004.006l.011.013.008.014a.016.016 0 0 1 .004.007l.002-.003c.873 1.049 3.899-.236 5.26-.707 1.454-.5 2.876-.876 3.68-2.384.495-.928.329-2.037-.222-2.928l.002-.001-.015-.02-.012-.021-.002.002c-.637-.831-1.615-1.38-2.659-1.245-1.693.219-2.549 1.417-3.532 2.597zM5.426 20.096c1.028-1.009 3.208-3.469 4.448-2.899l.002-.002.006.003.014.011c.005.001.01.004.015.008l.006.003-.001.002c1.115.786.082 3.905-.276 5.3-.38 1.49-.638 2.938-2.075 3.861-.885.569-2.004.494-2.936.019l-.001.003a.143.143 0 0 1-.02-.014l-.022-.011.001-.001c-.88-.567-1.507-1.498-1.458-2.549.077-1.707 1.2-2.658 2.297-3.734zm10.722.314c-.958-1.077-2.968-3.677-4.242-3.191l-.002-.004c-.002.003-.003.004-.006.004l-.015.008c-.005.002-.011.003-.016.006-.002.001-.005.001-.006.003l.002.003c-1.166.707-.344 3.892-.083 5.308.28 1.511.44 2.974 1.81 3.992.845.627 1.966.627 2.929.215l.001.004.021-.013.023-.008-.001-.003c.915-.506 1.603-1.393 1.626-2.444.039-1.71-1.019-2.734-2.041-3.88z"/></svg>