<svg xmlns="http://www.w3.org/2000/svg" width="44.125" height="39.042" fill="#252525"><path d="M22.363 39.427l-.28-.008a19.315 19.315 0 0 1-2.905-.299l-.267-.049-.365-2.616a17.423 17.423 0 0 1-3.556-1.292l-1.889 1.826-.244-.139a20.185 20.185 0 0 1-2.473-1.655l-.214-.168.899-2.498a17.276 17.276 0 0 1-2.442-2.705l-2.517.737-.151-.236a20.181 20.181 0 0 1-1.443-2.696l-.108-.246 1.962-1.795a17.45 17.45 0 0 1-.869-3.364l-2.577-.521-.025-.278a19.69 19.69 0 0 1-.029-3.141l.019-.268 2.578-.679c.147-1.102.399-2.185.752-3.226l-2.043-1.66.105-.257c.404-.99.892-1.958 1.449-2.877l.14-.234 2.595.595a17.094 17.094 0 0 1 2.074-2.434L9.494 4.819l.208-.18a19.614 19.614 0 0 1 2.632-1.92l.232-.141 2.016 1.727A17.979 17.979 0 0 1 17.5 3.101l.209-2.644.264-.064a19.669 19.669 0 0 1 3.215-.5l.274-.02.973 2.455a17.49 17.49 0 0 1 3.188.262L27.038.34l.262.064c1.048.26 2.074.601 3.051 1.014l.256.108-.277 2.614a17.373 17.373 0 0 1 2.814 1.753l2.304-1.335.203.177a20.485 20.485 0 0 1 2.196 2.241l.181.215-1.461 2.192c.681.938 1.27 1.943 1.754 2.995l2.658-.111.097.25c.367.948.664 1.933.882 2.928l.061.274-2.304 1.256c.188 1.196.247 2.418.179 3.64l2.402 1.138-.034.27a20.16 20.16 0 0 1-.583 2.913l-.075.269-2.624.047a17.57 17.57 0 0 1-1.61 3.426l1.594 2.111-.157.223a20.71 20.71 0 0 1-1.847 2.265l-.192.205-2.348-1.192a17.38 17.38 0 0 1-3.111 2.306l.431 2.604-.248.123a21.97 21.97 0 0 1-1.317.607 22.23 22.23 0 0 1-1.362.5l-.263.089-1.532-2.148a17.121 17.121 0 0 1-3.831.562l-.824 2.494zm-2.784-.998c.722.119 1.476.197 2.248.23l.813-2.468.267-.004a16.36 16.36 0 0 0 4.162-.609l.254-.071 1.514 2.122c.352-.121.7-.249 1.052-.393.348-.146.687-.302 1.021-.464l-.428-2.572.23-.128a16.609 16.609 0 0 0 3.382-2.507l.192-.185 2.315 1.176c.519-.566.998-1.154 1.432-1.753l-1.575-2.087.14-.219a16.76 16.76 0 0 0 1.753-3.733l.083-.253 2.595-.047c.193-.733.346-1.494.453-2.267l-2.372-1.122.019-.256a16.5 16.5 0 0 0-.196-3.982l-.046-.265 2.276-1.242a19.21 19.21 0 0 0-.691-2.293l-2.627.11-.104-.233a16.94 16.94 0 0 0-1.932-3.296l-.159-.212 1.441-2.162a19.82 19.82 0 0 0-1.733-1.768l-2.276 1.319-.2-.158a16.64 16.64 0 0 0-3.114-1.938l-.238-.114.272-2.583a19.772 19.772 0 0 0-2.42-.803L25.986 3.42l-.252-.048a16.352 16.352 0 0 0-3.543-.29l-.261.007-.961-2.426a18.97 18.97 0 0 0-2.555.396l-.207 2.61-.245.074c-.594.179-1.154.377-1.665.589-.53.219-1.064.473-1.588.754l-.226.121-1.99-1.705c-.725.456-1.426.967-2.092 1.526l1.033 2.398-.191.18a16.374 16.374 0 0 0-2.304 2.704l-.144.212-2.563-.586a19.835 19.835 0 0 0-1.15 2.284l2.02 1.642-.089.25a16.37 16.37 0 0 0-.833 3.567l-.03.254-2.548.67c-.046.834-.039 1.665.022 2.476l2.546.515.037.263a16.64 16.64 0 0 0 .955 3.702l.092.239-1.94 1.773c.334.729.713 1.438 1.13 2.112l2.488-.729.154.22a16.51 16.51 0 0 0 2.67 2.96l.194.169-.888 2.467c.616.468 1.262.9 1.924 1.289l1.869-1.806.239.122a16.655 16.655 0 0 0 3.875 1.409l.252.058.358 2.587zm3.085-4.693c-.001 0-.001 0 0 0a13.952 13.952 0 0 1-12.936-8.654 13.9 13.9 0 0 1 .01-10.708 13.898 13.898 0 0 1 7.579-7.564 13.916 13.916 0 0 1 5.339-1.064 13.954 13.954 0 0 1 12.937 8.65 13.903 13.903 0 0 1-.009 10.711 13.899 13.899 0 0 1-7.581 7.564 13.92 13.92 0 0 1-5.339 1.065zm-.008-27.241c-1.735 0-3.435.339-5.053 1.007a13.15 13.15 0 0 0-7.172 7.159 13.147 13.147 0 0 0-.009 10.133 13.2 13.2 0 0 0 12.241 8.191h.001c1.734 0 3.435-.339 5.052-1.009 3.271-1.35 5.818-3.893 7.175-7.159s1.359-6.866.009-10.137a13.207 13.207 0 0 0-12.244-8.185zm.009 24.364c-.001 0-.001 0 0 0a11.086 11.086 0 0 1-10.278-6.873 11.039 11.039 0 0 1 .007-8.507 11.045 11.045 0 0 1 6.018-6.01 11.067 11.067 0 0 1 4.244-.846c4.518 0 8.551 2.697 10.274 6.871a11.045 11.045 0 0 1-.006 8.511 11.051 11.051 0 0 1-6.024 6.011 11.06 11.06 0 0 1-4.235.843zm-.009-21.486c-1.359 0-2.69.265-3.958.789a10.292 10.292 0 0 0-5.611 5.604 10.293 10.293 0 0 0-.006 7.933 10.337 10.337 0 0 0 9.583 6.41h.001c1.355 0 2.685-.265 3.948-.787a10.302 10.302 0 0 0 5.619-5.605 10.303 10.303 0 0 0 .005-7.937 10.33 10.33 0 0 0-9.581-6.407z"/></svg>